%TF.GenerationSoftware,KiCad,Pcbnew,5.1.12-84ad8e8a86~92~ubuntu18.04.1*%
%TF.CreationDate,2024-08-09T12:32:27+07:00*%
%TF.ProjectId,framos_FSM_IMX_2LANE_Jetson_Adapter,6672616d-6f73-45f4-9653-4d5f494d585f,rev?*%
%TF.SameCoordinates,Original*%
%TF.FileFunction,Soldermask,Top*%
%TF.FilePolarity,Negative*%
%FSLAX46Y46*%
G04 Gerber Fmt 4.6, Leading zero omitted, Abs format (unit mm)*
G04 Created by KiCad (PCBNEW 5.1.12-84ad8e8a86~92~ubuntu18.04.1) date 2024-08-09 12:32:27*
%MOMM*%
%LPD*%
G01*
G04 APERTURE LIST*
%TA.AperFunction,Profile*%
%ADD10C,0.200000*%
%TD*%
%ADD11C,3.900000*%
G04 APERTURE END LIST*
D10*
X136475000Y-52525000D02*
X136493537Y-74564288D01*
X136493537Y-74564288D02*
G75*
G02*
X133725000Y-77150000I-2768537J189288D01*
G01*
X111650000Y-77150000D02*
G75*
G02*
X108875000Y-74375000I0J2775000D01*
G01*
X133700000Y-49750000D02*
G75*
G02*
X136475000Y-52525000I0J-2775000D01*
G01*
X108875000Y-52525000D02*
G75*
G02*
X111650000Y-49750000I2775000J0D01*
G01*
X108875000Y-74375000D02*
X108875000Y-52525000D01*
X133725000Y-77150000D02*
X111650000Y-77150000D01*
X111650000Y-49750000D02*
X133700000Y-49750000D01*
%TO.C,U1*%
G36*
G01*
X128244641Y-65027340D02*
X128752641Y-65027340D01*
G75*
G02*
X128802641Y-65077340I0J-50000D01*
G01*
X128802641Y-66029840D01*
G75*
G02*
X128752641Y-66079840I-50000J0D01*
G01*
X128244641Y-66079840D01*
G75*
G02*
X128194641Y-66029840I0J50000D01*
G01*
X128194641Y-65077340D01*
G75*
G02*
X128244641Y-65027340I50000J0D01*
G01*
G37*
G36*
G01*
X126344639Y-65027340D02*
X126852639Y-65027340D01*
G75*
G02*
X126902639Y-65077340I0J-50000D01*
G01*
X126902639Y-66029840D01*
G75*
G02*
X126852639Y-66079840I-50000J0D01*
G01*
X126344639Y-66079840D01*
G75*
G02*
X126294639Y-66029840I0J50000D01*
G01*
X126294639Y-65077340D01*
G75*
G02*
X126344639Y-65027340I50000J0D01*
G01*
G37*
G36*
G01*
X126344639Y-62474640D02*
X126852639Y-62474640D01*
G75*
G02*
X126902639Y-62524640I0J-50000D01*
G01*
X126902639Y-63477140D01*
G75*
G02*
X126852639Y-63527140I-50000J0D01*
G01*
X126344639Y-63527140D01*
G75*
G02*
X126294639Y-63477140I0J50000D01*
G01*
X126294639Y-62524640D01*
G75*
G02*
X126344639Y-62474640I50000J0D01*
G01*
G37*
G36*
G01*
X127294640Y-62474640D02*
X127802640Y-62474640D01*
G75*
G02*
X127852640Y-62524640I0J-50000D01*
G01*
X127852640Y-63477140D01*
G75*
G02*
X127802640Y-63527140I-50000J0D01*
G01*
X127294640Y-63527140D01*
G75*
G02*
X127244640Y-63477140I0J50000D01*
G01*
X127244640Y-62524640D01*
G75*
G02*
X127294640Y-62474640I50000J0D01*
G01*
G37*
G36*
G01*
X128244641Y-62474640D02*
X128752641Y-62474640D01*
G75*
G02*
X128802641Y-62524640I0J-50000D01*
G01*
X128802641Y-63477140D01*
G75*
G02*
X128752641Y-63527140I-50000J0D01*
G01*
X128244641Y-63527140D01*
G75*
G02*
X128194641Y-63477140I0J50000D01*
G01*
X128194641Y-62524640D01*
G75*
G02*
X128244641Y-62474640I50000J0D01*
G01*
G37*
%TD*%
%TO.C,R9*%
G36*
G01*
X114610160Y-57239320D02*
X114010160Y-57239320D01*
G75*
G02*
X113785160Y-57014320I0J225000D01*
G01*
X113785160Y-56564320D01*
G75*
G02*
X114010160Y-56339320I225000J0D01*
G01*
X114610160Y-56339320D01*
G75*
G02*
X114835160Y-56564320I0J-225000D01*
G01*
X114835160Y-57014320D01*
G75*
G02*
X114610160Y-57239320I-225000J0D01*
G01*
G37*
G36*
G01*
X114610160Y-58889320D02*
X114010160Y-58889320D01*
G75*
G02*
X113785160Y-58664320I0J225000D01*
G01*
X113785160Y-58214320D01*
G75*
G02*
X114010160Y-57989320I225000J0D01*
G01*
X114610160Y-57989320D01*
G75*
G02*
X114835160Y-58214320I0J-225000D01*
G01*
X114835160Y-58664320D01*
G75*
G02*
X114610160Y-58889320I-225000J0D01*
G01*
G37*
%TD*%
%TO.C,U3*%
G36*
G01*
X128531620Y-60551860D02*
X129065020Y-60551860D01*
G75*
G02*
X129115020Y-60601860I0J-50000D01*
G01*
X129115020Y-62062360D01*
G75*
G02*
X129065020Y-62112360I-50000J0D01*
G01*
X128531620Y-62112360D01*
G75*
G02*
X128481620Y-62062360I0J50000D01*
G01*
X128481620Y-60601860D01*
G75*
G02*
X128531620Y-60551860I50000J0D01*
G01*
G37*
G36*
G01*
X127261620Y-60551860D02*
X127795020Y-60551860D01*
G75*
G02*
X127845020Y-60601860I0J-50000D01*
G01*
X127845020Y-62062360D01*
G75*
G02*
X127795020Y-62112360I-50000J0D01*
G01*
X127261620Y-62112360D01*
G75*
G02*
X127211620Y-62062360I0J50000D01*
G01*
X127211620Y-60601860D01*
G75*
G02*
X127261620Y-60551860I50000J0D01*
G01*
G37*
G36*
G01*
X125991620Y-60551860D02*
X126525020Y-60551860D01*
G75*
G02*
X126575020Y-60601860I0J-50000D01*
G01*
X126575020Y-62062360D01*
G75*
G02*
X126525020Y-62112360I-50000J0D01*
G01*
X125991620Y-62112360D01*
G75*
G02*
X125941620Y-62062360I0J50000D01*
G01*
X125941620Y-60601860D01*
G75*
G02*
X125991620Y-60551860I50000J0D01*
G01*
G37*
G36*
G01*
X124721620Y-60551860D02*
X125255020Y-60551860D01*
G75*
G02*
X125305020Y-60601860I0J-50000D01*
G01*
X125305020Y-62062360D01*
G75*
G02*
X125255020Y-62112360I-50000J0D01*
G01*
X124721620Y-62112360D01*
G75*
G02*
X124671620Y-62062360I0J50000D01*
G01*
X124671620Y-60601860D01*
G75*
G02*
X124721620Y-60551860I50000J0D01*
G01*
G37*
G36*
G01*
X124721620Y-55103560D02*
X125255020Y-55103560D01*
G75*
G02*
X125305020Y-55153560I0J-50000D01*
G01*
X125305020Y-56614060D01*
G75*
G02*
X125255020Y-56664060I-50000J0D01*
G01*
X124721620Y-56664060D01*
G75*
G02*
X124671620Y-56614060I0J50000D01*
G01*
X124671620Y-55153560D01*
G75*
G02*
X124721620Y-55103560I50000J0D01*
G01*
G37*
G36*
G01*
X125991620Y-55103560D02*
X126525020Y-55103560D01*
G75*
G02*
X126575020Y-55153560I0J-50000D01*
G01*
X126575020Y-56614060D01*
G75*
G02*
X126525020Y-56664060I-50000J0D01*
G01*
X125991620Y-56664060D01*
G75*
G02*
X125941620Y-56614060I0J50000D01*
G01*
X125941620Y-55153560D01*
G75*
G02*
X125991620Y-55103560I50000J0D01*
G01*
G37*
G36*
G01*
X127261620Y-55103560D02*
X127795020Y-55103560D01*
G75*
G02*
X127845020Y-55153560I0J-50000D01*
G01*
X127845020Y-56614060D01*
G75*
G02*
X127795020Y-56664060I-50000J0D01*
G01*
X127261620Y-56664060D01*
G75*
G02*
X127211620Y-56614060I0J50000D01*
G01*
X127211620Y-55153560D01*
G75*
G02*
X127261620Y-55103560I50000J0D01*
G01*
G37*
G36*
G01*
X128531620Y-55103560D02*
X129065020Y-55103560D01*
G75*
G02*
X129115020Y-55153560I0J-50000D01*
G01*
X129115020Y-56614060D01*
G75*
G02*
X129065020Y-56664060I-50000J0D01*
G01*
X128531620Y-56664060D01*
G75*
G02*
X128481620Y-56614060I0J50000D01*
G01*
X128481620Y-55153560D01*
G75*
G02*
X128531620Y-55103560I50000J0D01*
G01*
G37*
%TD*%
%TO.C,C4*%
G36*
G01*
X117974690Y-64800400D02*
X117412190Y-64800400D01*
G75*
G02*
X117168440Y-64556650I0J243750D01*
G01*
X117168440Y-64069150D01*
G75*
G02*
X117412190Y-63825400I243750J0D01*
G01*
X117974690Y-63825400D01*
G75*
G02*
X118218440Y-64069150I0J-243750D01*
G01*
X118218440Y-64556650D01*
G75*
G02*
X117974690Y-64800400I-243750J0D01*
G01*
G37*
G36*
G01*
X117974690Y-63225400D02*
X117412190Y-63225400D01*
G75*
G02*
X117168440Y-62981650I0J243750D01*
G01*
X117168440Y-62494150D01*
G75*
G02*
X117412190Y-62250400I243750J0D01*
G01*
X117974690Y-62250400D01*
G75*
G02*
X118218440Y-62494150I0J-243750D01*
G01*
X118218440Y-62981650D01*
G75*
G02*
X117974690Y-63225400I-243750J0D01*
G01*
G37*
%TD*%
%TO.C,C6*%
G36*
G01*
X117226360Y-61535890D02*
X117226360Y-60973390D01*
G75*
G02*
X117470110Y-60729640I243750J0D01*
G01*
X117957610Y-60729640D01*
G75*
G02*
X118201360Y-60973390I0J-243750D01*
G01*
X118201360Y-61535890D01*
G75*
G02*
X117957610Y-61779640I-243750J0D01*
G01*
X117470110Y-61779640D01*
G75*
G02*
X117226360Y-61535890I0J243750D01*
G01*
G37*
G36*
G01*
X115651360Y-61535890D02*
X115651360Y-60973390D01*
G75*
G02*
X115895110Y-60729640I243750J0D01*
G01*
X116382610Y-60729640D01*
G75*
G02*
X116626360Y-60973390I0J-243750D01*
G01*
X116626360Y-61535890D01*
G75*
G02*
X116382610Y-61779640I-243750J0D01*
G01*
X115895110Y-61779640D01*
G75*
G02*
X115651360Y-61535890I0J243750D01*
G01*
G37*
%TD*%
%TO.C,R6*%
G36*
G01*
X115857710Y-62250400D02*
X116420210Y-62250400D01*
G75*
G02*
X116663960Y-62494150I0J-243750D01*
G01*
X116663960Y-62981650D01*
G75*
G02*
X116420210Y-63225400I-243750J0D01*
G01*
X115857710Y-63225400D01*
G75*
G02*
X115613960Y-62981650I0J243750D01*
G01*
X115613960Y-62494150D01*
G75*
G02*
X115857710Y-62250400I243750J0D01*
G01*
G37*
G36*
G01*
X115857710Y-63825400D02*
X116420210Y-63825400D01*
G75*
G02*
X116663960Y-64069150I0J-243750D01*
G01*
X116663960Y-64556650D01*
G75*
G02*
X116420210Y-64800400I-243750J0D01*
G01*
X115857710Y-64800400D01*
G75*
G02*
X115613960Y-64556650I0J243750D01*
G01*
X115613960Y-64069150D01*
G75*
G02*
X115857710Y-63825400I243750J0D01*
G01*
G37*
%TD*%
%TO.C,R4*%
G36*
G01*
X121523480Y-66745200D02*
X122123480Y-66745200D01*
G75*
G02*
X122348480Y-66970200I0J-225000D01*
G01*
X122348480Y-67420200D01*
G75*
G02*
X122123480Y-67645200I-225000J0D01*
G01*
X121523480Y-67645200D01*
G75*
G02*
X121298480Y-67420200I0J225000D01*
G01*
X121298480Y-66970200D01*
G75*
G02*
X121523480Y-66745200I225000J0D01*
G01*
G37*
G36*
G01*
X121523480Y-65095200D02*
X122123480Y-65095200D01*
G75*
G02*
X122348480Y-65320200I0J-225000D01*
G01*
X122348480Y-65770200D01*
G75*
G02*
X122123480Y-65995200I-225000J0D01*
G01*
X121523480Y-65995200D01*
G75*
G02*
X121298480Y-65770200I0J225000D01*
G01*
X121298480Y-65320200D01*
G75*
G02*
X121523480Y-65095200I225000J0D01*
G01*
G37*
%TD*%
%TO.C,R3*%
G36*
G01*
X123669370Y-66054960D02*
X123106870Y-66054960D01*
G75*
G02*
X122863120Y-65811210I0J243750D01*
G01*
X122863120Y-65323710D01*
G75*
G02*
X123106870Y-65079960I243750J0D01*
G01*
X123669370Y-65079960D01*
G75*
G02*
X123913120Y-65323710I0J-243750D01*
G01*
X123913120Y-65811210D01*
G75*
G02*
X123669370Y-66054960I-243750J0D01*
G01*
G37*
G36*
G01*
X123669370Y-67629960D02*
X123106870Y-67629960D01*
G75*
G02*
X122863120Y-67386210I0J243750D01*
G01*
X122863120Y-66898710D01*
G75*
G02*
X123106870Y-66654960I243750J0D01*
G01*
X123669370Y-66654960D01*
G75*
G02*
X123913120Y-66898710I0J-243750D01*
G01*
X123913120Y-67386210D01*
G75*
G02*
X123669370Y-67629960I-243750J0D01*
G01*
G37*
%TD*%
%TO.C,R8*%
G36*
G01*
X131435120Y-57465880D02*
X130835120Y-57465880D01*
G75*
G02*
X130610120Y-57240880I0J225000D01*
G01*
X130610120Y-56790880D01*
G75*
G02*
X130835120Y-56565880I225000J0D01*
G01*
X131435120Y-56565880D01*
G75*
G02*
X131660120Y-56790880I0J-225000D01*
G01*
X131660120Y-57240880D01*
G75*
G02*
X131435120Y-57465880I-225000J0D01*
G01*
G37*
G36*
G01*
X131435120Y-59115880D02*
X130835120Y-59115880D01*
G75*
G02*
X130610120Y-58890880I0J225000D01*
G01*
X130610120Y-58440880D01*
G75*
G02*
X130835120Y-58215880I225000J0D01*
G01*
X131435120Y-58215880D01*
G75*
G02*
X131660120Y-58440880I0J-225000D01*
G01*
X131660120Y-58890880D01*
G75*
G02*
X131435120Y-59115880I-225000J0D01*
G01*
G37*
%TD*%
D11*
%TO.C,RU1*%
X133944360Y-52324000D03*
%TD*%
%TO.C,RD1*%
X133883400Y-74579480D03*
%TD*%
%TO.C,LU1*%
X111485680Y-52324000D03*
%TD*%
%TO.C,LD1*%
X111455200Y-74569320D03*
%TD*%
%TO.C,R2*%
G36*
G01*
X125247680Y-65969800D02*
X124647680Y-65969800D01*
G75*
G02*
X124422680Y-65744800I0J225000D01*
G01*
X124422680Y-65294800D01*
G75*
G02*
X124647680Y-65069800I225000J0D01*
G01*
X125247680Y-65069800D01*
G75*
G02*
X125472680Y-65294800I0J-225000D01*
G01*
X125472680Y-65744800D01*
G75*
G02*
X125247680Y-65969800I-225000J0D01*
G01*
G37*
G36*
G01*
X125247680Y-67619800D02*
X124647680Y-67619800D01*
G75*
G02*
X124422680Y-67394800I0J225000D01*
G01*
X124422680Y-66944800D01*
G75*
G02*
X124647680Y-66719800I225000J0D01*
G01*
X125247680Y-66719800D01*
G75*
G02*
X125472680Y-66944800I0J-225000D01*
G01*
X125472680Y-67394800D01*
G75*
G02*
X125247680Y-67619800I-225000J0D01*
G01*
G37*
%TD*%
%TO.C,R7*%
G36*
G01*
X121213600Y-57428480D02*
X121813600Y-57428480D01*
G75*
G02*
X122038600Y-57653480I0J-225000D01*
G01*
X122038600Y-58103480D01*
G75*
G02*
X121813600Y-58328480I-225000J0D01*
G01*
X121213600Y-58328480D01*
G75*
G02*
X120988600Y-58103480I0J225000D01*
G01*
X120988600Y-57653480D01*
G75*
G02*
X121213600Y-57428480I225000J0D01*
G01*
G37*
G36*
G01*
X121213600Y-55778480D02*
X121813600Y-55778480D01*
G75*
G02*
X122038600Y-56003480I0J-225000D01*
G01*
X122038600Y-56453480D01*
G75*
G02*
X121813600Y-56678480I-225000J0D01*
G01*
X121213600Y-56678480D01*
G75*
G02*
X120988600Y-56453480I0J225000D01*
G01*
X120988600Y-56003480D01*
G75*
G02*
X121213600Y-55778480I225000J0D01*
G01*
G37*
%TD*%
%TO.C,C7*%
G36*
G01*
X122555680Y-59655120D02*
X122555680Y-59105120D01*
G75*
G02*
X122805680Y-58855120I250000J0D01*
G01*
X123305680Y-58855120D01*
G75*
G02*
X123555680Y-59105120I0J-250000D01*
G01*
X123555680Y-59655120D01*
G75*
G02*
X123305680Y-59905120I-250000J0D01*
G01*
X122805680Y-59905120D01*
G75*
G02*
X122555680Y-59655120I0J250000D01*
G01*
G37*
G36*
G01*
X121005680Y-59655120D02*
X121005680Y-59105120D01*
G75*
G02*
X121255680Y-58855120I250000J0D01*
G01*
X121755680Y-58855120D01*
G75*
G02*
X122005680Y-59105120I0J-250000D01*
G01*
X122005680Y-59655120D01*
G75*
G02*
X121755680Y-59905120I-250000J0D01*
G01*
X121255680Y-59905120D01*
G75*
G02*
X121005680Y-59655120I0J250000D01*
G01*
G37*
%TD*%
%TO.C,J1*%
G36*
G01*
X128700000Y-71460000D02*
X128700000Y-72160000D01*
G75*
G02*
X128650000Y-72210000I-50000J0D01*
G01*
X128450000Y-72210000D01*
G75*
G02*
X128400000Y-72160000I0J50000D01*
G01*
X128400000Y-71460000D01*
G75*
G02*
X128450000Y-71410000I50000J0D01*
G01*
X128650000Y-71410000D01*
G75*
G02*
X128700000Y-71460000I0J-50000D01*
G01*
G37*
G36*
G01*
X128700000Y-74540000D02*
X128700000Y-75240000D01*
G75*
G02*
X128650000Y-75290000I-50000J0D01*
G01*
X128450000Y-75290000D01*
G75*
G02*
X128400000Y-75240000I0J50000D01*
G01*
X128400000Y-74540000D01*
G75*
G02*
X128450000Y-74490000I50000J0D01*
G01*
X128650000Y-74490000D01*
G75*
G02*
X128700000Y-74540000I0J-50000D01*
G01*
G37*
G36*
G01*
X128300000Y-71460000D02*
X128300000Y-72160000D01*
G75*
G02*
X128250000Y-72210000I-50000J0D01*
G01*
X128050000Y-72210000D01*
G75*
G02*
X128000000Y-72160000I0J50000D01*
G01*
X128000000Y-71460000D01*
G75*
G02*
X128050000Y-71410000I50000J0D01*
G01*
X128250000Y-71410000D01*
G75*
G02*
X128300000Y-71460000I0J-50000D01*
G01*
G37*
G36*
G01*
X128300000Y-74540000D02*
X128300000Y-75240000D01*
G75*
G02*
X128250000Y-75290000I-50000J0D01*
G01*
X128050000Y-75290000D01*
G75*
G02*
X128000000Y-75240000I0J50000D01*
G01*
X128000000Y-74540000D01*
G75*
G02*
X128050000Y-74490000I50000J0D01*
G01*
X128250000Y-74490000D01*
G75*
G02*
X128300000Y-74540000I0J-50000D01*
G01*
G37*
G36*
G01*
X127900000Y-71460000D02*
X127900000Y-72160000D01*
G75*
G02*
X127850000Y-72210000I-50000J0D01*
G01*
X127650000Y-72210000D01*
G75*
G02*
X127600000Y-72160000I0J50000D01*
G01*
X127600000Y-71460000D01*
G75*
G02*
X127650000Y-71410000I50000J0D01*
G01*
X127850000Y-71410000D01*
G75*
G02*
X127900000Y-71460000I0J-50000D01*
G01*
G37*
G36*
G01*
X127900000Y-74540000D02*
X127900000Y-75240000D01*
G75*
G02*
X127850000Y-75290000I-50000J0D01*
G01*
X127650000Y-75290000D01*
G75*
G02*
X127600000Y-75240000I0J50000D01*
G01*
X127600000Y-74540000D01*
G75*
G02*
X127650000Y-74490000I50000J0D01*
G01*
X127850000Y-74490000D01*
G75*
G02*
X127900000Y-74540000I0J-50000D01*
G01*
G37*
G36*
G01*
X127500000Y-71460000D02*
X127500000Y-72160000D01*
G75*
G02*
X127450000Y-72210000I-50000J0D01*
G01*
X127250000Y-72210000D01*
G75*
G02*
X127200000Y-72160000I0J50000D01*
G01*
X127200000Y-71460000D01*
G75*
G02*
X127250000Y-71410000I50000J0D01*
G01*
X127450000Y-71410000D01*
G75*
G02*
X127500000Y-71460000I0J-50000D01*
G01*
G37*
G36*
G01*
X127500000Y-74540000D02*
X127500000Y-75240000D01*
G75*
G02*
X127450000Y-75290000I-50000J0D01*
G01*
X127250000Y-75290000D01*
G75*
G02*
X127200000Y-75240000I0J50000D01*
G01*
X127200000Y-74540000D01*
G75*
G02*
X127250000Y-74490000I50000J0D01*
G01*
X127450000Y-74490000D01*
G75*
G02*
X127500000Y-74540000I0J-50000D01*
G01*
G37*
G36*
G01*
X127100000Y-71460000D02*
X127100000Y-72160000D01*
G75*
G02*
X127050000Y-72210000I-50000J0D01*
G01*
X126850000Y-72210000D01*
G75*
G02*
X126800000Y-72160000I0J50000D01*
G01*
X126800000Y-71460000D01*
G75*
G02*
X126850000Y-71410000I50000J0D01*
G01*
X127050000Y-71410000D01*
G75*
G02*
X127100000Y-71460000I0J-50000D01*
G01*
G37*
G36*
G01*
X127100000Y-74540000D02*
X127100000Y-75240000D01*
G75*
G02*
X127050000Y-75290000I-50000J0D01*
G01*
X126850000Y-75290000D01*
G75*
G02*
X126800000Y-75240000I0J50000D01*
G01*
X126800000Y-74540000D01*
G75*
G02*
X126850000Y-74490000I50000J0D01*
G01*
X127050000Y-74490000D01*
G75*
G02*
X127100000Y-74540000I0J-50000D01*
G01*
G37*
G36*
G01*
X126700000Y-71460000D02*
X126700000Y-72160000D01*
G75*
G02*
X126650000Y-72210000I-50000J0D01*
G01*
X126450000Y-72210000D01*
G75*
G02*
X126400000Y-72160000I0J50000D01*
G01*
X126400000Y-71460000D01*
G75*
G02*
X126450000Y-71410000I50000J0D01*
G01*
X126650000Y-71410000D01*
G75*
G02*
X126700000Y-71460000I0J-50000D01*
G01*
G37*
G36*
G01*
X126700000Y-74540000D02*
X126700000Y-75240000D01*
G75*
G02*
X126650000Y-75290000I-50000J0D01*
G01*
X126450000Y-75290000D01*
G75*
G02*
X126400000Y-75240000I0J50000D01*
G01*
X126400000Y-74540000D01*
G75*
G02*
X126450000Y-74490000I50000J0D01*
G01*
X126650000Y-74490000D01*
G75*
G02*
X126700000Y-74540000I0J-50000D01*
G01*
G37*
G36*
G01*
X126300000Y-71460000D02*
X126300000Y-72160000D01*
G75*
G02*
X126250000Y-72210000I-50000J0D01*
G01*
X126050000Y-72210000D01*
G75*
G02*
X126000000Y-72160000I0J50000D01*
G01*
X126000000Y-71460000D01*
G75*
G02*
X126050000Y-71410000I50000J0D01*
G01*
X126250000Y-71410000D01*
G75*
G02*
X126300000Y-71460000I0J-50000D01*
G01*
G37*
G36*
G01*
X126300000Y-74540000D02*
X126300000Y-75240000D01*
G75*
G02*
X126250000Y-75290000I-50000J0D01*
G01*
X126050000Y-75290000D01*
G75*
G02*
X126000000Y-75240000I0J50000D01*
G01*
X126000000Y-74540000D01*
G75*
G02*
X126050000Y-74490000I50000J0D01*
G01*
X126250000Y-74490000D01*
G75*
G02*
X126300000Y-74540000I0J-50000D01*
G01*
G37*
G36*
G01*
X125900000Y-71460000D02*
X125900000Y-72160000D01*
G75*
G02*
X125850000Y-72210000I-50000J0D01*
G01*
X125650000Y-72210000D01*
G75*
G02*
X125600000Y-72160000I0J50000D01*
G01*
X125600000Y-71460000D01*
G75*
G02*
X125650000Y-71410000I50000J0D01*
G01*
X125850000Y-71410000D01*
G75*
G02*
X125900000Y-71460000I0J-50000D01*
G01*
G37*
G36*
G01*
X125900000Y-74540000D02*
X125900000Y-75240000D01*
G75*
G02*
X125850000Y-75290000I-50000J0D01*
G01*
X125650000Y-75290000D01*
G75*
G02*
X125600000Y-75240000I0J50000D01*
G01*
X125600000Y-74540000D01*
G75*
G02*
X125650000Y-74490000I50000J0D01*
G01*
X125850000Y-74490000D01*
G75*
G02*
X125900000Y-74540000I0J-50000D01*
G01*
G37*
G36*
G01*
X125500000Y-71460000D02*
X125500000Y-72160000D01*
G75*
G02*
X125450000Y-72210000I-50000J0D01*
G01*
X125250000Y-72210000D01*
G75*
G02*
X125200000Y-72160000I0J50000D01*
G01*
X125200000Y-71460000D01*
G75*
G02*
X125250000Y-71410000I50000J0D01*
G01*
X125450000Y-71410000D01*
G75*
G02*
X125500000Y-71460000I0J-50000D01*
G01*
G37*
G36*
G01*
X125500000Y-74540000D02*
X125500000Y-75240000D01*
G75*
G02*
X125450000Y-75290000I-50000J0D01*
G01*
X125250000Y-75290000D01*
G75*
G02*
X125200000Y-75240000I0J50000D01*
G01*
X125200000Y-74540000D01*
G75*
G02*
X125250000Y-74490000I50000J0D01*
G01*
X125450000Y-74490000D01*
G75*
G02*
X125500000Y-74540000I0J-50000D01*
G01*
G37*
G36*
G01*
X125100000Y-71460000D02*
X125100000Y-72160000D01*
G75*
G02*
X125050000Y-72210000I-50000J0D01*
G01*
X124850000Y-72210000D01*
G75*
G02*
X124800000Y-72160000I0J50000D01*
G01*
X124800000Y-71460000D01*
G75*
G02*
X124850000Y-71410000I50000J0D01*
G01*
X125050000Y-71410000D01*
G75*
G02*
X125100000Y-71460000I0J-50000D01*
G01*
G37*
G36*
G01*
X125100000Y-74540000D02*
X125100000Y-75240000D01*
G75*
G02*
X125050000Y-75290000I-50000J0D01*
G01*
X124850000Y-75290000D01*
G75*
G02*
X124800000Y-75240000I0J50000D01*
G01*
X124800000Y-74540000D01*
G75*
G02*
X124850000Y-74490000I50000J0D01*
G01*
X125050000Y-74490000D01*
G75*
G02*
X125100000Y-74540000I0J-50000D01*
G01*
G37*
G36*
G01*
X124700000Y-71460000D02*
X124700000Y-72160000D01*
G75*
G02*
X124650000Y-72210000I-50000J0D01*
G01*
X124450000Y-72210000D01*
G75*
G02*
X124400000Y-72160000I0J50000D01*
G01*
X124400000Y-71460000D01*
G75*
G02*
X124450000Y-71410000I50000J0D01*
G01*
X124650000Y-71410000D01*
G75*
G02*
X124700000Y-71460000I0J-50000D01*
G01*
G37*
G36*
G01*
X124700000Y-74540000D02*
X124700000Y-75240000D01*
G75*
G02*
X124650000Y-75290000I-50000J0D01*
G01*
X124450000Y-75290000D01*
G75*
G02*
X124400000Y-75240000I0J50000D01*
G01*
X124400000Y-74540000D01*
G75*
G02*
X124450000Y-74490000I50000J0D01*
G01*
X124650000Y-74490000D01*
G75*
G02*
X124700000Y-74540000I0J-50000D01*
G01*
G37*
G36*
G01*
X124300000Y-71460000D02*
X124300000Y-72160000D01*
G75*
G02*
X124250000Y-72210000I-50000J0D01*
G01*
X124050000Y-72210000D01*
G75*
G02*
X124000000Y-72160000I0J50000D01*
G01*
X124000000Y-71460000D01*
G75*
G02*
X124050000Y-71410000I50000J0D01*
G01*
X124250000Y-71410000D01*
G75*
G02*
X124300000Y-71460000I0J-50000D01*
G01*
G37*
G36*
G01*
X124300000Y-74540000D02*
X124300000Y-75240000D01*
G75*
G02*
X124250000Y-75290000I-50000J0D01*
G01*
X124050000Y-75290000D01*
G75*
G02*
X124000000Y-75240000I0J50000D01*
G01*
X124000000Y-74540000D01*
G75*
G02*
X124050000Y-74490000I50000J0D01*
G01*
X124250000Y-74490000D01*
G75*
G02*
X124300000Y-74540000I0J-50000D01*
G01*
G37*
G36*
G01*
X123900000Y-71460000D02*
X123900000Y-72160000D01*
G75*
G02*
X123850000Y-72210000I-50000J0D01*
G01*
X123650000Y-72210000D01*
G75*
G02*
X123600000Y-72160000I0J50000D01*
G01*
X123600000Y-71460000D01*
G75*
G02*
X123650000Y-71410000I50000J0D01*
G01*
X123850000Y-71410000D01*
G75*
G02*
X123900000Y-71460000I0J-50000D01*
G01*
G37*
G36*
G01*
X123900000Y-74540000D02*
X123900000Y-75240000D01*
G75*
G02*
X123850000Y-75290000I-50000J0D01*
G01*
X123650000Y-75290000D01*
G75*
G02*
X123600000Y-75240000I0J50000D01*
G01*
X123600000Y-74540000D01*
G75*
G02*
X123650000Y-74490000I50000J0D01*
G01*
X123850000Y-74490000D01*
G75*
G02*
X123900000Y-74540000I0J-50000D01*
G01*
G37*
G36*
G01*
X123500000Y-71460000D02*
X123500000Y-72160000D01*
G75*
G02*
X123450000Y-72210000I-50000J0D01*
G01*
X123250000Y-72210000D01*
G75*
G02*
X123200000Y-72160000I0J50000D01*
G01*
X123200000Y-71460000D01*
G75*
G02*
X123250000Y-71410000I50000J0D01*
G01*
X123450000Y-71410000D01*
G75*
G02*
X123500000Y-71460000I0J-50000D01*
G01*
G37*
G36*
G01*
X123500000Y-74540000D02*
X123500000Y-75240000D01*
G75*
G02*
X123450000Y-75290000I-50000J0D01*
G01*
X123250000Y-75290000D01*
G75*
G02*
X123200000Y-75240000I0J50000D01*
G01*
X123200000Y-74540000D01*
G75*
G02*
X123250000Y-74490000I50000J0D01*
G01*
X123450000Y-74490000D01*
G75*
G02*
X123500000Y-74540000I0J-50000D01*
G01*
G37*
G36*
G01*
X123100000Y-71460000D02*
X123100000Y-72160000D01*
G75*
G02*
X123050000Y-72210000I-50000J0D01*
G01*
X122850000Y-72210000D01*
G75*
G02*
X122800000Y-72160000I0J50000D01*
G01*
X122800000Y-71460000D01*
G75*
G02*
X122850000Y-71410000I50000J0D01*
G01*
X123050000Y-71410000D01*
G75*
G02*
X123100000Y-71460000I0J-50000D01*
G01*
G37*
G36*
G01*
X123100000Y-74540000D02*
X123100000Y-75240000D01*
G75*
G02*
X123050000Y-75290000I-50000J0D01*
G01*
X122850000Y-75290000D01*
G75*
G02*
X122800000Y-75240000I0J50000D01*
G01*
X122800000Y-74540000D01*
G75*
G02*
X122850000Y-74490000I50000J0D01*
G01*
X123050000Y-74490000D01*
G75*
G02*
X123100000Y-74540000I0J-50000D01*
G01*
G37*
G36*
G01*
X122700000Y-71460000D02*
X122700000Y-72160000D01*
G75*
G02*
X122650000Y-72210000I-50000J0D01*
G01*
X122450000Y-72210000D01*
G75*
G02*
X122400000Y-72160000I0J50000D01*
G01*
X122400000Y-71460000D01*
G75*
G02*
X122450000Y-71410000I50000J0D01*
G01*
X122650000Y-71410000D01*
G75*
G02*
X122700000Y-71460000I0J-50000D01*
G01*
G37*
G36*
G01*
X122700000Y-74540000D02*
X122700000Y-75240000D01*
G75*
G02*
X122650000Y-75290000I-50000J0D01*
G01*
X122450000Y-75290000D01*
G75*
G02*
X122400000Y-75240000I0J50000D01*
G01*
X122400000Y-74540000D01*
G75*
G02*
X122450000Y-74490000I50000J0D01*
G01*
X122650000Y-74490000D01*
G75*
G02*
X122700000Y-74540000I0J-50000D01*
G01*
G37*
G36*
G01*
X122300000Y-71460000D02*
X122300000Y-72160000D01*
G75*
G02*
X122250000Y-72210000I-50000J0D01*
G01*
X122050000Y-72210000D01*
G75*
G02*
X122000000Y-72160000I0J50000D01*
G01*
X122000000Y-71460000D01*
G75*
G02*
X122050000Y-71410000I50000J0D01*
G01*
X122250000Y-71410000D01*
G75*
G02*
X122300000Y-71460000I0J-50000D01*
G01*
G37*
G36*
G01*
X122300000Y-74540000D02*
X122300000Y-75240000D01*
G75*
G02*
X122250000Y-75290000I-50000J0D01*
G01*
X122050000Y-75290000D01*
G75*
G02*
X122000000Y-75240000I0J50000D01*
G01*
X122000000Y-74540000D01*
G75*
G02*
X122050000Y-74490000I50000J0D01*
G01*
X122250000Y-74490000D01*
G75*
G02*
X122300000Y-74540000I0J-50000D01*
G01*
G37*
G36*
G01*
X121900000Y-71460000D02*
X121900000Y-72160000D01*
G75*
G02*
X121850000Y-72210000I-50000J0D01*
G01*
X121650000Y-72210000D01*
G75*
G02*
X121600000Y-72160000I0J50000D01*
G01*
X121600000Y-71460000D01*
G75*
G02*
X121650000Y-71410000I50000J0D01*
G01*
X121850000Y-71410000D01*
G75*
G02*
X121900000Y-71460000I0J-50000D01*
G01*
G37*
G36*
G01*
X121900000Y-74540000D02*
X121900000Y-75240000D01*
G75*
G02*
X121850000Y-75290000I-50000J0D01*
G01*
X121650000Y-75290000D01*
G75*
G02*
X121600000Y-75240000I0J50000D01*
G01*
X121600000Y-74540000D01*
G75*
G02*
X121650000Y-74490000I50000J0D01*
G01*
X121850000Y-74490000D01*
G75*
G02*
X121900000Y-74540000I0J-50000D01*
G01*
G37*
G36*
G01*
X121500000Y-71460000D02*
X121500000Y-72160000D01*
G75*
G02*
X121450000Y-72210000I-50000J0D01*
G01*
X121250000Y-72210000D01*
G75*
G02*
X121200000Y-72160000I0J50000D01*
G01*
X121200000Y-71460000D01*
G75*
G02*
X121250000Y-71410000I50000J0D01*
G01*
X121450000Y-71410000D01*
G75*
G02*
X121500000Y-71460000I0J-50000D01*
G01*
G37*
G36*
G01*
X121500000Y-74540000D02*
X121500000Y-75240000D01*
G75*
G02*
X121450000Y-75290000I-50000J0D01*
G01*
X121250000Y-75290000D01*
G75*
G02*
X121200000Y-75240000I0J50000D01*
G01*
X121200000Y-74540000D01*
G75*
G02*
X121250000Y-74490000I50000J0D01*
G01*
X121450000Y-74490000D01*
G75*
G02*
X121500000Y-74540000I0J-50000D01*
G01*
G37*
G36*
G01*
X121100000Y-71460000D02*
X121100000Y-72160000D01*
G75*
G02*
X121050000Y-72210000I-50000J0D01*
G01*
X120850000Y-72210000D01*
G75*
G02*
X120800000Y-72160000I0J50000D01*
G01*
X120800000Y-71460000D01*
G75*
G02*
X120850000Y-71410000I50000J0D01*
G01*
X121050000Y-71410000D01*
G75*
G02*
X121100000Y-71460000I0J-50000D01*
G01*
G37*
G36*
G01*
X121100000Y-74540000D02*
X121100000Y-75240000D01*
G75*
G02*
X121050000Y-75290000I-50000J0D01*
G01*
X120850000Y-75290000D01*
G75*
G02*
X120800000Y-75240000I0J50000D01*
G01*
X120800000Y-74540000D01*
G75*
G02*
X120850000Y-74490000I50000J0D01*
G01*
X121050000Y-74490000D01*
G75*
G02*
X121100000Y-74540000I0J-50000D01*
G01*
G37*
G36*
G01*
X120700000Y-71460000D02*
X120700000Y-72160000D01*
G75*
G02*
X120650000Y-72210000I-50000J0D01*
G01*
X120450000Y-72210000D01*
G75*
G02*
X120400000Y-72160000I0J50000D01*
G01*
X120400000Y-71460000D01*
G75*
G02*
X120450000Y-71410000I50000J0D01*
G01*
X120650000Y-71410000D01*
G75*
G02*
X120700000Y-71460000I0J-50000D01*
G01*
G37*
G36*
G01*
X120700000Y-74540000D02*
X120700000Y-75240000D01*
G75*
G02*
X120650000Y-75290000I-50000J0D01*
G01*
X120450000Y-75290000D01*
G75*
G02*
X120400000Y-75240000I0J50000D01*
G01*
X120400000Y-74540000D01*
G75*
G02*
X120450000Y-74490000I50000J0D01*
G01*
X120650000Y-74490000D01*
G75*
G02*
X120700000Y-74540000I0J-50000D01*
G01*
G37*
G36*
G01*
X120300000Y-71460000D02*
X120300000Y-72160000D01*
G75*
G02*
X120250000Y-72210000I-50000J0D01*
G01*
X120050000Y-72210000D01*
G75*
G02*
X120000000Y-72160000I0J50000D01*
G01*
X120000000Y-71460000D01*
G75*
G02*
X120050000Y-71410000I50000J0D01*
G01*
X120250000Y-71410000D01*
G75*
G02*
X120300000Y-71460000I0J-50000D01*
G01*
G37*
G36*
G01*
X120300000Y-74540000D02*
X120300000Y-75240000D01*
G75*
G02*
X120250000Y-75290000I-50000J0D01*
G01*
X120050000Y-75290000D01*
G75*
G02*
X120000000Y-75240000I0J50000D01*
G01*
X120000000Y-74540000D01*
G75*
G02*
X120050000Y-74490000I50000J0D01*
G01*
X120250000Y-74490000D01*
G75*
G02*
X120300000Y-74540000I0J-50000D01*
G01*
G37*
G36*
G01*
X119900000Y-71460000D02*
X119900000Y-72160000D01*
G75*
G02*
X119850000Y-72210000I-50000J0D01*
G01*
X119650000Y-72210000D01*
G75*
G02*
X119600000Y-72160000I0J50000D01*
G01*
X119600000Y-71460000D01*
G75*
G02*
X119650000Y-71410000I50000J0D01*
G01*
X119850000Y-71410000D01*
G75*
G02*
X119900000Y-71460000I0J-50000D01*
G01*
G37*
G36*
G01*
X119900000Y-74540000D02*
X119900000Y-75240000D01*
G75*
G02*
X119850000Y-75290000I-50000J0D01*
G01*
X119650000Y-75290000D01*
G75*
G02*
X119600000Y-75240000I0J50000D01*
G01*
X119600000Y-74540000D01*
G75*
G02*
X119650000Y-74490000I50000J0D01*
G01*
X119850000Y-74490000D01*
G75*
G02*
X119900000Y-74540000I0J-50000D01*
G01*
G37*
G36*
G01*
X119500000Y-71460000D02*
X119500000Y-72160000D01*
G75*
G02*
X119450000Y-72210000I-50000J0D01*
G01*
X119250000Y-72210000D01*
G75*
G02*
X119200000Y-72160000I0J50000D01*
G01*
X119200000Y-71460000D01*
G75*
G02*
X119250000Y-71410000I50000J0D01*
G01*
X119450000Y-71410000D01*
G75*
G02*
X119500000Y-71460000I0J-50000D01*
G01*
G37*
G36*
G01*
X119500000Y-74540000D02*
X119500000Y-75240000D01*
G75*
G02*
X119450000Y-75290000I-50000J0D01*
G01*
X119250000Y-75290000D01*
G75*
G02*
X119200000Y-75240000I0J50000D01*
G01*
X119200000Y-74540000D01*
G75*
G02*
X119250000Y-74490000I50000J0D01*
G01*
X119450000Y-74490000D01*
G75*
G02*
X119500000Y-74540000I0J-50000D01*
G01*
G37*
G36*
G01*
X119100000Y-71460000D02*
X119100000Y-72160000D01*
G75*
G02*
X119050000Y-72210000I-50000J0D01*
G01*
X118850000Y-72210000D01*
G75*
G02*
X118800000Y-72160000I0J50000D01*
G01*
X118800000Y-71460000D01*
G75*
G02*
X118850000Y-71410000I50000J0D01*
G01*
X119050000Y-71410000D01*
G75*
G02*
X119100000Y-71460000I0J-50000D01*
G01*
G37*
G36*
G01*
X119100000Y-74540000D02*
X119100000Y-75240000D01*
G75*
G02*
X119050000Y-75290000I-50000J0D01*
G01*
X118850000Y-75290000D01*
G75*
G02*
X118800000Y-75240000I0J50000D01*
G01*
X118800000Y-74540000D01*
G75*
G02*
X118850000Y-74490000I50000J0D01*
G01*
X119050000Y-74490000D01*
G75*
G02*
X119100000Y-74540000I0J-50000D01*
G01*
G37*
G36*
G01*
X118700000Y-71460000D02*
X118700000Y-72160000D01*
G75*
G02*
X118650000Y-72210000I-50000J0D01*
G01*
X118450000Y-72210000D01*
G75*
G02*
X118400000Y-72160000I0J50000D01*
G01*
X118400000Y-71460000D01*
G75*
G02*
X118450000Y-71410000I50000J0D01*
G01*
X118650000Y-71410000D01*
G75*
G02*
X118700000Y-71460000I0J-50000D01*
G01*
G37*
G36*
G01*
X118700000Y-74540000D02*
X118700000Y-75240000D01*
G75*
G02*
X118650000Y-75290000I-50000J0D01*
G01*
X118450000Y-75290000D01*
G75*
G02*
X118400000Y-75240000I0J50000D01*
G01*
X118400000Y-74540000D01*
G75*
G02*
X118450000Y-74490000I50000J0D01*
G01*
X118650000Y-74490000D01*
G75*
G02*
X118700000Y-74540000I0J-50000D01*
G01*
G37*
G36*
G01*
X118300000Y-71460000D02*
X118300000Y-72160000D01*
G75*
G02*
X118250000Y-72210000I-50000J0D01*
G01*
X118050000Y-72210000D01*
G75*
G02*
X118000000Y-72160000I0J50000D01*
G01*
X118000000Y-71460000D01*
G75*
G02*
X118050000Y-71410000I50000J0D01*
G01*
X118250000Y-71410000D01*
G75*
G02*
X118300000Y-71460000I0J-50000D01*
G01*
G37*
G36*
G01*
X118300000Y-74540000D02*
X118300000Y-75240000D01*
G75*
G02*
X118250000Y-75290000I-50000J0D01*
G01*
X118050000Y-75290000D01*
G75*
G02*
X118000000Y-75240000I0J50000D01*
G01*
X118000000Y-74540000D01*
G75*
G02*
X118050000Y-74490000I50000J0D01*
G01*
X118250000Y-74490000D01*
G75*
G02*
X118300000Y-74540000I0J-50000D01*
G01*
G37*
G36*
G01*
X117900000Y-71460000D02*
X117900000Y-72160000D01*
G75*
G02*
X117850000Y-72210000I-50000J0D01*
G01*
X117650000Y-72210000D01*
G75*
G02*
X117600000Y-72160000I0J50000D01*
G01*
X117600000Y-71460000D01*
G75*
G02*
X117650000Y-71410000I50000J0D01*
G01*
X117850000Y-71410000D01*
G75*
G02*
X117900000Y-71460000I0J-50000D01*
G01*
G37*
G36*
G01*
X117900000Y-74540000D02*
X117900000Y-75240000D01*
G75*
G02*
X117850000Y-75290000I-50000J0D01*
G01*
X117650000Y-75290000D01*
G75*
G02*
X117600000Y-75240000I0J50000D01*
G01*
X117600000Y-74540000D01*
G75*
G02*
X117650000Y-74490000I50000J0D01*
G01*
X117850000Y-74490000D01*
G75*
G02*
X117900000Y-74540000I0J-50000D01*
G01*
G37*
G36*
G01*
X117500000Y-71460000D02*
X117500000Y-72160000D01*
G75*
G02*
X117450000Y-72210000I-50000J0D01*
G01*
X117250000Y-72210000D01*
G75*
G02*
X117200000Y-72160000I0J50000D01*
G01*
X117200000Y-71460000D01*
G75*
G02*
X117250000Y-71410000I50000J0D01*
G01*
X117450000Y-71410000D01*
G75*
G02*
X117500000Y-71460000I0J-50000D01*
G01*
G37*
G36*
G01*
X117500000Y-74540000D02*
X117500000Y-75240000D01*
G75*
G02*
X117450000Y-75290000I-50000J0D01*
G01*
X117250000Y-75290000D01*
G75*
G02*
X117200000Y-75240000I0J50000D01*
G01*
X117200000Y-74540000D01*
G75*
G02*
X117250000Y-74490000I50000J0D01*
G01*
X117450000Y-74490000D01*
G75*
G02*
X117500000Y-74540000I0J-50000D01*
G01*
G37*
G36*
G01*
X117100000Y-71460000D02*
X117100000Y-72160000D01*
G75*
G02*
X117050000Y-72210000I-50000J0D01*
G01*
X116850000Y-72210000D01*
G75*
G02*
X116800000Y-72160000I0J50000D01*
G01*
X116800000Y-71460000D01*
G75*
G02*
X116850000Y-71410000I50000J0D01*
G01*
X117050000Y-71410000D01*
G75*
G02*
X117100000Y-71460000I0J-50000D01*
G01*
G37*
G36*
G01*
X117100000Y-74540000D02*
X117100000Y-75240000D01*
G75*
G02*
X117050000Y-75290000I-50000J0D01*
G01*
X116850000Y-75290000D01*
G75*
G02*
X116800000Y-75240000I0J50000D01*
G01*
X116800000Y-74540000D01*
G75*
G02*
X116850000Y-74490000I50000J0D01*
G01*
X117050000Y-74490000D01*
G75*
G02*
X117100000Y-74540000I0J-50000D01*
G01*
G37*
%TD*%
%TO.C,C2*%
G36*
G01*
X128202110Y-68179060D02*
X128764610Y-68179060D01*
G75*
G02*
X129008360Y-68422810I0J-243750D01*
G01*
X129008360Y-68910310D01*
G75*
G02*
X128764610Y-69154060I-243750J0D01*
G01*
X128202110Y-69154060D01*
G75*
G02*
X127958360Y-68910310I0J243750D01*
G01*
X127958360Y-68422810D01*
G75*
G02*
X128202110Y-68179060I243750J0D01*
G01*
G37*
G36*
G01*
X128202110Y-66604060D02*
X128764610Y-66604060D01*
G75*
G02*
X129008360Y-66847810I0J-243750D01*
G01*
X129008360Y-67335310D01*
G75*
G02*
X128764610Y-67579060I-243750J0D01*
G01*
X128202110Y-67579060D01*
G75*
G02*
X127958360Y-67335310I0J243750D01*
G01*
X127958360Y-66847810D01*
G75*
G02*
X128202110Y-66604060I243750J0D01*
G01*
G37*
%TD*%
%TO.C,C1*%
G36*
G01*
X131462090Y-64038400D02*
X130899590Y-64038400D01*
G75*
G02*
X130655840Y-63794650I0J243750D01*
G01*
X130655840Y-63307150D01*
G75*
G02*
X130899590Y-63063400I243750J0D01*
G01*
X131462090Y-63063400D01*
G75*
G02*
X131705840Y-63307150I0J-243750D01*
G01*
X131705840Y-63794650D01*
G75*
G02*
X131462090Y-64038400I-243750J0D01*
G01*
G37*
G36*
G01*
X131462090Y-62463400D02*
X130899590Y-62463400D01*
G75*
G02*
X130655840Y-62219650I0J243750D01*
G01*
X130655840Y-61732150D01*
G75*
G02*
X130899590Y-61488400I243750J0D01*
G01*
X131462090Y-61488400D01*
G75*
G02*
X131705840Y-61732150I0J-243750D01*
G01*
X131705840Y-62219650D01*
G75*
G02*
X131462090Y-62463400I-243750J0D01*
G01*
G37*
%TD*%
%TO.C,C3*%
G36*
G01*
X126347910Y-68183940D02*
X126910410Y-68183940D01*
G75*
G02*
X127154160Y-68427690I0J-243750D01*
G01*
X127154160Y-68915190D01*
G75*
G02*
X126910410Y-69158940I-243750J0D01*
G01*
X126347910Y-69158940D01*
G75*
G02*
X126104160Y-68915190I0J243750D01*
G01*
X126104160Y-68427690D01*
G75*
G02*
X126347910Y-68183940I243750J0D01*
G01*
G37*
G36*
G01*
X126347910Y-66608940D02*
X126910410Y-66608940D01*
G75*
G02*
X127154160Y-66852690I0J-243750D01*
G01*
X127154160Y-67340190D01*
G75*
G02*
X126910410Y-67583940I-243750J0D01*
G01*
X126347910Y-67583940D01*
G75*
G02*
X126104160Y-67340190I0J243750D01*
G01*
X126104160Y-66852690D01*
G75*
G02*
X126347910Y-66608940I243750J0D01*
G01*
G37*
%TD*%
%TO.C,C5*%
G36*
G01*
X113284080Y-69765490D02*
X113284080Y-69202990D01*
G75*
G02*
X113527830Y-68959240I243750J0D01*
G01*
X114015330Y-68959240D01*
G75*
G02*
X114259080Y-69202990I0J-243750D01*
G01*
X114259080Y-69765490D01*
G75*
G02*
X114015330Y-70009240I-243750J0D01*
G01*
X113527830Y-70009240D01*
G75*
G02*
X113284080Y-69765490I0J243750D01*
G01*
G37*
G36*
G01*
X114859080Y-69765490D02*
X114859080Y-69202990D01*
G75*
G02*
X115102830Y-68959240I243750J0D01*
G01*
X115590330Y-68959240D01*
G75*
G02*
X115834080Y-69202990I0J-243750D01*
G01*
X115834080Y-69765490D01*
G75*
G02*
X115590330Y-70009240I-243750J0D01*
G01*
X115102830Y-70009240D01*
G75*
G02*
X114859080Y-69765490I0J243750D01*
G01*
G37*
%TD*%
%TO.C,R1*%
G36*
G01*
X130899590Y-66096060D02*
X131462090Y-66096060D01*
G75*
G02*
X131705840Y-66339810I0J-243750D01*
G01*
X131705840Y-66827310D01*
G75*
G02*
X131462090Y-67071060I-243750J0D01*
G01*
X130899590Y-67071060D01*
G75*
G02*
X130655840Y-66827310I0J243750D01*
G01*
X130655840Y-66339810D01*
G75*
G02*
X130899590Y-66096060I243750J0D01*
G01*
G37*
G36*
G01*
X130899590Y-64521060D02*
X131462090Y-64521060D01*
G75*
G02*
X131705840Y-64764810I0J-243750D01*
G01*
X131705840Y-65252310D01*
G75*
G02*
X131462090Y-65496060I-243750J0D01*
G01*
X130899590Y-65496060D01*
G75*
G02*
X130655840Y-65252310I0J243750D01*
G01*
X130655840Y-64764810D01*
G75*
G02*
X130899590Y-64521060I243750J0D01*
G01*
G37*
%TD*%
%TO.C,R5*%
G36*
G01*
X120519770Y-67647740D02*
X119957270Y-67647740D01*
G75*
G02*
X119713520Y-67403990I0J243750D01*
G01*
X119713520Y-66916490D01*
G75*
G02*
X119957270Y-66672740I243750J0D01*
G01*
X120519770Y-66672740D01*
G75*
G02*
X120763520Y-66916490I0J-243750D01*
G01*
X120763520Y-67403990D01*
G75*
G02*
X120519770Y-67647740I-243750J0D01*
G01*
G37*
G36*
G01*
X120519770Y-66072740D02*
X119957270Y-66072740D01*
G75*
G02*
X119713520Y-65828990I0J243750D01*
G01*
X119713520Y-65341490D01*
G75*
G02*
X119957270Y-65097740I243750J0D01*
G01*
X120519770Y-65097740D01*
G75*
G02*
X120763520Y-65341490I0J-243750D01*
G01*
X120763520Y-65828990D01*
G75*
G02*
X120519770Y-66072740I-243750J0D01*
G01*
G37*
%TD*%
%TO.C,U2*%
G36*
G01*
X116660720Y-67503200D02*
X116660720Y-68153200D01*
G75*
G02*
X116610720Y-68203200I-50000J0D01*
G01*
X115550720Y-68203200D01*
G75*
G02*
X115500720Y-68153200I0J50000D01*
G01*
X115500720Y-67503200D01*
G75*
G02*
X115550720Y-67453200I50000J0D01*
G01*
X116610720Y-67453200D01*
G75*
G02*
X116660720Y-67503200I0J-50000D01*
G01*
G37*
G36*
G01*
X116660720Y-66553200D02*
X116660720Y-67203200D01*
G75*
G02*
X116610720Y-67253200I-50000J0D01*
G01*
X115550720Y-67253200D01*
G75*
G02*
X115500720Y-67203200I0J50000D01*
G01*
X115500720Y-66553200D01*
G75*
G02*
X115550720Y-66503200I50000J0D01*
G01*
X116610720Y-66503200D01*
G75*
G02*
X116660720Y-66553200I0J-50000D01*
G01*
G37*
G36*
G01*
X116660720Y-65603200D02*
X116660720Y-66253200D01*
G75*
G02*
X116610720Y-66303200I-50000J0D01*
G01*
X115550720Y-66303200D01*
G75*
G02*
X115500720Y-66253200I0J50000D01*
G01*
X115500720Y-65603200D01*
G75*
G02*
X115550720Y-65553200I50000J0D01*
G01*
X116610720Y-65553200D01*
G75*
G02*
X116660720Y-65603200I0J-50000D01*
G01*
G37*
G36*
G01*
X114460720Y-65603200D02*
X114460720Y-66253200D01*
G75*
G02*
X114410720Y-66303200I-50000J0D01*
G01*
X113350720Y-66303200D01*
G75*
G02*
X113300720Y-66253200I0J50000D01*
G01*
X113300720Y-65603200D01*
G75*
G02*
X113350720Y-65553200I50000J0D01*
G01*
X114410720Y-65553200D01*
G75*
G02*
X114460720Y-65603200I0J-50000D01*
G01*
G37*
G36*
G01*
X114460720Y-67503200D02*
X114460720Y-68153200D01*
G75*
G02*
X114410720Y-68203200I-50000J0D01*
G01*
X113350720Y-68203200D01*
G75*
G02*
X113300720Y-68153200I0J50000D01*
G01*
X113300720Y-67503200D01*
G75*
G02*
X113350720Y-67453200I50000J0D01*
G01*
X114410720Y-67453200D01*
G75*
G02*
X114460720Y-67503200I0J-50000D01*
G01*
G37*
%TD*%
%TO.C,X1*%
G36*
G01*
X119942040Y-55627800D02*
X119942040Y-56827800D01*
G75*
G02*
X119892040Y-56877800I-50000J0D01*
G01*
X118492040Y-56877800D01*
G75*
G02*
X118442040Y-56827800I0J50000D01*
G01*
X118442040Y-55627800D01*
G75*
G02*
X118492040Y-55577800I50000J0D01*
G01*
X119892040Y-55577800D01*
G75*
G02*
X119942040Y-55627800I0J-50000D01*
G01*
G37*
G36*
G01*
X117402040Y-55627800D02*
X117402040Y-56827800D01*
G75*
G02*
X117352040Y-56877800I-50000J0D01*
G01*
X115952040Y-56877800D01*
G75*
G02*
X115902040Y-56827800I0J50000D01*
G01*
X115902040Y-55627800D01*
G75*
G02*
X115952040Y-55577800I50000J0D01*
G01*
X117352040Y-55577800D01*
G75*
G02*
X117402040Y-55627800I0J-50000D01*
G01*
G37*
G36*
G01*
X117402040Y-57827800D02*
X117402040Y-59027800D01*
G75*
G02*
X117352040Y-59077800I-50000J0D01*
G01*
X115952040Y-59077800D01*
G75*
G02*
X115902040Y-59027800I0J50000D01*
G01*
X115902040Y-57827800D01*
G75*
G02*
X115952040Y-57777800I50000J0D01*
G01*
X117352040Y-57777800D01*
G75*
G02*
X117402040Y-57827800I0J-50000D01*
G01*
G37*
G36*
G01*
X119942040Y-57827800D02*
X119942040Y-59027800D01*
G75*
G02*
X119892040Y-59077800I-50000J0D01*
G01*
X118492040Y-59077800D01*
G75*
G02*
X118442040Y-59027800I0J50000D01*
G01*
X118442040Y-57827800D01*
G75*
G02*
X118492040Y-57777800I50000J0D01*
G01*
X119892040Y-57777800D01*
G75*
G02*
X119942040Y-57827800I0J-50000D01*
G01*
G37*
%TD*%
M02*
