%TF.GenerationSoftware,KiCad,Pcbnew,5.1.12-84ad8e8a86~92~ubuntu18.04.1*%
%TF.CreationDate,2024-08-09T12:32:27+07:00*%
%TF.ProjectId,framos_FSM_IMX_2LANE_Jetson_Adapter,6672616d-6f73-45f4-9653-4d5f494d585f,rev?*%
%TF.SameCoordinates,Original*%
%TF.FileFunction,Paste,Top*%
%TF.FilePolarity,Positive*%
%FSLAX46Y46*%
G04 Gerber Fmt 4.6, Leading zero omitted, Abs format (unit mm)*
G04 Created by KiCad (PCBNEW 5.1.12-84ad8e8a86~92~ubuntu18.04.1) date 2024-08-09 12:32:27*
%MOMM*%
%LPD*%
G01*
G04 APERTURE LIST*
%TA.AperFunction,Profile*%
%ADD10C,0.200000*%
%TD*%
%ADD11R,0.508000X0.952500*%
%ADD12R,0.533400X1.460500*%
%ADD13R,0.200000X0.700000*%
%ADD14R,1.060000X0.650000*%
%ADD15R,1.400000X1.200000*%
G04 APERTURE END LIST*
D10*
X136475000Y-52525000D02*
X136493537Y-74564288D01*
X136493537Y-74564288D02*
G75*
G02*
X133725000Y-77150000I-2768537J189288D01*
G01*
X111650000Y-77150000D02*
G75*
G02*
X108875000Y-74375000I0J2775000D01*
G01*
X133700000Y-49750000D02*
G75*
G02*
X136475000Y-52525000I0J-2775000D01*
G01*
X108875000Y-52525000D02*
G75*
G02*
X111650000Y-49750000I2775000J0D01*
G01*
X108875000Y-74375000D02*
X108875000Y-52525000D01*
X133725000Y-77150000D02*
X111650000Y-77150000D01*
X111650000Y-49750000D02*
X133700000Y-49750000D01*
D11*
%TO.C,U1*%
X128498641Y-65553590D03*
X126598639Y-65553590D03*
X126598639Y-63000890D03*
X127548640Y-63000890D03*
X128498641Y-63000890D03*
%TD*%
%TO.C,R9*%
G36*
G01*
X114585160Y-57189320D02*
X114035160Y-57189320D01*
G75*
G02*
X113835160Y-56989320I0J200000D01*
G01*
X113835160Y-56589320D01*
G75*
G02*
X114035160Y-56389320I200000J0D01*
G01*
X114585160Y-56389320D01*
G75*
G02*
X114785160Y-56589320I0J-200000D01*
G01*
X114785160Y-56989320D01*
G75*
G02*
X114585160Y-57189320I-200000J0D01*
G01*
G37*
G36*
G01*
X114585160Y-58839320D02*
X114035160Y-58839320D01*
G75*
G02*
X113835160Y-58639320I0J200000D01*
G01*
X113835160Y-58239320D01*
G75*
G02*
X114035160Y-58039320I200000J0D01*
G01*
X114585160Y-58039320D01*
G75*
G02*
X114785160Y-58239320I0J-200000D01*
G01*
X114785160Y-58639320D01*
G75*
G02*
X114585160Y-58839320I-200000J0D01*
G01*
G37*
%TD*%
D12*
%TO.C,U3*%
X128798320Y-61332110D03*
X127528320Y-61332110D03*
X126258320Y-61332110D03*
X124988320Y-61332110D03*
X124988320Y-55883810D03*
X126258320Y-55883810D03*
X127528320Y-55883810D03*
X128798320Y-55883810D03*
%TD*%
%TO.C,C4*%
G36*
G01*
X117949690Y-64750400D02*
X117437190Y-64750400D01*
G75*
G02*
X117218440Y-64531650I0J218750D01*
G01*
X117218440Y-64094150D01*
G75*
G02*
X117437190Y-63875400I218750J0D01*
G01*
X117949690Y-63875400D01*
G75*
G02*
X118168440Y-64094150I0J-218750D01*
G01*
X118168440Y-64531650D01*
G75*
G02*
X117949690Y-64750400I-218750J0D01*
G01*
G37*
G36*
G01*
X117949690Y-63175400D02*
X117437190Y-63175400D01*
G75*
G02*
X117218440Y-62956650I0J218750D01*
G01*
X117218440Y-62519150D01*
G75*
G02*
X117437190Y-62300400I218750J0D01*
G01*
X117949690Y-62300400D01*
G75*
G02*
X118168440Y-62519150I0J-218750D01*
G01*
X118168440Y-62956650D01*
G75*
G02*
X117949690Y-63175400I-218750J0D01*
G01*
G37*
%TD*%
%TO.C,C6*%
G36*
G01*
X117276360Y-61510890D02*
X117276360Y-60998390D01*
G75*
G02*
X117495110Y-60779640I218750J0D01*
G01*
X117932610Y-60779640D01*
G75*
G02*
X118151360Y-60998390I0J-218750D01*
G01*
X118151360Y-61510890D01*
G75*
G02*
X117932610Y-61729640I-218750J0D01*
G01*
X117495110Y-61729640D01*
G75*
G02*
X117276360Y-61510890I0J218750D01*
G01*
G37*
G36*
G01*
X115701360Y-61510890D02*
X115701360Y-60998390D01*
G75*
G02*
X115920110Y-60779640I218750J0D01*
G01*
X116357610Y-60779640D01*
G75*
G02*
X116576360Y-60998390I0J-218750D01*
G01*
X116576360Y-61510890D01*
G75*
G02*
X116357610Y-61729640I-218750J0D01*
G01*
X115920110Y-61729640D01*
G75*
G02*
X115701360Y-61510890I0J218750D01*
G01*
G37*
%TD*%
%TO.C,R6*%
G36*
G01*
X115882710Y-62300400D02*
X116395210Y-62300400D01*
G75*
G02*
X116613960Y-62519150I0J-218750D01*
G01*
X116613960Y-62956650D01*
G75*
G02*
X116395210Y-63175400I-218750J0D01*
G01*
X115882710Y-63175400D01*
G75*
G02*
X115663960Y-62956650I0J218750D01*
G01*
X115663960Y-62519150D01*
G75*
G02*
X115882710Y-62300400I218750J0D01*
G01*
G37*
G36*
G01*
X115882710Y-63875400D02*
X116395210Y-63875400D01*
G75*
G02*
X116613960Y-64094150I0J-218750D01*
G01*
X116613960Y-64531650D01*
G75*
G02*
X116395210Y-64750400I-218750J0D01*
G01*
X115882710Y-64750400D01*
G75*
G02*
X115663960Y-64531650I0J218750D01*
G01*
X115663960Y-64094150D01*
G75*
G02*
X115882710Y-63875400I218750J0D01*
G01*
G37*
%TD*%
%TO.C,R4*%
G36*
G01*
X121548480Y-66795200D02*
X122098480Y-66795200D01*
G75*
G02*
X122298480Y-66995200I0J-200000D01*
G01*
X122298480Y-67395200D01*
G75*
G02*
X122098480Y-67595200I-200000J0D01*
G01*
X121548480Y-67595200D01*
G75*
G02*
X121348480Y-67395200I0J200000D01*
G01*
X121348480Y-66995200D01*
G75*
G02*
X121548480Y-66795200I200000J0D01*
G01*
G37*
G36*
G01*
X121548480Y-65145200D02*
X122098480Y-65145200D01*
G75*
G02*
X122298480Y-65345200I0J-200000D01*
G01*
X122298480Y-65745200D01*
G75*
G02*
X122098480Y-65945200I-200000J0D01*
G01*
X121548480Y-65945200D01*
G75*
G02*
X121348480Y-65745200I0J200000D01*
G01*
X121348480Y-65345200D01*
G75*
G02*
X121548480Y-65145200I200000J0D01*
G01*
G37*
%TD*%
%TO.C,R3*%
G36*
G01*
X123644370Y-66004960D02*
X123131870Y-66004960D01*
G75*
G02*
X122913120Y-65786210I0J218750D01*
G01*
X122913120Y-65348710D01*
G75*
G02*
X123131870Y-65129960I218750J0D01*
G01*
X123644370Y-65129960D01*
G75*
G02*
X123863120Y-65348710I0J-218750D01*
G01*
X123863120Y-65786210D01*
G75*
G02*
X123644370Y-66004960I-218750J0D01*
G01*
G37*
G36*
G01*
X123644370Y-67579960D02*
X123131870Y-67579960D01*
G75*
G02*
X122913120Y-67361210I0J218750D01*
G01*
X122913120Y-66923710D01*
G75*
G02*
X123131870Y-66704960I218750J0D01*
G01*
X123644370Y-66704960D01*
G75*
G02*
X123863120Y-66923710I0J-218750D01*
G01*
X123863120Y-67361210D01*
G75*
G02*
X123644370Y-67579960I-218750J0D01*
G01*
G37*
%TD*%
%TO.C,R8*%
G36*
G01*
X131410120Y-57415880D02*
X130860120Y-57415880D01*
G75*
G02*
X130660120Y-57215880I0J200000D01*
G01*
X130660120Y-56815880D01*
G75*
G02*
X130860120Y-56615880I200000J0D01*
G01*
X131410120Y-56615880D01*
G75*
G02*
X131610120Y-56815880I0J-200000D01*
G01*
X131610120Y-57215880D01*
G75*
G02*
X131410120Y-57415880I-200000J0D01*
G01*
G37*
G36*
G01*
X131410120Y-59065880D02*
X130860120Y-59065880D01*
G75*
G02*
X130660120Y-58865880I0J200000D01*
G01*
X130660120Y-58465880D01*
G75*
G02*
X130860120Y-58265880I200000J0D01*
G01*
X131410120Y-58265880D01*
G75*
G02*
X131610120Y-58465880I0J-200000D01*
G01*
X131610120Y-58865880D01*
G75*
G02*
X131410120Y-59065880I-200000J0D01*
G01*
G37*
%TD*%
%TO.C,R2*%
G36*
G01*
X125222680Y-65919800D02*
X124672680Y-65919800D01*
G75*
G02*
X124472680Y-65719800I0J200000D01*
G01*
X124472680Y-65319800D01*
G75*
G02*
X124672680Y-65119800I200000J0D01*
G01*
X125222680Y-65119800D01*
G75*
G02*
X125422680Y-65319800I0J-200000D01*
G01*
X125422680Y-65719800D01*
G75*
G02*
X125222680Y-65919800I-200000J0D01*
G01*
G37*
G36*
G01*
X125222680Y-67569800D02*
X124672680Y-67569800D01*
G75*
G02*
X124472680Y-67369800I0J200000D01*
G01*
X124472680Y-66969800D01*
G75*
G02*
X124672680Y-66769800I200000J0D01*
G01*
X125222680Y-66769800D01*
G75*
G02*
X125422680Y-66969800I0J-200000D01*
G01*
X125422680Y-67369800D01*
G75*
G02*
X125222680Y-67569800I-200000J0D01*
G01*
G37*
%TD*%
%TO.C,R7*%
G36*
G01*
X121238600Y-57478480D02*
X121788600Y-57478480D01*
G75*
G02*
X121988600Y-57678480I0J-200000D01*
G01*
X121988600Y-58078480D01*
G75*
G02*
X121788600Y-58278480I-200000J0D01*
G01*
X121238600Y-58278480D01*
G75*
G02*
X121038600Y-58078480I0J200000D01*
G01*
X121038600Y-57678480D01*
G75*
G02*
X121238600Y-57478480I200000J0D01*
G01*
G37*
G36*
G01*
X121238600Y-55828480D02*
X121788600Y-55828480D01*
G75*
G02*
X121988600Y-56028480I0J-200000D01*
G01*
X121988600Y-56428480D01*
G75*
G02*
X121788600Y-56628480I-200000J0D01*
G01*
X121238600Y-56628480D01*
G75*
G02*
X121038600Y-56428480I0J200000D01*
G01*
X121038600Y-56028480D01*
G75*
G02*
X121238600Y-55828480I200000J0D01*
G01*
G37*
%TD*%
%TO.C,C7*%
G36*
G01*
X122605680Y-59630120D02*
X122605680Y-59130120D01*
G75*
G02*
X122830680Y-58905120I225000J0D01*
G01*
X123280680Y-58905120D01*
G75*
G02*
X123505680Y-59130120I0J-225000D01*
G01*
X123505680Y-59630120D01*
G75*
G02*
X123280680Y-59855120I-225000J0D01*
G01*
X122830680Y-59855120D01*
G75*
G02*
X122605680Y-59630120I0J225000D01*
G01*
G37*
G36*
G01*
X121055680Y-59630120D02*
X121055680Y-59130120D01*
G75*
G02*
X121280680Y-58905120I225000J0D01*
G01*
X121730680Y-58905120D01*
G75*
G02*
X121955680Y-59130120I0J-225000D01*
G01*
X121955680Y-59630120D01*
G75*
G02*
X121730680Y-59855120I-225000J0D01*
G01*
X121280680Y-59855120D01*
G75*
G02*
X121055680Y-59630120I0J225000D01*
G01*
G37*
%TD*%
D13*
%TO.C,J1*%
X128550000Y-71810000D03*
X128550000Y-74890000D03*
X128150000Y-71810000D03*
X128150000Y-74890000D03*
X127750000Y-71810000D03*
X127750000Y-74890000D03*
X127350000Y-71810000D03*
X127350000Y-74890000D03*
X126950000Y-71810000D03*
X126950000Y-74890000D03*
X126550000Y-71810000D03*
X126550000Y-74890000D03*
X126150000Y-71810000D03*
X126150000Y-74890000D03*
X125750000Y-71810000D03*
X125750000Y-74890000D03*
X125350000Y-71810000D03*
X125350000Y-74890000D03*
X124950000Y-71810000D03*
X124950000Y-74890000D03*
X124550000Y-71810000D03*
X124550000Y-74890000D03*
X124150000Y-71810000D03*
X124150000Y-74890000D03*
X123750000Y-71810000D03*
X123750000Y-74890000D03*
X123350000Y-71810000D03*
X123350000Y-74890000D03*
X122950000Y-71810000D03*
X122950000Y-74890000D03*
X122550000Y-71810000D03*
X122550000Y-74890000D03*
X122150000Y-71810000D03*
X122150000Y-74890000D03*
X121750000Y-71810000D03*
X121750000Y-74890000D03*
X121350000Y-71810000D03*
X121350000Y-74890000D03*
X120950000Y-71810000D03*
X120950000Y-74890000D03*
X120550000Y-71810000D03*
X120550000Y-74890000D03*
X120150000Y-71810000D03*
X120150000Y-74890000D03*
X119750000Y-71810000D03*
X119750000Y-74890000D03*
X119350000Y-71810000D03*
X119350000Y-74890000D03*
X118950000Y-71810000D03*
X118950000Y-74890000D03*
X118550000Y-71810000D03*
X118550000Y-74890000D03*
X118150000Y-71810000D03*
X118150000Y-74890000D03*
X117750000Y-71810000D03*
X117750000Y-74890000D03*
X117350000Y-71810000D03*
X117350000Y-74890000D03*
X116950000Y-71810000D03*
X116950000Y-74890000D03*
%TD*%
%TO.C,C2*%
G36*
G01*
X128227110Y-68229060D02*
X128739610Y-68229060D01*
G75*
G02*
X128958360Y-68447810I0J-218750D01*
G01*
X128958360Y-68885310D01*
G75*
G02*
X128739610Y-69104060I-218750J0D01*
G01*
X128227110Y-69104060D01*
G75*
G02*
X128008360Y-68885310I0J218750D01*
G01*
X128008360Y-68447810D01*
G75*
G02*
X128227110Y-68229060I218750J0D01*
G01*
G37*
G36*
G01*
X128227110Y-66654060D02*
X128739610Y-66654060D01*
G75*
G02*
X128958360Y-66872810I0J-218750D01*
G01*
X128958360Y-67310310D01*
G75*
G02*
X128739610Y-67529060I-218750J0D01*
G01*
X128227110Y-67529060D01*
G75*
G02*
X128008360Y-67310310I0J218750D01*
G01*
X128008360Y-66872810D01*
G75*
G02*
X128227110Y-66654060I218750J0D01*
G01*
G37*
%TD*%
%TO.C,C1*%
G36*
G01*
X131437090Y-63988400D02*
X130924590Y-63988400D01*
G75*
G02*
X130705840Y-63769650I0J218750D01*
G01*
X130705840Y-63332150D01*
G75*
G02*
X130924590Y-63113400I218750J0D01*
G01*
X131437090Y-63113400D01*
G75*
G02*
X131655840Y-63332150I0J-218750D01*
G01*
X131655840Y-63769650D01*
G75*
G02*
X131437090Y-63988400I-218750J0D01*
G01*
G37*
G36*
G01*
X131437090Y-62413400D02*
X130924590Y-62413400D01*
G75*
G02*
X130705840Y-62194650I0J218750D01*
G01*
X130705840Y-61757150D01*
G75*
G02*
X130924590Y-61538400I218750J0D01*
G01*
X131437090Y-61538400D01*
G75*
G02*
X131655840Y-61757150I0J-218750D01*
G01*
X131655840Y-62194650D01*
G75*
G02*
X131437090Y-62413400I-218750J0D01*
G01*
G37*
%TD*%
%TO.C,C3*%
G36*
G01*
X126372910Y-68233940D02*
X126885410Y-68233940D01*
G75*
G02*
X127104160Y-68452690I0J-218750D01*
G01*
X127104160Y-68890190D01*
G75*
G02*
X126885410Y-69108940I-218750J0D01*
G01*
X126372910Y-69108940D01*
G75*
G02*
X126154160Y-68890190I0J218750D01*
G01*
X126154160Y-68452690D01*
G75*
G02*
X126372910Y-68233940I218750J0D01*
G01*
G37*
G36*
G01*
X126372910Y-66658940D02*
X126885410Y-66658940D01*
G75*
G02*
X127104160Y-66877690I0J-218750D01*
G01*
X127104160Y-67315190D01*
G75*
G02*
X126885410Y-67533940I-218750J0D01*
G01*
X126372910Y-67533940D01*
G75*
G02*
X126154160Y-67315190I0J218750D01*
G01*
X126154160Y-66877690D01*
G75*
G02*
X126372910Y-66658940I218750J0D01*
G01*
G37*
%TD*%
%TO.C,C5*%
G36*
G01*
X113334080Y-69740490D02*
X113334080Y-69227990D01*
G75*
G02*
X113552830Y-69009240I218750J0D01*
G01*
X113990330Y-69009240D01*
G75*
G02*
X114209080Y-69227990I0J-218750D01*
G01*
X114209080Y-69740490D01*
G75*
G02*
X113990330Y-69959240I-218750J0D01*
G01*
X113552830Y-69959240D01*
G75*
G02*
X113334080Y-69740490I0J218750D01*
G01*
G37*
G36*
G01*
X114909080Y-69740490D02*
X114909080Y-69227990D01*
G75*
G02*
X115127830Y-69009240I218750J0D01*
G01*
X115565330Y-69009240D01*
G75*
G02*
X115784080Y-69227990I0J-218750D01*
G01*
X115784080Y-69740490D01*
G75*
G02*
X115565330Y-69959240I-218750J0D01*
G01*
X115127830Y-69959240D01*
G75*
G02*
X114909080Y-69740490I0J218750D01*
G01*
G37*
%TD*%
%TO.C,R1*%
G36*
G01*
X130924590Y-66146060D02*
X131437090Y-66146060D01*
G75*
G02*
X131655840Y-66364810I0J-218750D01*
G01*
X131655840Y-66802310D01*
G75*
G02*
X131437090Y-67021060I-218750J0D01*
G01*
X130924590Y-67021060D01*
G75*
G02*
X130705840Y-66802310I0J218750D01*
G01*
X130705840Y-66364810D01*
G75*
G02*
X130924590Y-66146060I218750J0D01*
G01*
G37*
G36*
G01*
X130924590Y-64571060D02*
X131437090Y-64571060D01*
G75*
G02*
X131655840Y-64789810I0J-218750D01*
G01*
X131655840Y-65227310D01*
G75*
G02*
X131437090Y-65446060I-218750J0D01*
G01*
X130924590Y-65446060D01*
G75*
G02*
X130705840Y-65227310I0J218750D01*
G01*
X130705840Y-64789810D01*
G75*
G02*
X130924590Y-64571060I218750J0D01*
G01*
G37*
%TD*%
%TO.C,R5*%
G36*
G01*
X120494770Y-67597740D02*
X119982270Y-67597740D01*
G75*
G02*
X119763520Y-67378990I0J218750D01*
G01*
X119763520Y-66941490D01*
G75*
G02*
X119982270Y-66722740I218750J0D01*
G01*
X120494770Y-66722740D01*
G75*
G02*
X120713520Y-66941490I0J-218750D01*
G01*
X120713520Y-67378990D01*
G75*
G02*
X120494770Y-67597740I-218750J0D01*
G01*
G37*
G36*
G01*
X120494770Y-66022740D02*
X119982270Y-66022740D01*
G75*
G02*
X119763520Y-65803990I0J218750D01*
G01*
X119763520Y-65366490D01*
G75*
G02*
X119982270Y-65147740I218750J0D01*
G01*
X120494770Y-65147740D01*
G75*
G02*
X120713520Y-65366490I0J-218750D01*
G01*
X120713520Y-65803990D01*
G75*
G02*
X120494770Y-66022740I-218750J0D01*
G01*
G37*
%TD*%
D14*
%TO.C,U2*%
X116080720Y-67828200D03*
X116080720Y-66878200D03*
X116080720Y-65928200D03*
X113880720Y-65928200D03*
X113880720Y-67828200D03*
%TD*%
D15*
%TO.C,X1*%
X119192040Y-56227800D03*
X116652040Y-56227800D03*
X116652040Y-58427800D03*
X119192040Y-58427800D03*
%TD*%
M02*
