%TF.GenerationSoftware,KiCad,Pcbnew,5.1.12-84ad8e8a86~92~ubuntu18.04.1*%
%TF.CreationDate,2024-08-09T12:32:27+07:00*%
%TF.ProjectId,framos_FSM_IMX_2LANE_Jetson_Adapter,6672616d-6f73-45f4-9653-4d5f494d585f,rev?*%
%TF.SameCoordinates,Original*%
%TF.FileFunction,Copper,L1,Top*%
%TF.FilePolarity,Positive*%
%FSLAX46Y46*%
G04 Gerber Fmt 4.6, Leading zero omitted, Abs format (unit mm)*
G04 Created by KiCad (PCBNEW 5.1.12-84ad8e8a86~92~ubuntu18.04.1) date 2024-08-09 12:32:27*
%MOMM*%
%LPD*%
G01*
G04 APERTURE LIST*
%TA.AperFunction,Profile*%
%ADD10C,0.200000*%
%TD*%
%TA.AperFunction,SMDPad,CuDef*%
%ADD11R,0.508000X0.952500*%
%TD*%
%TA.AperFunction,SMDPad,CuDef*%
%ADD12R,0.533400X1.460500*%
%TD*%
%TA.AperFunction,ComponentPad*%
%ADD13C,3.800000*%
%TD*%
%TA.AperFunction,SMDPad,CuDef*%
%ADD14R,0.200000X0.700000*%
%TD*%
%TA.AperFunction,SMDPad,CuDef*%
%ADD15R,1.060000X0.650000*%
%TD*%
%TA.AperFunction,SMDPad,CuDef*%
%ADD16R,1.400000X1.200000*%
%TD*%
%TA.AperFunction,ViaPad*%
%ADD17C,0.800000*%
%TD*%
%TA.AperFunction,ViaPad*%
%ADD18C,1.000000*%
%TD*%
%TA.AperFunction,Conductor*%
%ADD19C,0.200000*%
%TD*%
%TA.AperFunction,Conductor*%
%ADD20C,0.160000*%
%TD*%
%TA.AperFunction,Conductor*%
%ADD21C,0.300000*%
%TD*%
%TA.AperFunction,Conductor*%
%ADD22C,0.250000*%
%TD*%
%TA.AperFunction,Conductor*%
%ADD23C,0.254000*%
%TD*%
%TA.AperFunction,Conductor*%
%ADD24C,0.150000*%
%TD*%
G04 APERTURE END LIST*
D10*
X136475000Y-52525000D02*
X136493537Y-74564288D01*
X136493537Y-74564288D02*
G75*
G02*
X133725000Y-77150000I-2768537J189288D01*
G01*
X111650000Y-77150000D02*
G75*
G02*
X108875000Y-74375000I0J2775000D01*
G01*
X133700000Y-49750000D02*
G75*
G02*
X136475000Y-52525000I0J-2775000D01*
G01*
X108875000Y-52525000D02*
G75*
G02*
X111650000Y-49750000I2775000J0D01*
G01*
X108875000Y-74375000D02*
X108875000Y-52525000D01*
X133725000Y-77150000D02*
X111650000Y-77150000D01*
X111650000Y-49750000D02*
X133700000Y-49750000D01*
D11*
%TO.P,U1,5*%
%TO.N,+1V8*%
X128498641Y-65553590D03*
%TO.P,U1,4*%
%TO.N,Net-(C1-Pad1)*%
X126598639Y-65553590D03*
%TO.P,U1,3*%
%TO.N,Net-(R1-Pad1)*%
X126598639Y-63000890D03*
%TO.P,U1,2*%
%TO.N,GND*%
X127548640Y-63000890D03*
%TO.P,U1,1*%
%TO.N,+3V3*%
X128498641Y-63000890D03*
%TD*%
%TO.P,R9,2*%
%TO.N,/MCLK0_INCK*%
%TA.AperFunction,SMDPad,CuDef*%
G36*
G01*
X114585160Y-57189320D02*
X114035160Y-57189320D01*
G75*
G02*
X113835160Y-56989320I0J200000D01*
G01*
X113835160Y-56589320D01*
G75*
G02*
X114035160Y-56389320I200000J0D01*
G01*
X114585160Y-56389320D01*
G75*
G02*
X114785160Y-56589320I0J-200000D01*
G01*
X114785160Y-56989320D01*
G75*
G02*
X114585160Y-57189320I-200000J0D01*
G01*
G37*
%TD.AperFunction*%
%TO.P,R9,1*%
%TO.N,Net-(R9-Pad1)*%
%TA.AperFunction,SMDPad,CuDef*%
G36*
G01*
X114585160Y-58839320D02*
X114035160Y-58839320D01*
G75*
G02*
X113835160Y-58639320I0J200000D01*
G01*
X113835160Y-58239320D01*
G75*
G02*
X114035160Y-58039320I200000J0D01*
G01*
X114585160Y-58039320D01*
G75*
G02*
X114785160Y-58239320I0J-200000D01*
G01*
X114785160Y-58639320D01*
G75*
G02*
X114585160Y-58839320I-200000J0D01*
G01*
G37*
%TD.AperFunction*%
%TD*%
D12*
%TO.P,U3,8*%
%TO.N,Net-(R8-Pad1)*%
X128798320Y-61332110D03*
%TO.P,U3,7*%
%TO.N,+3V3*%
X127528320Y-61332110D03*
%TO.P,U3,6*%
%TO.N,/I2C_SCL__I2C_0_SCL_3V3*%
X126258320Y-61332110D03*
%TO.P,U3,5*%
%TO.N,/I2C_SDA__I2C_0_SDA_3V3*%
X124988320Y-61332110D03*
%TO.P,U3,4*%
%TO.N,/I2C_SDA__I2C_0_SDA*%
X124988320Y-55883810D03*
%TO.P,U3,3*%
%TO.N,/I2C_SCL__I2C_0_SCL*%
X126258320Y-55883810D03*
%TO.P,U3,2*%
%TO.N,+1V8*%
X127528320Y-55883810D03*
%TO.P,U3,1*%
%TO.N,GND*%
X128798320Y-55883810D03*
%TD*%
%TO.P,C4,1*%
%TO.N,+3V3*%
%TA.AperFunction,SMDPad,CuDef*%
G36*
G01*
X117949690Y-64750400D02*
X117437190Y-64750400D01*
G75*
G02*
X117218440Y-64531650I0J218750D01*
G01*
X117218440Y-64094150D01*
G75*
G02*
X117437190Y-63875400I218750J0D01*
G01*
X117949690Y-63875400D01*
G75*
G02*
X118168440Y-64094150I0J-218750D01*
G01*
X118168440Y-64531650D01*
G75*
G02*
X117949690Y-64750400I-218750J0D01*
G01*
G37*
%TD.AperFunction*%
%TO.P,C4,2*%
%TO.N,GND*%
%TA.AperFunction,SMDPad,CuDef*%
G36*
G01*
X117949690Y-63175400D02*
X117437190Y-63175400D01*
G75*
G02*
X117218440Y-62956650I0J218750D01*
G01*
X117218440Y-62519150D01*
G75*
G02*
X117437190Y-62300400I218750J0D01*
G01*
X117949690Y-62300400D01*
G75*
G02*
X118168440Y-62519150I0J-218750D01*
G01*
X118168440Y-62956650D01*
G75*
G02*
X117949690Y-63175400I-218750J0D01*
G01*
G37*
%TD.AperFunction*%
%TD*%
%TO.P,C6,2*%
%TO.N,GND*%
%TA.AperFunction,SMDPad,CuDef*%
G36*
G01*
X117276360Y-61510890D02*
X117276360Y-60998390D01*
G75*
G02*
X117495110Y-60779640I218750J0D01*
G01*
X117932610Y-60779640D01*
G75*
G02*
X118151360Y-60998390I0J-218750D01*
G01*
X118151360Y-61510890D01*
G75*
G02*
X117932610Y-61729640I-218750J0D01*
G01*
X117495110Y-61729640D01*
G75*
G02*
X117276360Y-61510890I0J218750D01*
G01*
G37*
%TD.AperFunction*%
%TO.P,C6,1*%
%TO.N,Net-(C6-Pad1)*%
%TA.AperFunction,SMDPad,CuDef*%
G36*
G01*
X115701360Y-61510890D02*
X115701360Y-60998390D01*
G75*
G02*
X115920110Y-60779640I218750J0D01*
G01*
X116357610Y-60779640D01*
G75*
G02*
X116576360Y-60998390I0J-218750D01*
G01*
X116576360Y-61510890D01*
G75*
G02*
X116357610Y-61729640I-218750J0D01*
G01*
X115920110Y-61729640D01*
G75*
G02*
X115701360Y-61510890I0J218750D01*
G01*
G37*
%TD.AperFunction*%
%TD*%
%TO.P,R6,1*%
%TO.N,Net-(C6-Pad1)*%
%TA.AperFunction,SMDPad,CuDef*%
G36*
G01*
X115882710Y-62300400D02*
X116395210Y-62300400D01*
G75*
G02*
X116613960Y-62519150I0J-218750D01*
G01*
X116613960Y-62956650D01*
G75*
G02*
X116395210Y-63175400I-218750J0D01*
G01*
X115882710Y-63175400D01*
G75*
G02*
X115663960Y-62956650I0J218750D01*
G01*
X115663960Y-62519150D01*
G75*
G02*
X115882710Y-62300400I218750J0D01*
G01*
G37*
%TD.AperFunction*%
%TO.P,R6,2*%
%TO.N,+3V3*%
%TA.AperFunction,SMDPad,CuDef*%
G36*
G01*
X115882710Y-63875400D02*
X116395210Y-63875400D01*
G75*
G02*
X116613960Y-64094150I0J-218750D01*
G01*
X116613960Y-64531650D01*
G75*
G02*
X116395210Y-64750400I-218750J0D01*
G01*
X115882710Y-64750400D01*
G75*
G02*
X115663960Y-64531650I0J218750D01*
G01*
X115663960Y-64094150D01*
G75*
G02*
X115882710Y-63875400I218750J0D01*
G01*
G37*
%TD.AperFunction*%
%TD*%
%TO.P,R4,2*%
%TO.N,/GPIO6_SLAMODE0*%
%TA.AperFunction,SMDPad,CuDef*%
G36*
G01*
X121548480Y-66795200D02*
X122098480Y-66795200D01*
G75*
G02*
X122298480Y-66995200I0J-200000D01*
G01*
X122298480Y-67395200D01*
G75*
G02*
X122098480Y-67595200I-200000J0D01*
G01*
X121548480Y-67595200D01*
G75*
G02*
X121348480Y-67395200I0J200000D01*
G01*
X121348480Y-66995200D01*
G75*
G02*
X121548480Y-66795200I200000J0D01*
G01*
G37*
%TD.AperFunction*%
%TO.P,R4,1*%
%TO.N,GND*%
%TA.AperFunction,SMDPad,CuDef*%
G36*
G01*
X121548480Y-65145200D02*
X122098480Y-65145200D01*
G75*
G02*
X122298480Y-65345200I0J-200000D01*
G01*
X122298480Y-65745200D01*
G75*
G02*
X122098480Y-65945200I-200000J0D01*
G01*
X121548480Y-65945200D01*
G75*
G02*
X121348480Y-65745200I0J200000D01*
G01*
X121348480Y-65345200D01*
G75*
G02*
X121548480Y-65145200I200000J0D01*
G01*
G37*
%TD.AperFunction*%
%TD*%
%TO.P,R3,2*%
%TO.N,+1V8*%
%TA.AperFunction,SMDPad,CuDef*%
G36*
G01*
X123644370Y-66004960D02*
X123131870Y-66004960D01*
G75*
G02*
X122913120Y-65786210I0J218750D01*
G01*
X122913120Y-65348710D01*
G75*
G02*
X123131870Y-65129960I218750J0D01*
G01*
X123644370Y-65129960D01*
G75*
G02*
X123863120Y-65348710I0J-218750D01*
G01*
X123863120Y-65786210D01*
G75*
G02*
X123644370Y-66004960I-218750J0D01*
G01*
G37*
%TD.AperFunction*%
%TO.P,R3,1*%
%TO.N,/GPIO0_XMASTER0*%
%TA.AperFunction,SMDPad,CuDef*%
G36*
G01*
X123644370Y-67579960D02*
X123131870Y-67579960D01*
G75*
G02*
X122913120Y-67361210I0J218750D01*
G01*
X122913120Y-66923710D01*
G75*
G02*
X123131870Y-66704960I218750J0D01*
G01*
X123644370Y-66704960D01*
G75*
G02*
X123863120Y-66923710I0J-218750D01*
G01*
X123863120Y-67361210D01*
G75*
G02*
X123644370Y-67579960I-218750J0D01*
G01*
G37*
%TD.AperFunction*%
%TD*%
%TO.P,R8,2*%
%TO.N,+3V3*%
%TA.AperFunction,SMDPad,CuDef*%
G36*
G01*
X131410120Y-57415880D02*
X130860120Y-57415880D01*
G75*
G02*
X130660120Y-57215880I0J200000D01*
G01*
X130660120Y-56815880D01*
G75*
G02*
X130860120Y-56615880I200000J0D01*
G01*
X131410120Y-56615880D01*
G75*
G02*
X131610120Y-56815880I0J-200000D01*
G01*
X131610120Y-57215880D01*
G75*
G02*
X131410120Y-57415880I-200000J0D01*
G01*
G37*
%TD.AperFunction*%
%TO.P,R8,1*%
%TO.N,Net-(R8-Pad1)*%
%TA.AperFunction,SMDPad,CuDef*%
G36*
G01*
X131410120Y-59065880D02*
X130860120Y-59065880D01*
G75*
G02*
X130660120Y-58865880I0J200000D01*
G01*
X130660120Y-58465880D01*
G75*
G02*
X130860120Y-58265880I200000J0D01*
G01*
X131410120Y-58265880D01*
G75*
G02*
X131610120Y-58465880I0J-200000D01*
G01*
X131610120Y-58865880D01*
G75*
G02*
X131410120Y-59065880I-200000J0D01*
G01*
G37*
%TD.AperFunction*%
%TD*%
D13*
%TO.P,RU1,1*%
%TO.N,N/C*%
X133944360Y-52324000D03*
%TD*%
%TO.P,RD1,1*%
%TO.N,N/C*%
X133883400Y-74579480D03*
%TD*%
%TO.P,LU1,1*%
%TO.N,N/C*%
X111485680Y-52324000D03*
%TD*%
%TO.P,LD1,1*%
%TO.N,N/C*%
X111455200Y-74569320D03*
%TD*%
%TO.P,R2,2*%
%TO.N,GND*%
%TA.AperFunction,SMDPad,CuDef*%
G36*
G01*
X125222680Y-65919800D02*
X124672680Y-65919800D01*
G75*
G02*
X124472680Y-65719800I0J200000D01*
G01*
X124472680Y-65319800D01*
G75*
G02*
X124672680Y-65119800I200000J0D01*
G01*
X125222680Y-65119800D01*
G75*
G02*
X125422680Y-65319800I0J-200000D01*
G01*
X125422680Y-65719800D01*
G75*
G02*
X125222680Y-65919800I-200000J0D01*
G01*
G37*
%TD.AperFunction*%
%TO.P,R2,1*%
%TO.N,/GPIO0_XMASTER0*%
%TA.AperFunction,SMDPad,CuDef*%
G36*
G01*
X125222680Y-67569800D02*
X124672680Y-67569800D01*
G75*
G02*
X124472680Y-67369800I0J200000D01*
G01*
X124472680Y-66969800D01*
G75*
G02*
X124672680Y-66769800I200000J0D01*
G01*
X125222680Y-66769800D01*
G75*
G02*
X125422680Y-66969800I0J-200000D01*
G01*
X125422680Y-67369800D01*
G75*
G02*
X125222680Y-67569800I-200000J0D01*
G01*
G37*
%TD.AperFunction*%
%TD*%
%TO.P,R7,2*%
%TO.N,+1V8*%
%TA.AperFunction,SMDPad,CuDef*%
G36*
G01*
X121238600Y-57478480D02*
X121788600Y-57478480D01*
G75*
G02*
X121988600Y-57678480I0J-200000D01*
G01*
X121988600Y-58078480D01*
G75*
G02*
X121788600Y-58278480I-200000J0D01*
G01*
X121238600Y-58278480D01*
G75*
G02*
X121038600Y-58078480I0J200000D01*
G01*
X121038600Y-57678480D01*
G75*
G02*
X121238600Y-57478480I200000J0D01*
G01*
G37*
%TD.AperFunction*%
%TO.P,R7,1*%
%TO.N,Net-(R7-Pad1)*%
%TA.AperFunction,SMDPad,CuDef*%
G36*
G01*
X121238600Y-55828480D02*
X121788600Y-55828480D01*
G75*
G02*
X121988600Y-56028480I0J-200000D01*
G01*
X121988600Y-56428480D01*
G75*
G02*
X121788600Y-56628480I-200000J0D01*
G01*
X121238600Y-56628480D01*
G75*
G02*
X121038600Y-56428480I0J200000D01*
G01*
X121038600Y-56028480D01*
G75*
G02*
X121238600Y-55828480I200000J0D01*
G01*
G37*
%TD.AperFunction*%
%TD*%
%TO.P,C7,2*%
%TO.N,GND*%
%TA.AperFunction,SMDPad,CuDef*%
G36*
G01*
X122605680Y-59630120D02*
X122605680Y-59130120D01*
G75*
G02*
X122830680Y-58905120I225000J0D01*
G01*
X123280680Y-58905120D01*
G75*
G02*
X123505680Y-59130120I0J-225000D01*
G01*
X123505680Y-59630120D01*
G75*
G02*
X123280680Y-59855120I-225000J0D01*
G01*
X122830680Y-59855120D01*
G75*
G02*
X122605680Y-59630120I0J225000D01*
G01*
G37*
%TD.AperFunction*%
%TO.P,C7,1*%
%TO.N,+1V8*%
%TA.AperFunction,SMDPad,CuDef*%
G36*
G01*
X121055680Y-59630120D02*
X121055680Y-59130120D01*
G75*
G02*
X121280680Y-58905120I225000J0D01*
G01*
X121730680Y-58905120D01*
G75*
G02*
X121955680Y-59130120I0J-225000D01*
G01*
X121955680Y-59630120D01*
G75*
G02*
X121730680Y-59855120I-225000J0D01*
G01*
X121280680Y-59855120D01*
G75*
G02*
X121055680Y-59630120I0J225000D01*
G01*
G37*
%TD.AperFunction*%
%TD*%
D14*
%TO.P,J1,1*%
%TO.N,Net-(J1-Pad1)*%
X128550000Y-71810000D03*
%TO.P,J1,2*%
%TO.N,Net-(J1-Pad2)*%
X128550000Y-74890000D03*
%TO.P,J1,3*%
%TO.N,Net-(J1-Pad3)*%
X128150000Y-71810000D03*
%TO.P,J1,4*%
%TO.N,Net-(J1-Pad4)*%
X128150000Y-74890000D03*
%TO.P,J1,5*%
%TO.N,+3V3*%
X127750000Y-71810000D03*
%TO.P,J1,6*%
%TO.N,+1V2*%
X127750000Y-74890000D03*
%TO.P,J1,7*%
%TO.N,+3V3*%
X127350000Y-71810000D03*
%TO.P,J1,8*%
%TO.N,+1V2*%
X127350000Y-74890000D03*
%TO.P,J1,9*%
%TO.N,+1V8*%
X126950000Y-71810000D03*
%TO.P,J1,10*%
%TO.N,Net-(J1-Pad10)*%
X126950000Y-74890000D03*
%TO.P,J1,11*%
%TO.N,GND*%
X126550000Y-71810000D03*
%TO.P,J1,12*%
X126550000Y-74890000D03*
%TO.P,J1,13*%
X126150000Y-71810000D03*
%TO.P,J1,14*%
X126150000Y-74890000D03*
%TO.P,J1,15*%
%TO.N,/CAM_nRST__RST_0_IS_1V8*%
X125750000Y-71810000D03*
%TO.P,J1,16*%
%TO.N,/RST_1*%
X125750000Y-74890000D03*
%TO.P,J1,17*%
%TO.N,/SPI_MISO*%
X125350000Y-71810000D03*
%TO.P,J1,18*%
%TO.N,/SPI_MOSI*%
X125350000Y-74890000D03*
%TO.P,J1,19*%
%TO.N,/GPIO0_XMASTER0*%
X124950000Y-71810000D03*
%TO.P,J1,20*%
%TO.N,/GPIO8_XMASTER1*%
X124950000Y-74890000D03*
%TO.P,J1,21*%
%TO.N,/I2C_SCL__I2C_0_SCL*%
X124550000Y-71810000D03*
%TO.P,J1,22*%
%TO.N,/I2C_1_CSL*%
X124550000Y-74890000D03*
%TO.P,J1,23*%
%TO.N,/SPI_CS*%
X124150000Y-71810000D03*
%TO.P,J1,24*%
%TO.N,/SPI_SCK*%
X124150000Y-74890000D03*
%TO.P,J1,25*%
%TO.N,/GPIO1_XVS0*%
X123750000Y-71810000D03*
%TO.P,J1,26*%
%TO.N,/GPIO9_XVS1*%
X123750000Y-74890000D03*
%TO.P,J1,27*%
%TO.N,/I2C_SDA__I2C_0_SDA*%
X123350000Y-71810000D03*
%TO.P,J1,28*%
%TO.N,/I2C_1_SDA*%
X123350000Y-74890000D03*
%TO.P,J1,29*%
%TO.N,/GPIO2_XHS0*%
X122950000Y-71810000D03*
%TO.P,J1,30*%
%TO.N,/GPIO10_XHS1*%
X122950000Y-74890000D03*
%TO.P,J1,31*%
%TO.N,/GPIO3_XTRIG0*%
X122550000Y-71810000D03*
%TO.P,J1,32*%
%TO.N,/GPIO11_XTRIG1*%
X122550000Y-74890000D03*
%TO.P,J1,33*%
%TO.N,/CAM_PWDN__FSA_PWR_EN_0*%
X122150000Y-71810000D03*
%TO.P,J1,34*%
%TO.N,/FSA_PWR_EN_1*%
X122150000Y-74890000D03*
%TO.P,J1,35*%
%TO.N,/GPIO6_SLAMODE0*%
X121750000Y-71810000D03*
%TO.P,J1,36*%
%TO.N,GND*%
X121750000Y-74890000D03*
%TO.P,J1,37*%
X121350000Y-71810000D03*
%TO.P,J1,38*%
X121350000Y-74890000D03*
%TO.P,J1,39*%
%TO.N,/MCLK0_INCK*%
X120950000Y-71810000D03*
%TO.P,J1,40*%
%TO.N,/GPIO4_UART_TXD*%
X120950000Y-74890000D03*
%TO.P,J1,41*%
%TO.N,/MCLK_1*%
X120550000Y-71810000D03*
%TO.P,J1,42*%
%TO.N,/GPIO5_UART_RXD*%
X120550000Y-74890000D03*
%TO.P,J1,43*%
%TO.N,GND*%
X120150000Y-71810000D03*
%TO.P,J1,44*%
X120150000Y-74890000D03*
%TO.P,J1,45*%
%TO.N,Net-(J1-Pad45)*%
X119750000Y-71810000D03*
%TO.P,J1,46*%
%TO.N,/MIPI_CSI_D3_P*%
X119750000Y-74890000D03*
%TO.P,J1,47*%
%TO.N,Net-(J1-Pad47)*%
X119350000Y-71810000D03*
%TO.P,J1,48*%
%TO.N,/MIPI_CSI_D3_N*%
X119350000Y-74890000D03*
%TO.P,J1,49*%
%TO.N,GND*%
X118950000Y-71810000D03*
%TO.P,J1,50*%
X118950000Y-74890000D03*
%TO.P,J1,51*%
%TO.N,/MIPI_CSI_D0_N*%
X118550000Y-71810000D03*
%TO.P,J1,52*%
%TO.N,/MIPI_CSI_D1_N*%
X118550000Y-74890000D03*
%TO.P,J1,53*%
%TO.N,/MIPI_CSI_D0_P*%
X118150000Y-71810000D03*
%TO.P,J1,54*%
%TO.N,/MIPI_CSI_D1_P*%
X118150000Y-74890000D03*
%TO.P,J1,55*%
%TO.N,GND*%
X117750000Y-71810000D03*
%TO.P,J1,56*%
X117750000Y-74890000D03*
%TO.P,J1,57*%
%TO.N,/MIPI_CSI_D2_P*%
X117350000Y-71810000D03*
%TO.P,J1,58*%
%TO.N,/MIPI_CSI_CLK0_P*%
X117350000Y-74890000D03*
%TO.P,J1,59*%
%TO.N,/MIPI_CSI_D2_N*%
X116950000Y-71810000D03*
%TO.P,J1,60*%
%TO.N,/MIPI_CSI_CLK0_N*%
X116950000Y-74890000D03*
%TD*%
%TO.P,C2,2*%
%TO.N,GND*%
%TA.AperFunction,SMDPad,CuDef*%
G36*
G01*
X128227110Y-68229060D02*
X128739610Y-68229060D01*
G75*
G02*
X128958360Y-68447810I0J-218750D01*
G01*
X128958360Y-68885310D01*
G75*
G02*
X128739610Y-69104060I-218750J0D01*
G01*
X128227110Y-69104060D01*
G75*
G02*
X128008360Y-68885310I0J218750D01*
G01*
X128008360Y-68447810D01*
G75*
G02*
X128227110Y-68229060I218750J0D01*
G01*
G37*
%TD.AperFunction*%
%TO.P,C2,1*%
%TO.N,+3V3*%
%TA.AperFunction,SMDPad,CuDef*%
G36*
G01*
X128227110Y-66654060D02*
X128739610Y-66654060D01*
G75*
G02*
X128958360Y-66872810I0J-218750D01*
G01*
X128958360Y-67310310D01*
G75*
G02*
X128739610Y-67529060I-218750J0D01*
G01*
X128227110Y-67529060D01*
G75*
G02*
X128008360Y-67310310I0J218750D01*
G01*
X128008360Y-66872810D01*
G75*
G02*
X128227110Y-66654060I218750J0D01*
G01*
G37*
%TD.AperFunction*%
%TD*%
%TO.P,C1,1*%
%TO.N,Net-(C1-Pad1)*%
%TA.AperFunction,SMDPad,CuDef*%
G36*
G01*
X131437090Y-63988400D02*
X130924590Y-63988400D01*
G75*
G02*
X130705840Y-63769650I0J218750D01*
G01*
X130705840Y-63332150D01*
G75*
G02*
X130924590Y-63113400I218750J0D01*
G01*
X131437090Y-63113400D01*
G75*
G02*
X131655840Y-63332150I0J-218750D01*
G01*
X131655840Y-63769650D01*
G75*
G02*
X131437090Y-63988400I-218750J0D01*
G01*
G37*
%TD.AperFunction*%
%TO.P,C1,2*%
%TO.N,GND*%
%TA.AperFunction,SMDPad,CuDef*%
G36*
G01*
X131437090Y-62413400D02*
X130924590Y-62413400D01*
G75*
G02*
X130705840Y-62194650I0J218750D01*
G01*
X130705840Y-61757150D01*
G75*
G02*
X130924590Y-61538400I218750J0D01*
G01*
X131437090Y-61538400D01*
G75*
G02*
X131655840Y-61757150I0J-218750D01*
G01*
X131655840Y-62194650D01*
G75*
G02*
X131437090Y-62413400I-218750J0D01*
G01*
G37*
%TD.AperFunction*%
%TD*%
%TO.P,C3,2*%
%TO.N,GND*%
%TA.AperFunction,SMDPad,CuDef*%
G36*
G01*
X126372910Y-68233940D02*
X126885410Y-68233940D01*
G75*
G02*
X127104160Y-68452690I0J-218750D01*
G01*
X127104160Y-68890190D01*
G75*
G02*
X126885410Y-69108940I-218750J0D01*
G01*
X126372910Y-69108940D01*
G75*
G02*
X126154160Y-68890190I0J218750D01*
G01*
X126154160Y-68452690D01*
G75*
G02*
X126372910Y-68233940I218750J0D01*
G01*
G37*
%TD.AperFunction*%
%TO.P,C3,1*%
%TO.N,+1V8*%
%TA.AperFunction,SMDPad,CuDef*%
G36*
G01*
X126372910Y-66658940D02*
X126885410Y-66658940D01*
G75*
G02*
X127104160Y-66877690I0J-218750D01*
G01*
X127104160Y-67315190D01*
G75*
G02*
X126885410Y-67533940I-218750J0D01*
G01*
X126372910Y-67533940D01*
G75*
G02*
X126154160Y-67315190I0J218750D01*
G01*
X126154160Y-66877690D01*
G75*
G02*
X126372910Y-66658940I218750J0D01*
G01*
G37*
%TD.AperFunction*%
%TD*%
%TO.P,C5,1*%
%TO.N,+1V2*%
%TA.AperFunction,SMDPad,CuDef*%
G36*
G01*
X113334080Y-69740490D02*
X113334080Y-69227990D01*
G75*
G02*
X113552830Y-69009240I218750J0D01*
G01*
X113990330Y-69009240D01*
G75*
G02*
X114209080Y-69227990I0J-218750D01*
G01*
X114209080Y-69740490D01*
G75*
G02*
X113990330Y-69959240I-218750J0D01*
G01*
X113552830Y-69959240D01*
G75*
G02*
X113334080Y-69740490I0J218750D01*
G01*
G37*
%TD.AperFunction*%
%TO.P,C5,2*%
%TO.N,GND*%
%TA.AperFunction,SMDPad,CuDef*%
G36*
G01*
X114909080Y-69740490D02*
X114909080Y-69227990D01*
G75*
G02*
X115127830Y-69009240I218750J0D01*
G01*
X115565330Y-69009240D01*
G75*
G02*
X115784080Y-69227990I0J-218750D01*
G01*
X115784080Y-69740490D01*
G75*
G02*
X115565330Y-69959240I-218750J0D01*
G01*
X115127830Y-69959240D01*
G75*
G02*
X114909080Y-69740490I0J218750D01*
G01*
G37*
%TD.AperFunction*%
%TD*%
%TO.P,R1,2*%
%TO.N,+3V3*%
%TA.AperFunction,SMDPad,CuDef*%
G36*
G01*
X130924590Y-66146060D02*
X131437090Y-66146060D01*
G75*
G02*
X131655840Y-66364810I0J-218750D01*
G01*
X131655840Y-66802310D01*
G75*
G02*
X131437090Y-67021060I-218750J0D01*
G01*
X130924590Y-67021060D01*
G75*
G02*
X130705840Y-66802310I0J218750D01*
G01*
X130705840Y-66364810D01*
G75*
G02*
X130924590Y-66146060I218750J0D01*
G01*
G37*
%TD.AperFunction*%
%TO.P,R1,1*%
%TO.N,Net-(R1-Pad1)*%
%TA.AperFunction,SMDPad,CuDef*%
G36*
G01*
X130924590Y-64571060D02*
X131437090Y-64571060D01*
G75*
G02*
X131655840Y-64789810I0J-218750D01*
G01*
X131655840Y-65227310D01*
G75*
G02*
X131437090Y-65446060I-218750J0D01*
G01*
X130924590Y-65446060D01*
G75*
G02*
X130705840Y-65227310I0J218750D01*
G01*
X130705840Y-64789810D01*
G75*
G02*
X130924590Y-64571060I218750J0D01*
G01*
G37*
%TD.AperFunction*%
%TD*%
%TO.P,R5,1*%
%TO.N,/GPIO6_SLAMODE0*%
%TA.AperFunction,SMDPad,CuDef*%
G36*
G01*
X120494770Y-67597740D02*
X119982270Y-67597740D01*
G75*
G02*
X119763520Y-67378990I0J218750D01*
G01*
X119763520Y-66941490D01*
G75*
G02*
X119982270Y-66722740I218750J0D01*
G01*
X120494770Y-66722740D01*
G75*
G02*
X120713520Y-66941490I0J-218750D01*
G01*
X120713520Y-67378990D01*
G75*
G02*
X120494770Y-67597740I-218750J0D01*
G01*
G37*
%TD.AperFunction*%
%TO.P,R5,2*%
%TO.N,+1V8*%
%TA.AperFunction,SMDPad,CuDef*%
G36*
G01*
X120494770Y-66022740D02*
X119982270Y-66022740D01*
G75*
G02*
X119763520Y-65803990I0J218750D01*
G01*
X119763520Y-65366490D01*
G75*
G02*
X119982270Y-65147740I218750J0D01*
G01*
X120494770Y-65147740D01*
G75*
G02*
X120713520Y-65366490I0J-218750D01*
G01*
X120713520Y-65803990D01*
G75*
G02*
X120494770Y-66022740I-218750J0D01*
G01*
G37*
%TD.AperFunction*%
%TD*%
D15*
%TO.P,U2,1*%
%TO.N,+3V3*%
X116080720Y-67828200D03*
%TO.P,U2,2*%
%TO.N,GND*%
X116080720Y-66878200D03*
%TO.P,U2,3*%
%TO.N,Net-(C6-Pad1)*%
X116080720Y-65928200D03*
%TO.P,U2,4*%
%TO.N,Net-(U2-Pad4)*%
X113880720Y-65928200D03*
%TO.P,U2,5*%
%TO.N,+1V2*%
X113880720Y-67828200D03*
%TD*%
D16*
%TO.P,X1,1*%
%TO.N,Net-(R7-Pad1)*%
X119192040Y-56227800D03*
%TO.P,X1,2*%
%TO.N,GND*%
X116652040Y-56227800D03*
%TO.P,X1,3*%
%TO.N,Net-(R9-Pad1)*%
X116652040Y-58427800D03*
%TO.P,X1,4*%
%TO.N,+1V8*%
X119192040Y-58427800D03*
%TD*%
D17*
%TO.N,GND*%
X122742960Y-54574440D03*
X116662200Y-56194960D03*
X128478280Y-68686680D03*
X121345960Y-73248520D03*
X123042680Y-57825640D03*
X130820160Y-55519320D03*
X124773440Y-63775840D03*
X121773440Y-63804040D03*
X129799080Y-59095640D03*
X114701320Y-66888360D03*
X124383800Y-68722240D03*
X115321180Y-71028460D03*
X120182640Y-73253600D03*
X130855720Y-74208640D03*
X135336280Y-55488840D03*
X130865880Y-52725320D03*
X116636800Y-52715160D03*
X120401080Y-70449440D03*
X135204200Y-63708280D03*
X111892080Y-63794640D03*
X111800640Y-71003160D03*
X111836200Y-56362600D03*
X135305800Y-70424040D03*
%TO.N,/GPIO3_XTRIG0*%
X123433840Y-70459600D03*
%TO.N,/MCLK0_INCK*%
X121503440Y-54574440D03*
%TO.N,/MIPI_CSI_D0_N*%
X117231160Y-69489320D03*
%TO.N,/MIPI_CSI_D1_N*%
X118623080Y-69098160D03*
%TO.N,/MIPI_CSI_D0_P*%
X117779800Y-70454520D03*
%TO.N,/MIPI_CSI_D1_P*%
X118790720Y-68082160D03*
%TO.N,/MIPI_CSI_CLK0_P*%
X116392960Y-73944480D03*
%TO.N,/MIPI_CSI_CLK0_N*%
X115366800Y-73792080D03*
%TO.N,/I2C_SCL__I2C_0_SCL_3V3*%
X125948440Y-59872880D03*
%TO.N,/I2C_SDA__I2C_0_SDA_3V3*%
X124978160Y-59430920D03*
D18*
%TO.N,+3V3*%
X127528320Y-58572400D03*
D17*
%TO.N,/CAM_nRST__RST_0_IS_1V8*%
X125750000Y-70469440D03*
%TD*%
D19*
%TO.N,GND*%
X126150000Y-71810000D02*
X126550000Y-71810000D01*
X118950000Y-71810000D02*
X118950000Y-72450000D01*
X117750000Y-72300000D02*
X117950000Y-72500000D01*
X117750000Y-71810000D02*
X117750000Y-72300000D01*
X120150000Y-72350000D02*
X120150000Y-71810000D01*
D20*
X127533359Y-63652359D02*
X127533359Y-63012320D01*
X127693420Y-63812420D02*
X127533359Y-63652359D01*
X129110740Y-63812420D02*
X127693420Y-63812420D01*
X129545080Y-63378080D02*
X129110740Y-63812420D01*
X129545080Y-62986920D02*
X129545080Y-63378080D01*
X130556100Y-61975900D02*
X129545080Y-62986920D01*
X131180840Y-61975900D02*
X130556100Y-61975900D01*
D19*
X121750000Y-73835440D02*
X121554240Y-73639680D01*
X121750000Y-74890000D02*
X121750000Y-73835440D01*
D21*
X115321180Y-69408040D02*
X115321180Y-71028460D01*
D19*
X121350000Y-73435440D02*
X121554240Y-73639680D01*
X121350000Y-71810000D02*
X121350000Y-73435440D01*
D22*
X117950000Y-72500000D02*
X117950000Y-72509400D01*
X117950000Y-72500000D02*
X118341920Y-72500000D01*
X118341920Y-72500000D02*
X118932960Y-73091040D01*
X121005600Y-73091040D02*
X121554240Y-73639680D01*
X120150000Y-73078720D02*
X120162320Y-73091040D01*
X120150000Y-72350000D02*
X120150000Y-73078720D01*
X120162320Y-73091040D02*
X121005600Y-73091040D01*
X118932960Y-73091040D02*
X120025160Y-73091040D01*
X118950000Y-73074000D02*
X118932960Y-73091040D01*
X118950000Y-72450000D02*
X118950000Y-73074000D01*
D19*
X126550000Y-68750600D02*
X126629160Y-68671440D01*
X119253000Y-73996998D02*
X119253000Y-73477120D01*
X119253000Y-73477120D02*
X119415560Y-73639680D01*
X120150000Y-73657080D02*
X120167400Y-73639680D01*
X120150000Y-74890000D02*
X120150000Y-73657080D01*
X120167400Y-73639680D02*
X121554240Y-73639680D01*
X119415560Y-73639680D02*
X120167400Y-73639680D01*
X121350000Y-74890000D02*
X121750000Y-74890000D01*
X121350000Y-73843920D02*
X121554240Y-73639680D01*
X121350000Y-74890000D02*
X121350000Y-73843920D01*
X126550000Y-74890000D02*
X126150000Y-74890000D01*
X131079240Y-55499000D02*
X129880360Y-55499000D01*
X129495550Y-55883810D02*
X128798320Y-55883810D01*
X129880360Y-55499000D02*
X129495550Y-55883810D01*
D21*
X114711480Y-66878200D02*
X114701320Y-66888360D01*
X116080720Y-66878200D02*
X114711480Y-66878200D01*
X115321180Y-69408040D02*
X115321180Y-68905220D01*
D19*
X126150000Y-74890000D02*
X126150000Y-73897120D01*
X125892560Y-73639680D02*
X121554240Y-73639680D01*
X126150000Y-73897120D02*
X125892560Y-73639680D01*
D22*
X120025160Y-73091040D02*
X120162320Y-73091040D01*
X114701320Y-66888360D02*
X112745520Y-66888360D01*
X112745520Y-66888360D02*
X112522000Y-66664840D01*
X112522000Y-66664840D02*
X112522000Y-61945520D01*
X112522000Y-61945520D02*
X114355880Y-60111640D01*
X114355880Y-60111640D02*
X117429280Y-60111640D01*
X117713860Y-60396220D02*
X117713860Y-61254640D01*
X117429280Y-60111640D02*
X117713860Y-60396220D01*
D19*
X120150000Y-70512560D02*
X120208040Y-70454520D01*
X120150000Y-71810000D02*
X120150000Y-70512560D01*
X116752477Y-73201061D02*
X115878141Y-73201061D01*
X117750000Y-74198584D02*
X116752477Y-73201061D01*
X117750000Y-74890000D02*
X117750000Y-74198584D01*
X115321180Y-72644100D02*
X115321180Y-71028460D01*
X115878141Y-73201061D02*
X115321180Y-72644100D01*
D22*
X126150000Y-73897120D02*
X126434480Y-73897120D01*
X126524999Y-73987639D02*
X126524999Y-74890000D01*
X126434480Y-73897120D02*
X126524999Y-73987639D01*
D20*
X118950000Y-71810000D02*
X118950000Y-70737200D01*
X119232680Y-70454520D02*
X120208040Y-70454520D01*
D19*
X115346580Y-69484240D02*
X115346580Y-68915380D01*
X115346580Y-68915380D02*
X114990880Y-68559680D01*
X114990880Y-67177920D02*
X114701320Y-66888360D01*
X114990880Y-68559680D02*
X114990880Y-67177920D01*
D22*
X129247879Y-73987639D02*
X126524999Y-73987639D01*
X129550160Y-74289920D02*
X129247879Y-73987639D01*
D20*
X118950000Y-70737200D02*
X119232680Y-70454520D01*
D19*
X119253000Y-73996998D02*
X119063322Y-73996998D01*
X118950000Y-74110320D02*
X118950000Y-74890000D01*
X119063322Y-73996998D02*
X118950000Y-74110320D01*
X126150000Y-71810000D02*
X126150000Y-71105442D01*
X126194282Y-71061160D02*
X126550000Y-71061160D01*
X126150000Y-71105442D02*
X126194282Y-71061160D01*
X126550000Y-71061160D02*
X126550000Y-68750600D01*
X126550000Y-71810000D02*
X126550000Y-71061160D01*
%TO.N,+3V3*%
X127750000Y-71810000D02*
X127350000Y-71810000D01*
D21*
X117693440Y-64312900D02*
X117693440Y-67543680D01*
X117408920Y-67828200D02*
X116080720Y-67828200D01*
X117693440Y-67543680D02*
X117408920Y-67828200D01*
D20*
X127528320Y-61835030D02*
X127528320Y-61332110D01*
X128483360Y-63012320D02*
X128483360Y-62790070D01*
D21*
X131135120Y-57015880D02*
X131890000Y-57015880D01*
X132480650Y-57606530D02*
X132480650Y-66066070D01*
X131890000Y-57015880D02*
X132480650Y-57606530D01*
X131963160Y-66583560D02*
X131180840Y-66583560D01*
X132480650Y-66066070D02*
X131963160Y-66583560D01*
X128483360Y-67091560D02*
X129402840Y-67091560D01*
X129910840Y-66583560D02*
X131180840Y-66583560D01*
X129402840Y-67091560D02*
X129910840Y-66583560D01*
X131180840Y-68950840D02*
X131180840Y-69382640D01*
X131180840Y-69382640D02*
X129667000Y-70896480D01*
X131180840Y-66583560D02*
X131180840Y-68950840D01*
X127919480Y-70896480D02*
X127914400Y-70901560D01*
X129667000Y-70896480D02*
X127919480Y-70896480D01*
D19*
X127350000Y-70951570D02*
X127400010Y-70901560D01*
X127350000Y-71810000D02*
X127350000Y-70951570D01*
X127750000Y-70970840D02*
X127680720Y-70901560D01*
X127750000Y-71810000D02*
X127750000Y-70970840D01*
D21*
X127680720Y-70901560D02*
X127400010Y-70901560D01*
X127914400Y-70901560D02*
X127680720Y-70901560D01*
X127528320Y-61332110D02*
X127528320Y-58572400D01*
X127528320Y-57734200D02*
X129499360Y-57734200D01*
X130217680Y-57015880D02*
X131135120Y-57015880D01*
X129499360Y-57734200D02*
X130217680Y-57015880D01*
D20*
X128498641Y-62914530D02*
X128498641Y-62616121D01*
X128498641Y-62616121D02*
X128163320Y-62280800D01*
X128163320Y-61967110D02*
X127528320Y-61332110D01*
X128163320Y-62280800D02*
X128163320Y-61967110D01*
D21*
X116138960Y-64312900D02*
X117693440Y-64312900D01*
X118963440Y-63936880D02*
X118587420Y-64312900D01*
X117938756Y-59568080D02*
X118963440Y-60592764D01*
X113949480Y-59568080D02*
X117938756Y-59568080D01*
X127528320Y-57734200D02*
X126964440Y-57170320D01*
X126964440Y-57170320D02*
X124480320Y-57170320D01*
X124480320Y-57170320D02*
X124045980Y-56735980D01*
X124045980Y-54094380D02*
X123428760Y-53477160D01*
X113238280Y-58856880D02*
X113949480Y-59568080D01*
X118963440Y-60592764D02*
X118963440Y-63936880D01*
X123428760Y-53477160D02*
X121320560Y-53477160D01*
X121320560Y-53477160D02*
X119997970Y-54799750D01*
X119997970Y-54799750D02*
X115801890Y-54799750D01*
X124045980Y-56735980D02*
X124045980Y-54094380D01*
X113238280Y-56210200D02*
X113238280Y-58856880D01*
X118587420Y-64312900D02*
X117693440Y-64312900D01*
X115801890Y-54799750D02*
X114777520Y-55824120D01*
X114777520Y-55824120D02*
X113624360Y-55824120D01*
X113624360Y-55824120D02*
X113238280Y-56210200D01*
D19*
%TO.N,+1V2*%
X127350000Y-74890000D02*
X127750000Y-74890000D01*
X127350000Y-74890000D02*
X127350000Y-75200000D01*
X127350000Y-75400000D02*
X127350001Y-75400001D01*
X127350000Y-74890000D02*
X127350000Y-75400000D01*
D22*
X113880720Y-68481120D02*
X113880720Y-67828200D01*
X114548920Y-74240687D02*
X114548920Y-72318880D01*
X115808234Y-75500001D02*
X114548920Y-74240687D01*
X114548920Y-72318880D02*
X113746180Y-71516140D01*
X116783038Y-75758040D02*
X116524999Y-75500001D01*
X113746180Y-68615660D02*
X113880720Y-68481120D01*
X116524999Y-75500001D02*
X115808234Y-75500001D01*
X120319800Y-75758040D02*
X116783038Y-75758040D01*
X127025400Y-75758040D02*
X120319800Y-75758040D01*
X113746180Y-71516140D02*
X113746180Y-68615660D01*
X120319800Y-75758040D02*
X120145480Y-75758040D01*
D19*
X127750000Y-74890000D02*
X127750000Y-75729400D01*
X127750000Y-75729400D02*
X127721360Y-75758040D01*
X127350000Y-75721960D02*
X127386080Y-75758040D01*
X127350000Y-75400000D02*
X127350000Y-75721960D01*
D22*
X127386080Y-75758040D02*
X127025400Y-75758040D01*
X127721360Y-75758040D02*
X127386080Y-75758040D01*
D20*
%TO.N,+1V8*%
X121513600Y-59372200D02*
X121505680Y-59380120D01*
D19*
X121513600Y-57878480D02*
X121513600Y-59372200D01*
X119192040Y-59197240D02*
X119192040Y-58427800D01*
X119374920Y-59380120D02*
X119192040Y-59197240D01*
D20*
X120238520Y-59390280D02*
X120228360Y-59380120D01*
D19*
X120238520Y-65585240D02*
X120238520Y-59390280D01*
X120228360Y-59380120D02*
X119374920Y-59380120D01*
X121505680Y-59380120D02*
X120228360Y-59380120D01*
X120238520Y-66141600D02*
X120238520Y-65585240D01*
X120401080Y-66304160D02*
X120238520Y-66141600D01*
D20*
X123388120Y-66258440D02*
X123433840Y-66304160D01*
D19*
X123388120Y-65567460D02*
X123388120Y-66258440D01*
X123433840Y-66304160D02*
X120401080Y-66304160D01*
D22*
X127652780Y-65565020D02*
X128483360Y-65565020D01*
D20*
X126933080Y-71810000D02*
X126930010Y-71806930D01*
X126950000Y-71810000D02*
X126933080Y-71810000D01*
D19*
X127584200Y-65633600D02*
X127652780Y-65565020D01*
D20*
X127573840Y-67096440D02*
X127584200Y-67106800D01*
D22*
X126629160Y-67096440D02*
X127573840Y-67096440D01*
X127584200Y-67106800D02*
X127584200Y-65633600D01*
X127584200Y-69524880D02*
X127584200Y-67106800D01*
X126950000Y-70159080D02*
X127584200Y-69524880D01*
D19*
X126950000Y-71810000D02*
X126950000Y-70159080D01*
X126950000Y-71810000D02*
X126950000Y-72467000D01*
D22*
X132955660Y-68439342D02*
X128852602Y-72542400D01*
X132955660Y-57121420D02*
X132955660Y-68439342D01*
X132100110Y-56265870D02*
X132955660Y-57121420D01*
X127528320Y-55883810D02*
X127528320Y-56914060D01*
X128808480Y-72542400D02*
X128700090Y-72650790D01*
X128852602Y-72542400D02*
X128808480Y-72542400D01*
X127133790Y-72650790D02*
X126979680Y-72496680D01*
X128700090Y-72650790D02*
X127133790Y-72650790D01*
D19*
X126979680Y-72496680D02*
X127025400Y-72542400D01*
X126950000Y-72467000D02*
X126979680Y-72496680D01*
X125491240Y-66304160D02*
X123433840Y-66304160D01*
X125775720Y-66588640D02*
X125491240Y-66304160D01*
X125775720Y-67020440D02*
X125775720Y-66588640D01*
X125851720Y-67096440D02*
X125775720Y-67020440D01*
X126629160Y-67096440D02*
X125851720Y-67096440D01*
D22*
X130418630Y-56265870D02*
X130159970Y-56265870D01*
X130418630Y-56265870D02*
X132100110Y-56265870D01*
X130159970Y-56265870D02*
X129230120Y-57195720D01*
X127809980Y-57195720D02*
X127528320Y-56914060D01*
X129230120Y-57195720D02*
X127809980Y-57195720D01*
D19*
%TO.N,/GPIO0_XMASTER0*%
X123410380Y-67169800D02*
X123408440Y-67167860D01*
X124947680Y-67169800D02*
X123410380Y-67169800D01*
D20*
X124950000Y-67172120D02*
X124947680Y-67169800D01*
X124950000Y-71810000D02*
X124950000Y-70914040D01*
X123388120Y-67142460D02*
X123240700Y-67142460D01*
X123240700Y-67142460D02*
X122717560Y-67665600D01*
X122717560Y-67665600D02*
X122717560Y-69250560D01*
X122717560Y-69250560D02*
X122819160Y-69352160D01*
X122819160Y-69352160D02*
X123388120Y-69352160D01*
X123388120Y-69352160D02*
X124950000Y-70914040D01*
D19*
%TO.N,/I2C_SCL__I2C_0_SCL*%
X126258320Y-54953560D02*
X126258320Y-55883810D01*
X133548120Y-56896000D02*
X131466350Y-54814230D01*
X133548120Y-68447936D02*
X133548120Y-56896000D01*
X126957746Y-73075800D02*
X128920256Y-73075800D01*
X126587392Y-72705447D02*
X126957746Y-73075800D01*
X124765287Y-72705447D02*
X126587392Y-72705447D01*
X126397650Y-54814230D02*
X126258320Y-54953560D01*
X131466350Y-54814230D02*
X126397650Y-54814230D01*
X128920256Y-73075800D02*
X133548120Y-68447936D01*
X124550000Y-72490160D02*
X124765287Y-72705447D01*
X124550000Y-71810000D02*
X124550000Y-72490160D01*
%TO.N,/I2C_SDA__I2C_0_SDA*%
X124988320Y-54904640D02*
X124988320Y-55883810D01*
X125478740Y-54414220D02*
X124988320Y-54904640D01*
X131477820Y-54414220D02*
X131632039Y-54414220D01*
X131632039Y-54414220D02*
X133948130Y-56730311D01*
X131477820Y-54414220D02*
X125478740Y-54414220D01*
X133948130Y-68613625D02*
X129085945Y-73475810D01*
X133948130Y-67471250D02*
X133948130Y-68613625D01*
X133948130Y-56730311D02*
X133948130Y-67471250D01*
X123350000Y-72400002D02*
X123350000Y-72397600D01*
X129085945Y-73475810D02*
X127803950Y-73475810D01*
X127803950Y-73475810D02*
X127583968Y-73475810D01*
X123350000Y-72397600D02*
X123350000Y-71810000D01*
X126792057Y-73475810D02*
X127803950Y-73475810D01*
X124599597Y-73105457D02*
X126421703Y-73105457D01*
X124067719Y-72573579D02*
X124599597Y-73105457D01*
X123525979Y-72573579D02*
X124067719Y-72573579D01*
X126421703Y-73105457D02*
X126792057Y-73475810D01*
X123350000Y-72397600D02*
X123525979Y-72573579D01*
%TO.N,/GPIO3_XTRIG0*%
X122925840Y-70459600D02*
X123433840Y-70459600D01*
X122550000Y-70835440D02*
X122925840Y-70459600D01*
X122550000Y-71810000D02*
X122550000Y-70835440D01*
D20*
%TO.N,/MCLK0_INCK*%
X120848120Y-55229760D02*
X121503440Y-54574440D01*
X118221760Y-55229760D02*
X120848120Y-55229760D01*
X117886480Y-55565040D02*
X118221760Y-55229760D01*
X114310160Y-56789320D02*
X115036600Y-56789320D01*
X115570000Y-57322720D02*
X117886480Y-57322720D01*
X115036600Y-56789320D02*
X115570000Y-57322720D01*
X117886480Y-57322720D02*
X117886480Y-55565040D01*
X120950000Y-70952080D02*
X120950000Y-71810000D01*
X121369990Y-70532090D02*
X120950000Y-70952080D01*
X119756482Y-68041520D02*
X121208800Y-68041520D01*
X119349520Y-64993520D02*
X119349520Y-67634558D01*
X121208800Y-68041520D02*
X121369990Y-68202710D01*
X119349520Y-67634558D02*
X119756482Y-68041520D01*
X119661940Y-64681100D02*
X119349520Y-64993520D01*
X119661940Y-60571380D02*
X119661940Y-64681100D01*
X118348760Y-59369960D02*
X118460520Y-59369960D01*
X118460520Y-59369960D02*
X119661940Y-60571380D01*
X117886480Y-58907680D02*
X118348760Y-59369960D01*
X121369990Y-68202710D02*
X121369990Y-70532090D01*
X117886480Y-57322720D02*
X117886480Y-58907680D01*
%TO.N,/MIPI_CSI_D0_N*%
X118550000Y-71810000D02*
X118550000Y-70464698D01*
X118459801Y-70128119D02*
X118106201Y-69774519D01*
X118459801Y-70397921D02*
X118459801Y-70128119D01*
X118526578Y-70464698D02*
X118459801Y-70397921D01*
X118550000Y-70464698D02*
X118526578Y-70464698D01*
X117516359Y-69774519D02*
X117231160Y-69489320D01*
X118106201Y-69774519D02*
X117516359Y-69774519D01*
%TO.N,/MIPI_CSI_D1_N*%
X118550000Y-74890000D02*
X118550000Y-73727468D01*
X118550000Y-73727468D02*
X117696522Y-72873990D01*
X116530120Y-72344122D02*
X116530120Y-69183958D01*
X118334239Y-68809319D02*
X118623080Y-69098160D01*
X116904759Y-68809319D02*
X118334239Y-68809319D01*
X116530120Y-69183958D02*
X116904759Y-68809319D01*
X117283573Y-72461041D02*
X117696522Y-72873990D01*
X116647039Y-72461041D02*
X117283573Y-72461041D01*
X116647039Y-72461041D02*
X116530120Y-72344122D01*
%TO.N,/MIPI_CSI_D0_P*%
X118150000Y-71810000D02*
X118150000Y-70824720D01*
X118150000Y-70824720D02*
X117779800Y-70454520D01*
D19*
%TO.N,/MIPI_CSI_D1_P*%
X118150000Y-74890000D02*
X118150000Y-74724301D01*
D20*
X116363264Y-72686396D02*
X116170110Y-72493242D01*
X116170110Y-69034837D02*
X116771597Y-68433350D01*
X116170110Y-72493243D02*
X116170110Y-69034837D01*
X116363264Y-72686396D02*
X116170110Y-72493243D01*
X118439530Y-68433350D02*
X118790720Y-68082160D01*
X116771597Y-68433350D02*
X118439530Y-68433350D01*
X118150000Y-73836598D02*
X118150000Y-74890000D01*
X117134453Y-72821051D02*
X118150000Y-73836598D01*
X116497918Y-72821051D02*
X117134453Y-72821051D01*
X116363264Y-72686396D02*
X116497918Y-72821051D01*
%TO.N,/MIPI_CSI_CLK0_P*%
X116958482Y-73944480D02*
X116392960Y-73944480D01*
X117350000Y-74335998D02*
X116958482Y-73944480D01*
X117350000Y-74890000D02*
X117350000Y-74335998D01*
%TO.N,/MIPI_CSI_CLK0_N*%
X116332078Y-74890000D02*
X115366800Y-73924722D01*
X116708560Y-74890000D02*
X116332078Y-74890000D01*
X116546000Y-74890000D02*
X116708560Y-74890000D01*
X115366800Y-73924722D02*
X115366800Y-73792080D01*
X116708560Y-74890000D02*
X116950000Y-74890000D01*
D19*
%TO.N,/GPIO6_SLAMODE0*%
X120239120Y-67159640D02*
X120238520Y-67160240D01*
X121754900Y-67159640D02*
X120239120Y-67159640D01*
X121750000Y-67164540D02*
X121754900Y-67159640D01*
X121823480Y-67195200D02*
X121823480Y-71026200D01*
X121750000Y-71099680D02*
X121750000Y-71810000D01*
X121823480Y-71026200D02*
X121750000Y-71099680D01*
%TO.N,/CAM_PWDN__FSA_PWR_EN_0*%
X122150000Y-71810000D02*
X122150000Y-71700000D01*
D20*
X122150000Y-71601200D02*
X122148600Y-71599800D01*
X122150000Y-71810000D02*
X122150000Y-71601200D01*
D19*
%TO.N,/I2C_SDA__I2C_0_SDA_3V3*%
X124988320Y-59735720D02*
X124983240Y-59730640D01*
X124988320Y-59441080D02*
X124978160Y-59430920D01*
X124988320Y-59979560D02*
X124988320Y-59441080D01*
X124988320Y-61332110D02*
X124988320Y-59979560D01*
X124988320Y-59979560D02*
X124988320Y-59735720D01*
D20*
%TO.N,Net-(R7-Pad1)*%
X121512920Y-56227800D02*
X121513600Y-56228480D01*
X119192040Y-56227800D02*
X121512920Y-56227800D01*
%TO.N,Net-(C6-Pad1)*%
X116138960Y-61254740D02*
X116138860Y-61254640D01*
X116138960Y-62737900D02*
X116138960Y-61254740D01*
X115229740Y-62737900D02*
X116138960Y-62737900D01*
X115128040Y-62839600D02*
X115229740Y-62737900D01*
X116080720Y-65928200D02*
X116080720Y-65392480D01*
X116080720Y-65392480D02*
X115915440Y-65227200D01*
X115575080Y-65227200D02*
X115128040Y-64780160D01*
X115915440Y-65227200D02*
X115575080Y-65227200D01*
X115128040Y-64780160D02*
X115128040Y-62839600D01*
D21*
%TO.N,+3V3*%
X127528320Y-58572400D02*
X127528320Y-57734200D01*
D19*
%TO.N,/I2C_SCL__I2C_0_SCL_3V3*%
X126258320Y-60182760D02*
X125948440Y-59872880D01*
X126258320Y-61332110D02*
X126258320Y-60182760D01*
%TO.N,Net-(R8-Pad1)*%
X129658250Y-58211720D02*
X128976120Y-58211720D01*
X128798320Y-58389520D02*
X128798320Y-61332110D01*
X128976120Y-58211720D02*
X128798320Y-58389520D01*
X131135120Y-58665880D02*
X131135120Y-57962800D01*
X130069730Y-57800240D02*
X129658250Y-58211720D01*
X130972560Y-57800240D02*
X130069730Y-57800240D01*
X131135120Y-57962800D02*
X130972560Y-57800240D01*
D20*
%TO.N,/CAM_nRST__RST_0_IS_1V8*%
X125750000Y-71810000D02*
X125750000Y-70469440D01*
X125750000Y-70469440D02*
X125750000Y-70469440D01*
%TO.N,Net-(R9-Pad1)*%
X114321680Y-58427800D02*
X114310160Y-58439320D01*
X116652040Y-58427800D02*
X114321680Y-58427800D01*
%TO.N,Net-(R1-Pad1)*%
X126598639Y-63682839D02*
X126598639Y-62914530D01*
X127269910Y-64354110D02*
X126598639Y-63682839D01*
X129323361Y-64354110D02*
X127269910Y-64354110D01*
X129977810Y-65008560D02*
X129323361Y-64354110D01*
X131180840Y-65008560D02*
X129977810Y-65008560D01*
%TO.N,Net-(C1-Pad1)*%
X126598639Y-64846241D02*
X126598639Y-65467230D01*
X131678680Y-65826640D02*
X130286760Y-65826640D01*
X131968240Y-65537080D02*
X131678680Y-65826640D01*
X131734660Y-63550900D02*
X131968240Y-63784480D01*
X131968240Y-63784480D02*
X131968240Y-65537080D01*
X131180840Y-63550900D02*
X131734660Y-63550900D01*
X126730760Y-64714120D02*
X126598639Y-64846241D01*
X129174240Y-64714120D02*
X126730760Y-64714120D01*
X130286760Y-65826640D02*
X129174240Y-64714120D01*
%TD*%
D23*
%TO.N,GND*%
X135757110Y-72868159D02*
X135499368Y-72610417D01*
X135084173Y-72332992D01*
X134622832Y-72141898D01*
X134133076Y-72044480D01*
X133633724Y-72044480D01*
X133143968Y-72141898D01*
X132682627Y-72332992D01*
X132267432Y-72610417D01*
X131914337Y-72963512D01*
X131636912Y-73378707D01*
X131445818Y-73840048D01*
X131348400Y-74329804D01*
X131348400Y-74829156D01*
X131445818Y-75318912D01*
X131636912Y-75780253D01*
X131914337Y-76195448D01*
X132133889Y-76415000D01*
X128104504Y-76415000D01*
X128145636Y-76393014D01*
X128261361Y-76298041D01*
X128356334Y-76182316D01*
X128426906Y-76050287D01*
X128470363Y-75907026D01*
X128473215Y-75878072D01*
X128650000Y-75878072D01*
X128774482Y-75865812D01*
X128894180Y-75829502D01*
X129004494Y-75770537D01*
X129101185Y-75691185D01*
X129180537Y-75594494D01*
X129239502Y-75484180D01*
X129275812Y-75364482D01*
X129288072Y-75240000D01*
X129288072Y-74540000D01*
X129275812Y-74415518D01*
X129239502Y-74295820D01*
X129190461Y-74204072D01*
X129230030Y-74200175D01*
X129368578Y-74158147D01*
X129496265Y-74089897D01*
X129608183Y-73998048D01*
X129631204Y-73969997D01*
X134442323Y-69158879D01*
X134470368Y-69135863D01*
X134562217Y-69023945D01*
X134630467Y-68896258D01*
X134660140Y-68798440D01*
X134672495Y-68757711D01*
X134686686Y-68613625D01*
X134683130Y-68577520D01*
X134683130Y-56766405D01*
X134686685Y-56730310D01*
X134683130Y-56694215D01*
X134683130Y-56694206D01*
X134672495Y-56586226D01*
X134630467Y-56447678D01*
X134562217Y-56319991D01*
X134520044Y-56268604D01*
X134493383Y-56236117D01*
X134493380Y-56236114D01*
X134470367Y-56208073D01*
X134442327Y-56185061D01*
X132887268Y-54630003D01*
X133204928Y-54761582D01*
X133694684Y-54859000D01*
X134194036Y-54859000D01*
X134683792Y-54761582D01*
X135145133Y-54570488D01*
X135560328Y-54293063D01*
X135741335Y-54112056D01*
X135757110Y-72868159D01*
%TA.AperFunction,Conductor*%
D24*
G36*
X135757110Y-72868159D02*
G01*
X135499368Y-72610417D01*
X135084173Y-72332992D01*
X134622832Y-72141898D01*
X134133076Y-72044480D01*
X133633724Y-72044480D01*
X133143968Y-72141898D01*
X132682627Y-72332992D01*
X132267432Y-72610417D01*
X131914337Y-72963512D01*
X131636912Y-73378707D01*
X131445818Y-73840048D01*
X131348400Y-74329804D01*
X131348400Y-74829156D01*
X131445818Y-75318912D01*
X131636912Y-75780253D01*
X131914337Y-76195448D01*
X132133889Y-76415000D01*
X128104504Y-76415000D01*
X128145636Y-76393014D01*
X128261361Y-76298041D01*
X128356334Y-76182316D01*
X128426906Y-76050287D01*
X128470363Y-75907026D01*
X128473215Y-75878072D01*
X128650000Y-75878072D01*
X128774482Y-75865812D01*
X128894180Y-75829502D01*
X129004494Y-75770537D01*
X129101185Y-75691185D01*
X129180537Y-75594494D01*
X129239502Y-75484180D01*
X129275812Y-75364482D01*
X129288072Y-75240000D01*
X129288072Y-74540000D01*
X129275812Y-74415518D01*
X129239502Y-74295820D01*
X129190461Y-74204072D01*
X129230030Y-74200175D01*
X129368578Y-74158147D01*
X129496265Y-74089897D01*
X129608183Y-73998048D01*
X129631204Y-73969997D01*
X134442323Y-69158879D01*
X134470368Y-69135863D01*
X134562217Y-69023945D01*
X134630467Y-68896258D01*
X134660140Y-68798440D01*
X134672495Y-68757711D01*
X134686686Y-68613625D01*
X134683130Y-68577520D01*
X134683130Y-56766405D01*
X134686685Y-56730310D01*
X134683130Y-56694215D01*
X134683130Y-56694206D01*
X134672495Y-56586226D01*
X134630467Y-56447678D01*
X134562217Y-56319991D01*
X134520044Y-56268604D01*
X134493383Y-56236117D01*
X134493380Y-56236114D01*
X134470367Y-56208073D01*
X134442327Y-56185061D01*
X132887268Y-54630003D01*
X133204928Y-54761582D01*
X133694684Y-54859000D01*
X134194036Y-54859000D01*
X134683792Y-54761582D01*
X135145133Y-54570488D01*
X135560328Y-54293063D01*
X135741335Y-54112056D01*
X135757110Y-72868159D01*
G37*
%TD.AperFunction*%
D23*
X121405820Y-72749502D02*
X121488260Y-72774510D01*
X121508750Y-72795000D01*
X121550056Y-72788229D01*
X121650000Y-72798072D01*
X121850000Y-72798072D01*
X121950000Y-72788223D01*
X122050000Y-72798072D01*
X122250000Y-72798072D01*
X122350000Y-72788223D01*
X122450000Y-72798072D01*
X122650000Y-72798072D01*
X122725397Y-72790646D01*
X122735913Y-72810321D01*
X122827762Y-72922239D01*
X122869204Y-72956250D01*
X122980720Y-73067766D01*
X123003741Y-73095817D01*
X123115659Y-73187666D01*
X123243346Y-73255916D01*
X123381894Y-73297944D01*
X123525979Y-73312135D01*
X123562084Y-73308579D01*
X123763273Y-73308579D01*
X124054343Y-73599649D01*
X124077359Y-73627695D01*
X124189277Y-73719544D01*
X124316964Y-73787794D01*
X124411302Y-73816411D01*
X124455511Y-73829822D01*
X124599596Y-73844013D01*
X124635701Y-73840457D01*
X126117258Y-73840457D01*
X126223381Y-73946580D01*
X126180139Y-73961804D01*
X126149401Y-73980015D01*
X126094180Y-73950498D01*
X126011740Y-73925490D01*
X125991250Y-73905000D01*
X125949944Y-73911771D01*
X125850000Y-73901928D01*
X125650000Y-73901928D01*
X125550000Y-73911777D01*
X125450000Y-73901928D01*
X125250000Y-73901928D01*
X125150000Y-73911777D01*
X125050000Y-73901928D01*
X124850000Y-73901928D01*
X124750000Y-73911777D01*
X124650000Y-73901928D01*
X124450000Y-73901928D01*
X124350000Y-73911777D01*
X124250000Y-73901928D01*
X124050000Y-73901928D01*
X123950000Y-73911777D01*
X123850000Y-73901928D01*
X123650000Y-73901928D01*
X123550000Y-73911777D01*
X123450000Y-73901928D01*
X123250000Y-73901928D01*
X123150000Y-73911777D01*
X123050000Y-73901928D01*
X122850000Y-73901928D01*
X122750000Y-73911777D01*
X122650000Y-73901928D01*
X122450000Y-73901928D01*
X122350000Y-73911777D01*
X122250000Y-73901928D01*
X122050000Y-73901928D01*
X121950056Y-73911771D01*
X121908750Y-73905000D01*
X121888260Y-73925490D01*
X121805820Y-73950498D01*
X121750599Y-73980015D01*
X121719861Y-73961804D01*
X121609038Y-73922788D01*
X121591250Y-73905000D01*
X121550000Y-73911762D01*
X121508750Y-73905000D01*
X121490962Y-73922788D01*
X121380139Y-73961804D01*
X121349401Y-73980015D01*
X121294180Y-73950498D01*
X121211740Y-73925490D01*
X121191250Y-73905000D01*
X121149944Y-73911771D01*
X121050000Y-73901928D01*
X120850000Y-73901928D01*
X120750000Y-73911777D01*
X120650000Y-73901928D01*
X120450000Y-73901928D01*
X120350056Y-73911771D01*
X120308750Y-73905000D01*
X120288260Y-73925490D01*
X120205820Y-73950498D01*
X120150000Y-73980335D01*
X120094180Y-73950498D01*
X120011740Y-73925490D01*
X119991250Y-73905000D01*
X119949944Y-73911771D01*
X119850000Y-73901928D01*
X119650000Y-73901928D01*
X119550000Y-73911777D01*
X119450000Y-73901928D01*
X119265000Y-73901928D01*
X119265000Y-73762577D01*
X119268458Y-73727467D01*
X119265000Y-73692357D01*
X119265000Y-73692348D01*
X119254654Y-73587304D01*
X119213770Y-73452526D01*
X119147377Y-73328314D01*
X119058027Y-73219441D01*
X119030746Y-73197052D01*
X118631766Y-72798072D01*
X118650000Y-72798072D01*
X118749944Y-72788229D01*
X118791250Y-72795000D01*
X118811740Y-72774510D01*
X118894180Y-72749502D01*
X118950000Y-72719665D01*
X119005820Y-72749502D01*
X119088260Y-72774510D01*
X119108750Y-72795000D01*
X119150056Y-72788229D01*
X119250000Y-72798072D01*
X119450000Y-72798072D01*
X119550000Y-72788223D01*
X119650000Y-72798072D01*
X119850000Y-72798072D01*
X119949944Y-72788229D01*
X119991250Y-72795000D01*
X120011740Y-72774510D01*
X120094180Y-72749502D01*
X120150000Y-72719665D01*
X120205820Y-72749502D01*
X120288260Y-72774510D01*
X120308750Y-72795000D01*
X120350056Y-72788229D01*
X120450000Y-72798072D01*
X120650000Y-72798072D01*
X120750000Y-72788223D01*
X120850000Y-72798072D01*
X121050000Y-72798072D01*
X121149944Y-72788229D01*
X121191250Y-72795000D01*
X121211740Y-72774510D01*
X121294180Y-72749502D01*
X121350000Y-72719665D01*
X121405820Y-72749502D01*
%TA.AperFunction,Conductor*%
D24*
G36*
X121405820Y-72749502D02*
G01*
X121488260Y-72774510D01*
X121508750Y-72795000D01*
X121550056Y-72788229D01*
X121650000Y-72798072D01*
X121850000Y-72798072D01*
X121950000Y-72788223D01*
X122050000Y-72798072D01*
X122250000Y-72798072D01*
X122350000Y-72788223D01*
X122450000Y-72798072D01*
X122650000Y-72798072D01*
X122725397Y-72790646D01*
X122735913Y-72810321D01*
X122827762Y-72922239D01*
X122869204Y-72956250D01*
X122980720Y-73067766D01*
X123003741Y-73095817D01*
X123115659Y-73187666D01*
X123243346Y-73255916D01*
X123381894Y-73297944D01*
X123525979Y-73312135D01*
X123562084Y-73308579D01*
X123763273Y-73308579D01*
X124054343Y-73599649D01*
X124077359Y-73627695D01*
X124189277Y-73719544D01*
X124316964Y-73787794D01*
X124411302Y-73816411D01*
X124455511Y-73829822D01*
X124599596Y-73844013D01*
X124635701Y-73840457D01*
X126117258Y-73840457D01*
X126223381Y-73946580D01*
X126180139Y-73961804D01*
X126149401Y-73980015D01*
X126094180Y-73950498D01*
X126011740Y-73925490D01*
X125991250Y-73905000D01*
X125949944Y-73911771D01*
X125850000Y-73901928D01*
X125650000Y-73901928D01*
X125550000Y-73911777D01*
X125450000Y-73901928D01*
X125250000Y-73901928D01*
X125150000Y-73911777D01*
X125050000Y-73901928D01*
X124850000Y-73901928D01*
X124750000Y-73911777D01*
X124650000Y-73901928D01*
X124450000Y-73901928D01*
X124350000Y-73911777D01*
X124250000Y-73901928D01*
X124050000Y-73901928D01*
X123950000Y-73911777D01*
X123850000Y-73901928D01*
X123650000Y-73901928D01*
X123550000Y-73911777D01*
X123450000Y-73901928D01*
X123250000Y-73901928D01*
X123150000Y-73911777D01*
X123050000Y-73901928D01*
X122850000Y-73901928D01*
X122750000Y-73911777D01*
X122650000Y-73901928D01*
X122450000Y-73901928D01*
X122350000Y-73911777D01*
X122250000Y-73901928D01*
X122050000Y-73901928D01*
X121950056Y-73911771D01*
X121908750Y-73905000D01*
X121888260Y-73925490D01*
X121805820Y-73950498D01*
X121750599Y-73980015D01*
X121719861Y-73961804D01*
X121609038Y-73922788D01*
X121591250Y-73905000D01*
X121550000Y-73911762D01*
X121508750Y-73905000D01*
X121490962Y-73922788D01*
X121380139Y-73961804D01*
X121349401Y-73980015D01*
X121294180Y-73950498D01*
X121211740Y-73925490D01*
X121191250Y-73905000D01*
X121149944Y-73911771D01*
X121050000Y-73901928D01*
X120850000Y-73901928D01*
X120750000Y-73911777D01*
X120650000Y-73901928D01*
X120450000Y-73901928D01*
X120350056Y-73911771D01*
X120308750Y-73905000D01*
X120288260Y-73925490D01*
X120205820Y-73950498D01*
X120150000Y-73980335D01*
X120094180Y-73950498D01*
X120011740Y-73925490D01*
X119991250Y-73905000D01*
X119949944Y-73911771D01*
X119850000Y-73901928D01*
X119650000Y-73901928D01*
X119550000Y-73911777D01*
X119450000Y-73901928D01*
X119265000Y-73901928D01*
X119265000Y-73762577D01*
X119268458Y-73727467D01*
X119265000Y-73692357D01*
X119265000Y-73692348D01*
X119254654Y-73587304D01*
X119213770Y-73452526D01*
X119147377Y-73328314D01*
X119058027Y-73219441D01*
X119030746Y-73197052D01*
X118631766Y-72798072D01*
X118650000Y-72798072D01*
X118749944Y-72788229D01*
X118791250Y-72795000D01*
X118811740Y-72774510D01*
X118894180Y-72749502D01*
X118950000Y-72719665D01*
X119005820Y-72749502D01*
X119088260Y-72774510D01*
X119108750Y-72795000D01*
X119150056Y-72788229D01*
X119250000Y-72798072D01*
X119450000Y-72798072D01*
X119550000Y-72788223D01*
X119650000Y-72798072D01*
X119850000Y-72798072D01*
X119949944Y-72788229D01*
X119991250Y-72795000D01*
X120011740Y-72774510D01*
X120094180Y-72749502D01*
X120150000Y-72719665D01*
X120205820Y-72749502D01*
X120288260Y-72774510D01*
X120308750Y-72795000D01*
X120350056Y-72788229D01*
X120450000Y-72798072D01*
X120650000Y-72798072D01*
X120750000Y-72788223D01*
X120850000Y-72798072D01*
X121050000Y-72798072D01*
X121149944Y-72788229D01*
X121191250Y-72795000D01*
X121211740Y-72774510D01*
X121294180Y-72749502D01*
X121350000Y-72719665D01*
X121405820Y-72749502D01*
G37*
%TD.AperFunction*%
D23*
X131975297Y-50708032D02*
X131697872Y-51123227D01*
X131506778Y-51584568D01*
X131409360Y-52074324D01*
X131409360Y-52573676D01*
X131506778Y-53063432D01*
X131697872Y-53524773D01*
X131816325Y-53702050D01*
X131776124Y-53689855D01*
X131668144Y-53679220D01*
X131632039Y-53675664D01*
X131595934Y-53679220D01*
X125514845Y-53679220D01*
X125478740Y-53675664D01*
X125334655Y-53689855D01*
X125196106Y-53731883D01*
X125082663Y-53792520D01*
X125068420Y-53800133D01*
X124956502Y-53891982D01*
X124933481Y-53920033D01*
X124827996Y-54025518D01*
X124825972Y-54004972D01*
X124819622Y-53940493D01*
X124774734Y-53792520D01*
X124762966Y-53770503D01*
X124701842Y-53656147D01*
X124603744Y-53536616D01*
X124573795Y-53512037D01*
X124011106Y-52949349D01*
X123986524Y-52919396D01*
X123866993Y-52821298D01*
X123730620Y-52748406D01*
X123582647Y-52703519D01*
X123467321Y-52692160D01*
X123467313Y-52692160D01*
X123428760Y-52688363D01*
X123390207Y-52692160D01*
X121359116Y-52692160D01*
X121320560Y-52688363D01*
X121282004Y-52692160D01*
X121281999Y-52692160D01*
X121241586Y-52696140D01*
X121166673Y-52703518D01*
X121018700Y-52748406D01*
X120882327Y-52821298D01*
X120762796Y-52919396D01*
X120738213Y-52949350D01*
X119672813Y-54014750D01*
X115840445Y-54014750D01*
X115801890Y-54010953D01*
X115763334Y-54014750D01*
X115763329Y-54014750D01*
X115722916Y-54018730D01*
X115648003Y-54026108D01*
X115515135Y-54066414D01*
X115500030Y-54070996D01*
X115363657Y-54143888D01*
X115325399Y-54175286D01*
X115274077Y-54217405D01*
X115274074Y-54217408D01*
X115244126Y-54241986D01*
X115219547Y-54271935D01*
X114452363Y-55039120D01*
X113662916Y-55039120D01*
X113624360Y-55035323D01*
X113585804Y-55039120D01*
X113585799Y-55039120D01*
X113545386Y-55043100D01*
X113470473Y-55050478D01*
X113341524Y-55089595D01*
X113322500Y-55095366D01*
X113186127Y-55168258D01*
X113066596Y-55266356D01*
X113042009Y-55296315D01*
X112710471Y-55627853D01*
X112680516Y-55652436D01*
X112582418Y-55771968D01*
X112509526Y-55908341D01*
X112464639Y-56056314D01*
X112453280Y-56171640D01*
X112453280Y-56171647D01*
X112449483Y-56210200D01*
X112453280Y-56248753D01*
X112453281Y-58818317D01*
X112449483Y-58856880D01*
X112464639Y-59010766D01*
X112509526Y-59158739D01*
X112526526Y-59190544D01*
X112582419Y-59295113D01*
X112609103Y-59327627D01*
X112655935Y-59384692D01*
X112655939Y-59384696D01*
X112680517Y-59414644D01*
X112710465Y-59439222D01*
X113367133Y-60095890D01*
X113391716Y-60125844D01*
X113511247Y-60223942D01*
X113646875Y-60296436D01*
X113647620Y-60296834D01*
X113795593Y-60341722D01*
X113870506Y-60349100D01*
X113910919Y-60353080D01*
X113910924Y-60353080D01*
X113949480Y-60356877D01*
X113988036Y-60353080D01*
X115362309Y-60353080D01*
X115314245Y-60392525D01*
X115207689Y-60522365D01*
X115128510Y-60670498D01*
X115079752Y-60831232D01*
X115063288Y-60998390D01*
X115063288Y-61510890D01*
X115079752Y-61678048D01*
X115128510Y-61838782D01*
X115207689Y-61986915D01*
X115212054Y-61992234D01*
X115186207Y-62023729D01*
X115089576Y-62033246D01*
X114954798Y-62074130D01*
X114830586Y-62140523D01*
X114721713Y-62229873D01*
X114699323Y-62257156D01*
X114647293Y-62309186D01*
X114620014Y-62331573D01*
X114571312Y-62390916D01*
X114530664Y-62440446D01*
X114464271Y-62564658D01*
X114423387Y-62699436D01*
X114409582Y-62839600D01*
X114413041Y-62874719D01*
X114413040Y-64745050D01*
X114409582Y-64780160D01*
X114413040Y-64815270D01*
X114413040Y-64815279D01*
X114423386Y-64920323D01*
X114437786Y-64967794D01*
X114410720Y-64965128D01*
X113350720Y-64965128D01*
X113226238Y-64977388D01*
X113106540Y-65013698D01*
X112996226Y-65072663D01*
X112899535Y-65152015D01*
X112820183Y-65248706D01*
X112761218Y-65359020D01*
X112724908Y-65478718D01*
X112712648Y-65603200D01*
X112712648Y-66253200D01*
X112724908Y-66377682D01*
X112761218Y-66497380D01*
X112820183Y-66607694D01*
X112899535Y-66704385D01*
X112996226Y-66783737D01*
X113106540Y-66842702D01*
X113223561Y-66878200D01*
X113106540Y-66913698D01*
X112996226Y-66972663D01*
X112899535Y-67052015D01*
X112820183Y-67148706D01*
X112761218Y-67259020D01*
X112724908Y-67378718D01*
X112712648Y-67503200D01*
X112712648Y-68153200D01*
X112724908Y-68277682D01*
X112761218Y-68397380D01*
X112820183Y-68507694D01*
X112899535Y-68604385D01*
X112936576Y-68634784D01*
X112840409Y-68751965D01*
X112761230Y-68900098D01*
X112712472Y-69060832D01*
X112696008Y-69227990D01*
X112696008Y-69740490D01*
X112712472Y-69907648D01*
X112761230Y-70068382D01*
X112840409Y-70216515D01*
X112946965Y-70346355D01*
X112986180Y-70378538D01*
X112986180Y-71478817D01*
X112982504Y-71516140D01*
X112986180Y-71553462D01*
X112986180Y-71553472D01*
X112997177Y-71665125D01*
X113033089Y-71783513D01*
X113040634Y-71808386D01*
X113111206Y-71940416D01*
X113149667Y-71987280D01*
X113206179Y-72056141D01*
X113235182Y-72079943D01*
X113788921Y-72633683D01*
X113788920Y-73579144D01*
X113701688Y-73368547D01*
X113424263Y-72953352D01*
X113071168Y-72600257D01*
X112655973Y-72322832D01*
X112194632Y-72131738D01*
X111704876Y-72034320D01*
X111205524Y-72034320D01*
X110715768Y-72131738D01*
X110254427Y-72322832D01*
X109839232Y-72600257D01*
X109610000Y-72829489D01*
X109610000Y-54033351D01*
X109869712Y-54293063D01*
X110284907Y-54570488D01*
X110746248Y-54761582D01*
X111236004Y-54859000D01*
X111735356Y-54859000D01*
X112225112Y-54761582D01*
X112686453Y-54570488D01*
X113101648Y-54293063D01*
X113454743Y-53939968D01*
X113732168Y-53524773D01*
X113923262Y-53063432D01*
X114020680Y-52573676D01*
X114020680Y-52074324D01*
X113923262Y-51584568D01*
X113732168Y-51123227D01*
X113454743Y-50708032D01*
X113231711Y-50485000D01*
X132198329Y-50485000D01*
X131975297Y-50708032D01*
%TA.AperFunction,Conductor*%
D24*
G36*
X131975297Y-50708032D02*
G01*
X131697872Y-51123227D01*
X131506778Y-51584568D01*
X131409360Y-52074324D01*
X131409360Y-52573676D01*
X131506778Y-53063432D01*
X131697872Y-53524773D01*
X131816325Y-53702050D01*
X131776124Y-53689855D01*
X131668144Y-53679220D01*
X131632039Y-53675664D01*
X131595934Y-53679220D01*
X125514845Y-53679220D01*
X125478740Y-53675664D01*
X125334655Y-53689855D01*
X125196106Y-53731883D01*
X125082663Y-53792520D01*
X125068420Y-53800133D01*
X124956502Y-53891982D01*
X124933481Y-53920033D01*
X124827996Y-54025518D01*
X124825972Y-54004972D01*
X124819622Y-53940493D01*
X124774734Y-53792520D01*
X124762966Y-53770503D01*
X124701842Y-53656147D01*
X124603744Y-53536616D01*
X124573795Y-53512037D01*
X124011106Y-52949349D01*
X123986524Y-52919396D01*
X123866993Y-52821298D01*
X123730620Y-52748406D01*
X123582647Y-52703519D01*
X123467321Y-52692160D01*
X123467313Y-52692160D01*
X123428760Y-52688363D01*
X123390207Y-52692160D01*
X121359116Y-52692160D01*
X121320560Y-52688363D01*
X121282004Y-52692160D01*
X121281999Y-52692160D01*
X121241586Y-52696140D01*
X121166673Y-52703518D01*
X121018700Y-52748406D01*
X120882327Y-52821298D01*
X120762796Y-52919396D01*
X120738213Y-52949350D01*
X119672813Y-54014750D01*
X115840445Y-54014750D01*
X115801890Y-54010953D01*
X115763334Y-54014750D01*
X115763329Y-54014750D01*
X115722916Y-54018730D01*
X115648003Y-54026108D01*
X115515135Y-54066414D01*
X115500030Y-54070996D01*
X115363657Y-54143888D01*
X115325399Y-54175286D01*
X115274077Y-54217405D01*
X115274074Y-54217408D01*
X115244126Y-54241986D01*
X115219547Y-54271935D01*
X114452363Y-55039120D01*
X113662916Y-55039120D01*
X113624360Y-55035323D01*
X113585804Y-55039120D01*
X113585799Y-55039120D01*
X113545386Y-55043100D01*
X113470473Y-55050478D01*
X113341524Y-55089595D01*
X113322500Y-55095366D01*
X113186127Y-55168258D01*
X113066596Y-55266356D01*
X113042009Y-55296315D01*
X112710471Y-55627853D01*
X112680516Y-55652436D01*
X112582418Y-55771968D01*
X112509526Y-55908341D01*
X112464639Y-56056314D01*
X112453280Y-56171640D01*
X112453280Y-56171647D01*
X112449483Y-56210200D01*
X112453280Y-56248753D01*
X112453281Y-58818317D01*
X112449483Y-58856880D01*
X112464639Y-59010766D01*
X112509526Y-59158739D01*
X112526526Y-59190544D01*
X112582419Y-59295113D01*
X112609103Y-59327627D01*
X112655935Y-59384692D01*
X112655939Y-59384696D01*
X112680517Y-59414644D01*
X112710465Y-59439222D01*
X113367133Y-60095890D01*
X113391716Y-60125844D01*
X113511247Y-60223942D01*
X113646875Y-60296436D01*
X113647620Y-60296834D01*
X113795593Y-60341722D01*
X113870506Y-60349100D01*
X113910919Y-60353080D01*
X113910924Y-60353080D01*
X113949480Y-60356877D01*
X113988036Y-60353080D01*
X115362309Y-60353080D01*
X115314245Y-60392525D01*
X115207689Y-60522365D01*
X115128510Y-60670498D01*
X115079752Y-60831232D01*
X115063288Y-60998390D01*
X115063288Y-61510890D01*
X115079752Y-61678048D01*
X115128510Y-61838782D01*
X115207689Y-61986915D01*
X115212054Y-61992234D01*
X115186207Y-62023729D01*
X115089576Y-62033246D01*
X114954798Y-62074130D01*
X114830586Y-62140523D01*
X114721713Y-62229873D01*
X114699323Y-62257156D01*
X114647293Y-62309186D01*
X114620014Y-62331573D01*
X114571312Y-62390916D01*
X114530664Y-62440446D01*
X114464271Y-62564658D01*
X114423387Y-62699436D01*
X114409582Y-62839600D01*
X114413041Y-62874719D01*
X114413040Y-64745050D01*
X114409582Y-64780160D01*
X114413040Y-64815270D01*
X114413040Y-64815279D01*
X114423386Y-64920323D01*
X114437786Y-64967794D01*
X114410720Y-64965128D01*
X113350720Y-64965128D01*
X113226238Y-64977388D01*
X113106540Y-65013698D01*
X112996226Y-65072663D01*
X112899535Y-65152015D01*
X112820183Y-65248706D01*
X112761218Y-65359020D01*
X112724908Y-65478718D01*
X112712648Y-65603200D01*
X112712648Y-66253200D01*
X112724908Y-66377682D01*
X112761218Y-66497380D01*
X112820183Y-66607694D01*
X112899535Y-66704385D01*
X112996226Y-66783737D01*
X113106540Y-66842702D01*
X113223561Y-66878200D01*
X113106540Y-66913698D01*
X112996226Y-66972663D01*
X112899535Y-67052015D01*
X112820183Y-67148706D01*
X112761218Y-67259020D01*
X112724908Y-67378718D01*
X112712648Y-67503200D01*
X112712648Y-68153200D01*
X112724908Y-68277682D01*
X112761218Y-68397380D01*
X112820183Y-68507694D01*
X112899535Y-68604385D01*
X112936576Y-68634784D01*
X112840409Y-68751965D01*
X112761230Y-68900098D01*
X112712472Y-69060832D01*
X112696008Y-69227990D01*
X112696008Y-69740490D01*
X112712472Y-69907648D01*
X112761230Y-70068382D01*
X112840409Y-70216515D01*
X112946965Y-70346355D01*
X112986180Y-70378538D01*
X112986180Y-71478817D01*
X112982504Y-71516140D01*
X112986180Y-71553462D01*
X112986180Y-71553472D01*
X112997177Y-71665125D01*
X113033089Y-71783513D01*
X113040634Y-71808386D01*
X113111206Y-71940416D01*
X113149667Y-71987280D01*
X113206179Y-72056141D01*
X113235182Y-72079943D01*
X113788921Y-72633683D01*
X113788920Y-73579144D01*
X113701688Y-73368547D01*
X113424263Y-72953352D01*
X113071168Y-72600257D01*
X112655973Y-72322832D01*
X112194632Y-72131738D01*
X111704876Y-72034320D01*
X111205524Y-72034320D01*
X110715768Y-72131738D01*
X110254427Y-72322832D01*
X109839232Y-72600257D01*
X109610000Y-72829489D01*
X109610000Y-54033351D01*
X109869712Y-54293063D01*
X110284907Y-54570488D01*
X110746248Y-54761582D01*
X111236004Y-54859000D01*
X111735356Y-54859000D01*
X112225112Y-54761582D01*
X112686453Y-54570488D01*
X113101648Y-54293063D01*
X113454743Y-53939968D01*
X113732168Y-53524773D01*
X113923262Y-53063432D01*
X114020680Y-52573676D01*
X114020680Y-52074324D01*
X113923262Y-51584568D01*
X113732168Y-51123227D01*
X113454743Y-50708032D01*
X113231711Y-50485000D01*
X132198329Y-50485000D01*
X131975297Y-50708032D01*
G37*
%TD.AperFunction*%
D23*
X115455110Y-72458132D02*
X115451837Y-72491370D01*
X115451652Y-72493244D01*
X115455110Y-72528354D01*
X115455110Y-72528362D01*
X115465456Y-72633406D01*
X115505170Y-72764326D01*
X115468739Y-72757080D01*
X115308920Y-72757080D01*
X115308920Y-72356205D01*
X115312596Y-72318880D01*
X115308920Y-72281555D01*
X115308920Y-72281547D01*
X115297923Y-72169894D01*
X115254466Y-72026633D01*
X115183894Y-71894604D01*
X115088921Y-71778879D01*
X115059922Y-71755081D01*
X114506180Y-71201339D01*
X114506180Y-70450051D01*
X114554586Y-70489777D01*
X114664900Y-70548742D01*
X114784598Y-70585052D01*
X114909080Y-70597312D01*
X115060830Y-70594240D01*
X115219580Y-70435490D01*
X115219580Y-69611240D01*
X115199580Y-69611240D01*
X115199580Y-69357240D01*
X115219580Y-69357240D01*
X115219580Y-69337240D01*
X115455111Y-69337240D01*
X115455110Y-72458132D01*
%TA.AperFunction,Conductor*%
D24*
G36*
X115455110Y-72458132D02*
G01*
X115451837Y-72491370D01*
X115451652Y-72493244D01*
X115455110Y-72528354D01*
X115455110Y-72528362D01*
X115465456Y-72633406D01*
X115505170Y-72764326D01*
X115468739Y-72757080D01*
X115308920Y-72757080D01*
X115308920Y-72356205D01*
X115312596Y-72318880D01*
X115308920Y-72281555D01*
X115308920Y-72281547D01*
X115297923Y-72169894D01*
X115254466Y-72026633D01*
X115183894Y-71894604D01*
X115088921Y-71778879D01*
X115059922Y-71755081D01*
X114506180Y-71201339D01*
X114506180Y-70450051D01*
X114554586Y-70489777D01*
X114664900Y-70548742D01*
X114784598Y-70585052D01*
X114909080Y-70597312D01*
X115060830Y-70594240D01*
X115219580Y-70435490D01*
X115219580Y-69611240D01*
X115199580Y-69611240D01*
X115199580Y-69357240D01*
X115219580Y-69357240D01*
X115219580Y-69337240D01*
X115455111Y-69337240D01*
X115455110Y-72458132D01*
G37*
%TD.AperFunction*%
D23*
X119616318Y-68746174D02*
X119721362Y-68756520D01*
X119721371Y-68756520D01*
X119756481Y-68759978D01*
X119791591Y-68756520D01*
X120654990Y-68756520D01*
X120654991Y-70235928D01*
X120469255Y-70421664D01*
X120441973Y-70444054D01*
X120352623Y-70552927D01*
X120286230Y-70677139D01*
X120245346Y-70811917D01*
X120240616Y-70859943D01*
X120205820Y-70870498D01*
X120150000Y-70900335D01*
X120094180Y-70870498D01*
X120011740Y-70845490D01*
X119991250Y-70825000D01*
X119949944Y-70831771D01*
X119850000Y-70821928D01*
X119650000Y-70821928D01*
X119550000Y-70831777D01*
X119450000Y-70821928D01*
X119265000Y-70821928D01*
X119265000Y-70499818D01*
X119268459Y-70464698D01*
X119254654Y-70324534D01*
X119213770Y-70189756D01*
X119177680Y-70122236D01*
X119174801Y-70093009D01*
X119174801Y-70093000D01*
X119164455Y-69987956D01*
X119162753Y-69982346D01*
X119282854Y-69902097D01*
X119427017Y-69757934D01*
X119540285Y-69588416D01*
X119618306Y-69400058D01*
X119658080Y-69200099D01*
X119658080Y-68996221D01*
X119618306Y-68796262D01*
X119595364Y-68740876D01*
X119595952Y-68739996D01*
X119616318Y-68746174D01*
%TA.AperFunction,Conductor*%
D24*
G36*
X119616318Y-68746174D02*
G01*
X119721362Y-68756520D01*
X119721371Y-68756520D01*
X119756481Y-68759978D01*
X119791591Y-68756520D01*
X120654990Y-68756520D01*
X120654991Y-70235928D01*
X120469255Y-70421664D01*
X120441973Y-70444054D01*
X120352623Y-70552927D01*
X120286230Y-70677139D01*
X120245346Y-70811917D01*
X120240616Y-70859943D01*
X120205820Y-70870498D01*
X120150000Y-70900335D01*
X120094180Y-70870498D01*
X120011740Y-70845490D01*
X119991250Y-70825000D01*
X119949944Y-70831771D01*
X119850000Y-70821928D01*
X119650000Y-70821928D01*
X119550000Y-70831777D01*
X119450000Y-70821928D01*
X119265000Y-70821928D01*
X119265000Y-70499818D01*
X119268459Y-70464698D01*
X119254654Y-70324534D01*
X119213770Y-70189756D01*
X119177680Y-70122236D01*
X119174801Y-70093009D01*
X119174801Y-70093000D01*
X119164455Y-69987956D01*
X119162753Y-69982346D01*
X119282854Y-69902097D01*
X119427017Y-69757934D01*
X119540285Y-69588416D01*
X119618306Y-69400058D01*
X119658080Y-69200099D01*
X119658080Y-68996221D01*
X119618306Y-68796262D01*
X119595364Y-68740876D01*
X119595952Y-68739996D01*
X119616318Y-68746174D01*
G37*
%TD.AperFunction*%
D23*
X130318725Y-67408175D02*
X130395840Y-67471461D01*
X130395841Y-68912270D01*
X130395840Y-68912280D01*
X130395840Y-69057482D01*
X129341843Y-70111480D01*
X128072402Y-70111480D01*
X128095204Y-70088678D01*
X128124201Y-70064881D01*
X128219174Y-69949156D01*
X128289746Y-69817127D01*
X128333203Y-69673866D01*
X128340894Y-69595776D01*
X128356360Y-69580310D01*
X128356360Y-68793560D01*
X128610360Y-68793560D01*
X128610360Y-69580310D01*
X128769110Y-69739060D01*
X128958360Y-69742132D01*
X129082842Y-69729872D01*
X129202540Y-69693562D01*
X129312854Y-69634597D01*
X129409545Y-69555245D01*
X129488897Y-69458554D01*
X129547862Y-69348240D01*
X129584172Y-69228542D01*
X129596432Y-69104060D01*
X129593360Y-68952310D01*
X129434610Y-68793560D01*
X128610360Y-68793560D01*
X128356360Y-68793560D01*
X128344200Y-68793560D01*
X128344200Y-68539560D01*
X128356360Y-68539560D01*
X128356360Y-68519560D01*
X128610360Y-68519560D01*
X128610360Y-68539560D01*
X129434610Y-68539560D01*
X129593360Y-68380810D01*
X129596432Y-68229060D01*
X129584172Y-68104578D01*
X129547862Y-67984880D01*
X129488897Y-67874566D01*
X129486859Y-67872083D01*
X129556727Y-67865201D01*
X129704700Y-67820314D01*
X129841073Y-67747422D01*
X129960604Y-67649324D01*
X129985187Y-67619370D01*
X130235997Y-67368560D01*
X130286214Y-67368560D01*
X130318725Y-67408175D01*
%TA.AperFunction,Conductor*%
D24*
G36*
X130318725Y-67408175D02*
G01*
X130395840Y-67471461D01*
X130395841Y-68912270D01*
X130395840Y-68912280D01*
X130395840Y-69057482D01*
X129341843Y-70111480D01*
X128072402Y-70111480D01*
X128095204Y-70088678D01*
X128124201Y-70064881D01*
X128219174Y-69949156D01*
X128289746Y-69817127D01*
X128333203Y-69673866D01*
X128340894Y-69595776D01*
X128356360Y-69580310D01*
X128356360Y-68793560D01*
X128610360Y-68793560D01*
X128610360Y-69580310D01*
X128769110Y-69739060D01*
X128958360Y-69742132D01*
X129082842Y-69729872D01*
X129202540Y-69693562D01*
X129312854Y-69634597D01*
X129409545Y-69555245D01*
X129488897Y-69458554D01*
X129547862Y-69348240D01*
X129584172Y-69228542D01*
X129596432Y-69104060D01*
X129593360Y-68952310D01*
X129434610Y-68793560D01*
X128610360Y-68793560D01*
X128356360Y-68793560D01*
X128344200Y-68793560D01*
X128344200Y-68539560D01*
X128356360Y-68539560D01*
X128356360Y-68519560D01*
X128610360Y-68519560D01*
X128610360Y-68539560D01*
X129434610Y-68539560D01*
X129593360Y-68380810D01*
X129596432Y-68229060D01*
X129584172Y-68104578D01*
X129547862Y-67984880D01*
X129488897Y-67874566D01*
X129486859Y-67872083D01*
X129556727Y-67865201D01*
X129704700Y-67820314D01*
X129841073Y-67747422D01*
X129960604Y-67649324D01*
X129985187Y-67619370D01*
X130235997Y-67368560D01*
X130286214Y-67368560D01*
X130318725Y-67408175D01*
G37*
%TD.AperFunction*%
D23*
X124207072Y-68066631D02*
X124351964Y-68144078D01*
X124509180Y-68191769D01*
X124672680Y-68207872D01*
X125222680Y-68207872D01*
X125386180Y-68191769D01*
X125524370Y-68149850D01*
X125516088Y-68233940D01*
X125519160Y-68385690D01*
X125677910Y-68544440D01*
X126502160Y-68544440D01*
X126502160Y-68524440D01*
X126756160Y-68524440D01*
X126756160Y-68544440D01*
X126776160Y-68544440D01*
X126776160Y-68798440D01*
X126756160Y-68798440D01*
X126756160Y-68818440D01*
X126502160Y-68818440D01*
X126502160Y-68798440D01*
X125677910Y-68798440D01*
X125519160Y-68957190D01*
X125516088Y-69108940D01*
X125528348Y-69233422D01*
X125564658Y-69353120D01*
X125611963Y-69441620D01*
X125448102Y-69474214D01*
X125259744Y-69552235D01*
X125090226Y-69665503D01*
X124946063Y-69809666D01*
X124910305Y-69863182D01*
X123918540Y-68871419D01*
X123896147Y-68844133D01*
X123787274Y-68754783D01*
X123663062Y-68688390D01*
X123528284Y-68647506D01*
X123432560Y-68638078D01*
X123432560Y-68218032D01*
X123644370Y-68218032D01*
X123811528Y-68201568D01*
X123972262Y-68152810D01*
X124120395Y-68073631D01*
X124167999Y-68034564D01*
X124207072Y-68066631D01*
%TA.AperFunction,Conductor*%
D24*
G36*
X124207072Y-68066631D02*
G01*
X124351964Y-68144078D01*
X124509180Y-68191769D01*
X124672680Y-68207872D01*
X125222680Y-68207872D01*
X125386180Y-68191769D01*
X125524370Y-68149850D01*
X125516088Y-68233940D01*
X125519160Y-68385690D01*
X125677910Y-68544440D01*
X126502160Y-68544440D01*
X126502160Y-68524440D01*
X126756160Y-68524440D01*
X126756160Y-68544440D01*
X126776160Y-68544440D01*
X126776160Y-68798440D01*
X126756160Y-68798440D01*
X126756160Y-68818440D01*
X126502160Y-68818440D01*
X126502160Y-68798440D01*
X125677910Y-68798440D01*
X125519160Y-68957190D01*
X125516088Y-69108940D01*
X125528348Y-69233422D01*
X125564658Y-69353120D01*
X125611963Y-69441620D01*
X125448102Y-69474214D01*
X125259744Y-69552235D01*
X125090226Y-69665503D01*
X124946063Y-69809666D01*
X124910305Y-69863182D01*
X123918540Y-68871419D01*
X123896147Y-68844133D01*
X123787274Y-68754783D01*
X123663062Y-68688390D01*
X123528284Y-68647506D01*
X123432560Y-68638078D01*
X123432560Y-68218032D01*
X123644370Y-68218032D01*
X123811528Y-68201568D01*
X123972262Y-68152810D01*
X124120395Y-68073631D01*
X124167999Y-68034564D01*
X124207072Y-68066631D01*
G37*
%TD.AperFunction*%
D23*
X115074470Y-66751200D02*
X115156579Y-66751200D01*
X115196226Y-66783737D01*
X115306540Y-66842702D01*
X115423561Y-66878200D01*
X115306540Y-66913698D01*
X115196226Y-66972663D01*
X115156579Y-67005200D01*
X115074470Y-67005200D01*
X114936617Y-67143053D01*
X114861905Y-67052015D01*
X114765214Y-66972663D01*
X114654900Y-66913698D01*
X114537879Y-66878200D01*
X114654900Y-66842702D01*
X114765214Y-66783737D01*
X114861905Y-66704385D01*
X114936617Y-66613347D01*
X115074470Y-66751200D01*
%TA.AperFunction,Conductor*%
D24*
G36*
X115074470Y-66751200D02*
G01*
X115156579Y-66751200D01*
X115196226Y-66783737D01*
X115306540Y-66842702D01*
X115423561Y-66878200D01*
X115306540Y-66913698D01*
X115196226Y-66972663D01*
X115156579Y-67005200D01*
X115074470Y-67005200D01*
X114936617Y-67143053D01*
X114861905Y-67052015D01*
X114765214Y-66972663D01*
X114654900Y-66913698D01*
X114537879Y-66878200D01*
X114654900Y-66842702D01*
X114765214Y-66783737D01*
X114861905Y-66704385D01*
X114936617Y-66613347D01*
X115074470Y-66751200D01*
G37*
%TD.AperFunction*%
D23*
X123260981Y-54419538D02*
X123260980Y-56697427D01*
X123257183Y-56735980D01*
X123260980Y-56774533D01*
X123260980Y-56774540D01*
X123272339Y-56889866D01*
X123317226Y-57037839D01*
X123390118Y-57174212D01*
X123488216Y-57293744D01*
X123518170Y-57318327D01*
X123897969Y-57698125D01*
X123922556Y-57728084D01*
X124042087Y-57826182D01*
X124152309Y-57885096D01*
X124178460Y-57899074D01*
X124326433Y-57943962D01*
X124401346Y-57951340D01*
X124441759Y-57955320D01*
X124441764Y-57955320D01*
X124480320Y-57959117D01*
X124518876Y-57955320D01*
X126575587Y-57955320D01*
X126522496Y-58034776D01*
X126436937Y-58241333D01*
X126393320Y-58460612D01*
X126393320Y-58684188D01*
X126436937Y-58903467D01*
X126466165Y-58974029D01*
X126438696Y-58955675D01*
X126250338Y-58877654D01*
X126050379Y-58837880D01*
X125846501Y-58837880D01*
X125829012Y-58841359D01*
X125782097Y-58771146D01*
X125637934Y-58626983D01*
X125468416Y-58513715D01*
X125280058Y-58435694D01*
X125080099Y-58395920D01*
X124876221Y-58395920D01*
X124676262Y-58435694D01*
X124487904Y-58513715D01*
X124318386Y-58626983D01*
X124174223Y-58771146D01*
X124136167Y-58828102D01*
X124131492Y-58780638D01*
X124095182Y-58660940D01*
X124036217Y-58550626D01*
X123956865Y-58453935D01*
X123860174Y-58374583D01*
X123749860Y-58315618D01*
X123630162Y-58279308D01*
X123505680Y-58267048D01*
X123341430Y-58270120D01*
X123182680Y-58428870D01*
X123182680Y-59253120D01*
X123202680Y-59253120D01*
X123202680Y-59507120D01*
X123182680Y-59507120D01*
X123182680Y-60331370D01*
X123341430Y-60490120D01*
X123505680Y-60493192D01*
X123630162Y-60480932D01*
X123749860Y-60444622D01*
X123860174Y-60385657D01*
X123956865Y-60306305D01*
X124036217Y-60209614D01*
X124095182Y-60099300D01*
X124121657Y-60012023D01*
X124174223Y-60090694D01*
X124253321Y-60169792D01*
X124253321Y-60171529D01*
X124191083Y-60247366D01*
X124132118Y-60357680D01*
X124095808Y-60477378D01*
X124083548Y-60601860D01*
X124083548Y-62062360D01*
X124095808Y-62186842D01*
X124132118Y-62306540D01*
X124191083Y-62416854D01*
X124270435Y-62513545D01*
X124367126Y-62592897D01*
X124477440Y-62651862D01*
X124597138Y-62688172D01*
X124721620Y-62700432D01*
X125255020Y-62700432D01*
X125379502Y-62688172D01*
X125499200Y-62651862D01*
X125609514Y-62592897D01*
X125623320Y-62581567D01*
X125637126Y-62592897D01*
X125706567Y-62630015D01*
X125706567Y-63477140D01*
X125718827Y-63601622D01*
X125755137Y-63721320D01*
X125814102Y-63831634D01*
X125893454Y-63928325D01*
X125939186Y-63965856D01*
X126001262Y-64081992D01*
X126090612Y-64190865D01*
X126117894Y-64213255D01*
X126169179Y-64264540D01*
X126117894Y-64315825D01*
X126090612Y-64338215D01*
X126001262Y-64447088D01*
X125934869Y-64571300D01*
X125926441Y-64599083D01*
X125893454Y-64626155D01*
X125864748Y-64661133D01*
X125777174Y-64589263D01*
X125666860Y-64530298D01*
X125547162Y-64493988D01*
X125422680Y-64481728D01*
X125233430Y-64484800D01*
X125074680Y-64643550D01*
X125074680Y-65392800D01*
X125094680Y-65392800D01*
X125094680Y-65569160D01*
X124800680Y-65569160D01*
X124800680Y-65392800D01*
X124820680Y-65392800D01*
X124820680Y-64643550D01*
X124661930Y-64484800D01*
X124472680Y-64481728D01*
X124348198Y-64493988D01*
X124228500Y-64530298D01*
X124118186Y-64589263D01*
X124084357Y-64617026D01*
X123972262Y-64557110D01*
X123811528Y-64508352D01*
X123644370Y-64491888D01*
X123131870Y-64491888D01*
X122964712Y-64508352D01*
X122803978Y-64557110D01*
X122670064Y-64628689D01*
X122652974Y-64614663D01*
X122542660Y-64555698D01*
X122422962Y-64519388D01*
X122298480Y-64507128D01*
X122109230Y-64510200D01*
X121950480Y-64668950D01*
X121950480Y-65418200D01*
X121970480Y-65418200D01*
X121970480Y-65569160D01*
X121676480Y-65569160D01*
X121676480Y-65418200D01*
X121696480Y-65418200D01*
X121696480Y-64668950D01*
X121537730Y-64510200D01*
X121348480Y-64507128D01*
X121223998Y-64519388D01*
X121104300Y-64555698D01*
X120993986Y-64614663D01*
X120973520Y-64631459D01*
X120973520Y-60434509D01*
X121112303Y-60476608D01*
X121280680Y-60493192D01*
X121730680Y-60493192D01*
X121899057Y-60476608D01*
X122060963Y-60427495D01*
X122207031Y-60349420D01*
X122251186Y-60385657D01*
X122361500Y-60444622D01*
X122481198Y-60480932D01*
X122605680Y-60493192D01*
X122769930Y-60490120D01*
X122928680Y-60331370D01*
X122928680Y-59507120D01*
X122908680Y-59507120D01*
X122908680Y-59253120D01*
X122928680Y-59253120D01*
X122928680Y-58428870D01*
X122769930Y-58270120D01*
X122605680Y-58267048D01*
X122602881Y-58267324D01*
X122610569Y-58241980D01*
X122626672Y-58078480D01*
X122626672Y-57678480D01*
X122610569Y-57514980D01*
X122562878Y-57357764D01*
X122485431Y-57212872D01*
X122381206Y-57085874D01*
X122341734Y-57053480D01*
X122381206Y-57021086D01*
X122485431Y-56894088D01*
X122562878Y-56749196D01*
X122610569Y-56591980D01*
X122626672Y-56428480D01*
X122626672Y-56028480D01*
X122610569Y-55864980D01*
X122562878Y-55707764D01*
X122485431Y-55562872D01*
X122381206Y-55435874D01*
X122254208Y-55331649D01*
X122225361Y-55316230D01*
X122307377Y-55234214D01*
X122420645Y-55064696D01*
X122498666Y-54876338D01*
X122538440Y-54676379D01*
X122538440Y-54472501D01*
X122498666Y-54272542D01*
X122494366Y-54262160D01*
X123103603Y-54262160D01*
X123260981Y-54419538D01*
%TA.AperFunction,Conductor*%
D24*
G36*
X123260981Y-54419538D02*
G01*
X123260980Y-56697427D01*
X123257183Y-56735980D01*
X123260980Y-56774533D01*
X123260980Y-56774540D01*
X123272339Y-56889866D01*
X123317226Y-57037839D01*
X123390118Y-57174212D01*
X123488216Y-57293744D01*
X123518170Y-57318327D01*
X123897969Y-57698125D01*
X123922556Y-57728084D01*
X124042087Y-57826182D01*
X124152309Y-57885096D01*
X124178460Y-57899074D01*
X124326433Y-57943962D01*
X124401346Y-57951340D01*
X124441759Y-57955320D01*
X124441764Y-57955320D01*
X124480320Y-57959117D01*
X124518876Y-57955320D01*
X126575587Y-57955320D01*
X126522496Y-58034776D01*
X126436937Y-58241333D01*
X126393320Y-58460612D01*
X126393320Y-58684188D01*
X126436937Y-58903467D01*
X126466165Y-58974029D01*
X126438696Y-58955675D01*
X126250338Y-58877654D01*
X126050379Y-58837880D01*
X125846501Y-58837880D01*
X125829012Y-58841359D01*
X125782097Y-58771146D01*
X125637934Y-58626983D01*
X125468416Y-58513715D01*
X125280058Y-58435694D01*
X125080099Y-58395920D01*
X124876221Y-58395920D01*
X124676262Y-58435694D01*
X124487904Y-58513715D01*
X124318386Y-58626983D01*
X124174223Y-58771146D01*
X124136167Y-58828102D01*
X124131492Y-58780638D01*
X124095182Y-58660940D01*
X124036217Y-58550626D01*
X123956865Y-58453935D01*
X123860174Y-58374583D01*
X123749860Y-58315618D01*
X123630162Y-58279308D01*
X123505680Y-58267048D01*
X123341430Y-58270120D01*
X123182680Y-58428870D01*
X123182680Y-59253120D01*
X123202680Y-59253120D01*
X123202680Y-59507120D01*
X123182680Y-59507120D01*
X123182680Y-60331370D01*
X123341430Y-60490120D01*
X123505680Y-60493192D01*
X123630162Y-60480932D01*
X123749860Y-60444622D01*
X123860174Y-60385657D01*
X123956865Y-60306305D01*
X124036217Y-60209614D01*
X124095182Y-60099300D01*
X124121657Y-60012023D01*
X124174223Y-60090694D01*
X124253321Y-60169792D01*
X124253321Y-60171529D01*
X124191083Y-60247366D01*
X124132118Y-60357680D01*
X124095808Y-60477378D01*
X124083548Y-60601860D01*
X124083548Y-62062360D01*
X124095808Y-62186842D01*
X124132118Y-62306540D01*
X124191083Y-62416854D01*
X124270435Y-62513545D01*
X124367126Y-62592897D01*
X124477440Y-62651862D01*
X124597138Y-62688172D01*
X124721620Y-62700432D01*
X125255020Y-62700432D01*
X125379502Y-62688172D01*
X125499200Y-62651862D01*
X125609514Y-62592897D01*
X125623320Y-62581567D01*
X125637126Y-62592897D01*
X125706567Y-62630015D01*
X125706567Y-63477140D01*
X125718827Y-63601622D01*
X125755137Y-63721320D01*
X125814102Y-63831634D01*
X125893454Y-63928325D01*
X125939186Y-63965856D01*
X126001262Y-64081992D01*
X126090612Y-64190865D01*
X126117894Y-64213255D01*
X126169179Y-64264540D01*
X126117894Y-64315825D01*
X126090612Y-64338215D01*
X126001262Y-64447088D01*
X125934869Y-64571300D01*
X125926441Y-64599083D01*
X125893454Y-64626155D01*
X125864748Y-64661133D01*
X125777174Y-64589263D01*
X125666860Y-64530298D01*
X125547162Y-64493988D01*
X125422680Y-64481728D01*
X125233430Y-64484800D01*
X125074680Y-64643550D01*
X125074680Y-65392800D01*
X125094680Y-65392800D01*
X125094680Y-65569160D01*
X124800680Y-65569160D01*
X124800680Y-65392800D01*
X124820680Y-65392800D01*
X124820680Y-64643550D01*
X124661930Y-64484800D01*
X124472680Y-64481728D01*
X124348198Y-64493988D01*
X124228500Y-64530298D01*
X124118186Y-64589263D01*
X124084357Y-64617026D01*
X123972262Y-64557110D01*
X123811528Y-64508352D01*
X123644370Y-64491888D01*
X123131870Y-64491888D01*
X122964712Y-64508352D01*
X122803978Y-64557110D01*
X122670064Y-64628689D01*
X122652974Y-64614663D01*
X122542660Y-64555698D01*
X122422962Y-64519388D01*
X122298480Y-64507128D01*
X122109230Y-64510200D01*
X121950480Y-64668950D01*
X121950480Y-65418200D01*
X121970480Y-65418200D01*
X121970480Y-65569160D01*
X121676480Y-65569160D01*
X121676480Y-65418200D01*
X121696480Y-65418200D01*
X121696480Y-64668950D01*
X121537730Y-64510200D01*
X121348480Y-64507128D01*
X121223998Y-64519388D01*
X121104300Y-64555698D01*
X120993986Y-64614663D01*
X120973520Y-64631459D01*
X120973520Y-60434509D01*
X121112303Y-60476608D01*
X121280680Y-60493192D01*
X121730680Y-60493192D01*
X121899057Y-60476608D01*
X122060963Y-60427495D01*
X122207031Y-60349420D01*
X122251186Y-60385657D01*
X122361500Y-60444622D01*
X122481198Y-60480932D01*
X122605680Y-60493192D01*
X122769930Y-60490120D01*
X122928680Y-60331370D01*
X122928680Y-59507120D01*
X122908680Y-59507120D01*
X122908680Y-59253120D01*
X122928680Y-59253120D01*
X122928680Y-58428870D01*
X122769930Y-58270120D01*
X122605680Y-58267048D01*
X122602881Y-58267324D01*
X122610569Y-58241980D01*
X122626672Y-58078480D01*
X122626672Y-57678480D01*
X122610569Y-57514980D01*
X122562878Y-57357764D01*
X122485431Y-57212872D01*
X122381206Y-57085874D01*
X122341734Y-57053480D01*
X122381206Y-57021086D01*
X122485431Y-56894088D01*
X122562878Y-56749196D01*
X122610569Y-56591980D01*
X122626672Y-56428480D01*
X122626672Y-56028480D01*
X122610569Y-55864980D01*
X122562878Y-55707764D01*
X122485431Y-55562872D01*
X122381206Y-55435874D01*
X122254208Y-55331649D01*
X122225361Y-55316230D01*
X122307377Y-55234214D01*
X122420645Y-55064696D01*
X122498666Y-54876338D01*
X122538440Y-54676379D01*
X122538440Y-54472501D01*
X122498666Y-54272542D01*
X122494366Y-54262160D01*
X123103603Y-54262160D01*
X123260981Y-54419538D01*
G37*
%TD.AperFunction*%
D23*
X130022048Y-58865880D02*
X130038151Y-59029380D01*
X130085842Y-59186596D01*
X130163289Y-59331488D01*
X130267514Y-59458486D01*
X130394512Y-59562711D01*
X130539404Y-59640158D01*
X130696620Y-59687849D01*
X130860120Y-59703952D01*
X131410120Y-59703952D01*
X131573620Y-59687849D01*
X131695650Y-59650831D01*
X131695650Y-60904249D01*
X131655840Y-60900328D01*
X131466590Y-60903400D01*
X131307840Y-61062150D01*
X131307840Y-61848900D01*
X131327840Y-61848900D01*
X131327840Y-62102900D01*
X131307840Y-62102900D01*
X131307840Y-62122900D01*
X131053840Y-62122900D01*
X131053840Y-62102900D01*
X130229590Y-62102900D01*
X130070840Y-62261650D01*
X130067768Y-62413400D01*
X130080028Y-62537882D01*
X130116338Y-62657580D01*
X130175303Y-62767894D01*
X130229940Y-62834470D01*
X130212169Y-62856125D01*
X130132990Y-63004258D01*
X130084232Y-63164992D01*
X130067768Y-63332150D01*
X130067768Y-63769650D01*
X130084232Y-63936808D01*
X130132990Y-64097542D01*
X130196186Y-64215773D01*
X129853775Y-63873362D01*
X129831388Y-63846083D01*
X129722515Y-63756733D01*
X129598303Y-63690340D01*
X129463525Y-63649456D01*
X129366832Y-63639932D01*
X129378453Y-63601622D01*
X129390713Y-63477140D01*
X129390713Y-62608292D01*
X129419514Y-62592897D01*
X129516205Y-62513545D01*
X129595557Y-62416854D01*
X129654522Y-62306540D01*
X129690832Y-62186842D01*
X129703092Y-62062360D01*
X129703092Y-61538400D01*
X130067768Y-61538400D01*
X130070840Y-61690150D01*
X130229590Y-61848900D01*
X131053840Y-61848900D01*
X131053840Y-61062150D01*
X130895090Y-60903400D01*
X130705840Y-60900328D01*
X130581358Y-60912588D01*
X130461660Y-60948898D01*
X130351346Y-61007863D01*
X130254655Y-61087215D01*
X130175303Y-61183906D01*
X130116338Y-61294220D01*
X130080028Y-61413918D01*
X130067768Y-61538400D01*
X129703092Y-61538400D01*
X129703092Y-60601860D01*
X129690832Y-60477378D01*
X129654522Y-60357680D01*
X129595557Y-60247366D01*
X129533320Y-60171530D01*
X129533320Y-58946720D01*
X129622145Y-58946720D01*
X129658250Y-58950276D01*
X129694355Y-58946720D01*
X129802335Y-58936085D01*
X129940883Y-58894057D01*
X130022048Y-58850673D01*
X130022048Y-58865880D01*
%TA.AperFunction,Conductor*%
D24*
G36*
X130022048Y-58865880D02*
G01*
X130038151Y-59029380D01*
X130085842Y-59186596D01*
X130163289Y-59331488D01*
X130267514Y-59458486D01*
X130394512Y-59562711D01*
X130539404Y-59640158D01*
X130696620Y-59687849D01*
X130860120Y-59703952D01*
X131410120Y-59703952D01*
X131573620Y-59687849D01*
X131695650Y-59650831D01*
X131695650Y-60904249D01*
X131655840Y-60900328D01*
X131466590Y-60903400D01*
X131307840Y-61062150D01*
X131307840Y-61848900D01*
X131327840Y-61848900D01*
X131327840Y-62102900D01*
X131307840Y-62102900D01*
X131307840Y-62122900D01*
X131053840Y-62122900D01*
X131053840Y-62102900D01*
X130229590Y-62102900D01*
X130070840Y-62261650D01*
X130067768Y-62413400D01*
X130080028Y-62537882D01*
X130116338Y-62657580D01*
X130175303Y-62767894D01*
X130229940Y-62834470D01*
X130212169Y-62856125D01*
X130132990Y-63004258D01*
X130084232Y-63164992D01*
X130067768Y-63332150D01*
X130067768Y-63769650D01*
X130084232Y-63936808D01*
X130132990Y-64097542D01*
X130196186Y-64215773D01*
X129853775Y-63873362D01*
X129831388Y-63846083D01*
X129722515Y-63756733D01*
X129598303Y-63690340D01*
X129463525Y-63649456D01*
X129366832Y-63639932D01*
X129378453Y-63601622D01*
X129390713Y-63477140D01*
X129390713Y-62608292D01*
X129419514Y-62592897D01*
X129516205Y-62513545D01*
X129595557Y-62416854D01*
X129654522Y-62306540D01*
X129690832Y-62186842D01*
X129703092Y-62062360D01*
X129703092Y-61538400D01*
X130067768Y-61538400D01*
X130070840Y-61690150D01*
X130229590Y-61848900D01*
X131053840Y-61848900D01*
X131053840Y-61062150D01*
X130895090Y-60903400D01*
X130705840Y-60900328D01*
X130581358Y-60912588D01*
X130461660Y-60948898D01*
X130351346Y-61007863D01*
X130254655Y-61087215D01*
X130175303Y-61183906D01*
X130116338Y-61294220D01*
X130080028Y-61413918D01*
X130067768Y-61538400D01*
X129703092Y-61538400D01*
X129703092Y-60601860D01*
X129690832Y-60477378D01*
X129654522Y-60357680D01*
X129595557Y-60247366D01*
X129533320Y-60171530D01*
X129533320Y-58946720D01*
X129622145Y-58946720D01*
X129658250Y-58950276D01*
X129694355Y-58946720D01*
X129802335Y-58936085D01*
X129940883Y-58894057D01*
X130022048Y-58850673D01*
X130022048Y-58865880D01*
G37*
%TD.AperFunction*%
D23*
X127606569Y-63147890D02*
X127490711Y-63147890D01*
X127490711Y-62853890D01*
X127606569Y-62853890D01*
X127606569Y-63147890D01*
%TA.AperFunction,Conductor*%
D24*
G36*
X127606569Y-63147890D02*
G01*
X127490711Y-63147890D01*
X127490711Y-62853890D01*
X127606569Y-62853890D01*
X127606569Y-63147890D01*
G37*
%TD.AperFunction*%
D23*
X117840860Y-61127640D02*
X117860860Y-61127640D01*
X117860860Y-61381640D01*
X117840860Y-61381640D01*
X117840860Y-61803730D01*
X117820440Y-61824150D01*
X117820440Y-62610900D01*
X117840440Y-62610900D01*
X117840440Y-62864900D01*
X117820440Y-62864900D01*
X117820440Y-62884900D01*
X117566440Y-62884900D01*
X117566440Y-62864900D01*
X117546440Y-62864900D01*
X117546440Y-62610900D01*
X117566440Y-62610900D01*
X117566440Y-62226310D01*
X117586860Y-62205890D01*
X117586860Y-61381640D01*
X117566860Y-61381640D01*
X117566860Y-61127640D01*
X117586860Y-61127640D01*
X117586860Y-61107640D01*
X117840860Y-61107640D01*
X117840860Y-61127640D01*
%TA.AperFunction,Conductor*%
D24*
G36*
X117840860Y-61127640D02*
G01*
X117860860Y-61127640D01*
X117860860Y-61381640D01*
X117840860Y-61381640D01*
X117840860Y-61803730D01*
X117820440Y-61824150D01*
X117820440Y-62610900D01*
X117840440Y-62610900D01*
X117840440Y-62864900D01*
X117820440Y-62864900D01*
X117820440Y-62884900D01*
X117566440Y-62884900D01*
X117566440Y-62864900D01*
X117546440Y-62864900D01*
X117546440Y-62610900D01*
X117566440Y-62610900D01*
X117566440Y-62226310D01*
X117586860Y-62205890D01*
X117586860Y-61381640D01*
X117566860Y-61381640D01*
X117566860Y-61127640D01*
X117586860Y-61127640D01*
X117586860Y-61107640D01*
X117840860Y-61107640D01*
X117840860Y-61127640D01*
G37*
%TD.AperFunction*%
D23*
X116779040Y-56100800D02*
X116799040Y-56100800D01*
X116799040Y-56354800D01*
X116779040Y-56354800D01*
X116779040Y-56374800D01*
X116525040Y-56374800D01*
X116525040Y-56354800D01*
X116505040Y-56354800D01*
X116505040Y-56100800D01*
X116525040Y-56100800D01*
X116525040Y-56080800D01*
X116779040Y-56080800D01*
X116779040Y-56100800D01*
%TA.AperFunction,Conductor*%
D24*
G36*
X116779040Y-56100800D02*
G01*
X116799040Y-56100800D01*
X116799040Y-56354800D01*
X116779040Y-56354800D01*
X116779040Y-56374800D01*
X116525040Y-56374800D01*
X116525040Y-56354800D01*
X116505040Y-56354800D01*
X116505040Y-56100800D01*
X116525040Y-56100800D01*
X116525040Y-56080800D01*
X116779040Y-56080800D01*
X116779040Y-56100800D01*
G37*
%TD.AperFunction*%
D23*
X128925320Y-55756810D02*
X128945320Y-55756810D01*
X128945320Y-56010810D01*
X128925320Y-56010810D01*
X128925320Y-56030810D01*
X128671320Y-56030810D01*
X128671320Y-56010810D01*
X128651320Y-56010810D01*
X128651320Y-55756810D01*
X128671320Y-55756810D01*
X128671320Y-55736810D01*
X128925320Y-55736810D01*
X128925320Y-55756810D01*
%TA.AperFunction,Conductor*%
D24*
G36*
X128925320Y-55756810D02*
G01*
X128945320Y-55756810D01*
X128945320Y-56010810D01*
X128925320Y-56010810D01*
X128925320Y-56030810D01*
X128671320Y-56030810D01*
X128671320Y-56010810D01*
X128651320Y-56010810D01*
X128651320Y-55756810D01*
X128671320Y-55756810D01*
X128671320Y-55736810D01*
X128925320Y-55736810D01*
X128925320Y-55756810D01*
G37*
%TD.AperFunction*%
D23*
X129867723Y-55560324D02*
X129735694Y-55630896D01*
X129720706Y-55643196D01*
X129648966Y-55702071D01*
X129648962Y-55702075D01*
X129619969Y-55725869D01*
X129596175Y-55754862D01*
X129594229Y-55756808D01*
X129541272Y-55756808D01*
X129700020Y-55598060D01*
X129700359Y-55549230D01*
X129904296Y-55549230D01*
X129867723Y-55560324D01*
%TA.AperFunction,Conductor*%
D24*
G36*
X129867723Y-55560324D02*
G01*
X129735694Y-55630896D01*
X129720706Y-55643196D01*
X129648966Y-55702071D01*
X129648962Y-55702075D01*
X129619969Y-55725869D01*
X129596175Y-55754862D01*
X129594229Y-55756808D01*
X129541272Y-55756808D01*
X129700020Y-55598060D01*
X129700359Y-55549230D01*
X129904296Y-55549230D01*
X129867723Y-55560324D01*
G37*
%TD.AperFunction*%
%TD*%
M02*
