%TF.GenerationSoftware,KiCad,Pcbnew,5.1.12-84ad8e8a86~92~ubuntu18.04.1*%
%TF.CreationDate,2024-08-09T12:32:27+07:00*%
%TF.ProjectId,framos_FSM_IMX_2LANE_Jetson_Adapter,6672616d-6f73-45f4-9653-4d5f494d585f,rev?*%
%TF.SameCoordinates,Original*%
%TF.FileFunction,Legend,Top*%
%TF.FilePolarity,Positive*%
%FSLAX46Y46*%
G04 Gerber Fmt 4.6, Leading zero omitted, Abs format (unit mm)*
G04 Created by KiCad (PCBNEW 5.1.12-84ad8e8a86~92~ubuntu18.04.1) date 2024-08-09 12:32:27*
%MOMM*%
%LPD*%
G01*
G04 APERTURE LIST*
%TA.AperFunction,Profile*%
%ADD10C,0.200000*%
%TD*%
%ADD11C,0.120000*%
%ADD12C,0.100000*%
%ADD13C,0.150000*%
G04 APERTURE END LIST*
D10*
X136475000Y-52525000D02*
X136493537Y-74564288D01*
X136493537Y-74564288D02*
G75*
G02*
X133725000Y-77150000I-2768537J189288D01*
G01*
X111650000Y-77150000D02*
G75*
G02*
X108875000Y-74375000I0J2775000D01*
G01*
X133700000Y-49750000D02*
G75*
G02*
X136475000Y-52525000I0J-2775000D01*
G01*
X108875000Y-52525000D02*
G75*
G02*
X111650000Y-49750000I2775000J0D01*
G01*
X108875000Y-74375000D02*
X108875000Y-52525000D01*
X133725000Y-77150000D02*
X111650000Y-77150000D01*
X111650000Y-49750000D02*
X133700000Y-49750000D01*
D11*
%TO.C,U1*%
X125973840Y-63350140D02*
X125973840Y-65204340D01*
X127185379Y-65204340D02*
X127911901Y-65204340D01*
X129123440Y-65204340D02*
X129123440Y-63350140D01*
%TO.C,R9*%
X113787660Y-57851578D02*
X113787660Y-57377062D01*
X114832660Y-57851578D02*
X114832660Y-57377062D01*
%TO.C,U3*%
X129522220Y-60728860D02*
X129522220Y-56487060D01*
X124264420Y-56487060D02*
X124264420Y-60728860D01*
%TO.C,C4*%
X117183440Y-63688179D02*
X117183440Y-63362621D01*
X118203440Y-63688179D02*
X118203440Y-63362621D01*
%TO.C,C6*%
X116763581Y-61764640D02*
X117089139Y-61764640D01*
X116763581Y-60744640D02*
X117089139Y-60744640D01*
%TO.C,R6*%
X116648960Y-63362621D02*
X116648960Y-63688179D01*
X115628960Y-63362621D02*
X115628960Y-63688179D01*
%TO.C,R4*%
X122345980Y-66132942D02*
X122345980Y-66607458D01*
X121300980Y-66132942D02*
X121300980Y-66607458D01*
%TO.C,R3*%
X123898120Y-66517739D02*
X123898120Y-66192181D01*
X122878120Y-66517739D02*
X122878120Y-66192181D01*
%TO.C,R8*%
X130612620Y-58078138D02*
X130612620Y-57603622D01*
X131657620Y-58078138D02*
X131657620Y-57603622D01*
%TO.C,R2*%
X124425180Y-66582058D02*
X124425180Y-66107542D01*
X125470180Y-66582058D02*
X125470180Y-66107542D01*
%TO.C,R7*%
X122036100Y-56816222D02*
X122036100Y-57290738D01*
X120991100Y-56816222D02*
X120991100Y-57290738D01*
%TO.C,C7*%
X122140100Y-58870120D02*
X122421260Y-58870120D01*
X122140100Y-59890120D02*
X122421260Y-59890120D01*
D12*
%TO.C,J1*%
X129250000Y-74850000D02*
X130050000Y-74820000D01*
X130050000Y-74820000D02*
X130050000Y-71850000D01*
X130050000Y-71850000D02*
X129250000Y-71880000D01*
X116250000Y-74820000D02*
X115450000Y-74820000D01*
X115450000Y-74820000D02*
X115450000Y-71880000D01*
X115450000Y-71880000D02*
X116250000Y-71880000D01*
D11*
%TO.C,C2*%
X127973360Y-67716281D02*
X127973360Y-68041839D01*
X128993360Y-67716281D02*
X128993360Y-68041839D01*
%TO.C,C1*%
X130670840Y-62926179D02*
X130670840Y-62600621D01*
X131690840Y-62926179D02*
X131690840Y-62600621D01*
%TO.C,C3*%
X126119160Y-67721161D02*
X126119160Y-68046719D01*
X127139160Y-67721161D02*
X127139160Y-68046719D01*
%TO.C,C5*%
X114396301Y-68974240D02*
X114721859Y-68974240D01*
X114396301Y-69994240D02*
X114721859Y-69994240D01*
%TO.C,R1*%
X130670840Y-65633281D02*
X130670840Y-65958839D01*
X131690840Y-65633281D02*
X131690840Y-65958839D01*
%TO.C,R5*%
X119728520Y-66535519D02*
X119728520Y-66209961D01*
X120748520Y-66535519D02*
X120748520Y-66209961D01*
%TO.C,U2*%
X115880720Y-65268200D02*
X114080720Y-65268200D01*
X114080720Y-68488200D02*
X116530720Y-68488200D01*
%TO.C,X1*%
X115752040Y-59127800D02*
X115222040Y-59127800D01*
X115222040Y-59127800D02*
X115222040Y-55527800D01*
X115222040Y-55527800D02*
X115752040Y-55527800D01*
X118292040Y-59127800D02*
X117552040Y-59127800D01*
X120092040Y-55287800D02*
X120092040Y-55527800D01*
X120092040Y-55527800D02*
X120622040Y-55527800D01*
X120622040Y-55527800D02*
X120622040Y-59127800D01*
X120622040Y-59127800D02*
X120092040Y-59127800D01*
X117552040Y-55527800D02*
X118292040Y-55527800D01*
X118292040Y-55527800D02*
X118292040Y-55287800D01*
%TD*%
%TO.C,U1*%
D13*
X124084175Y-62393580D02*
X124084175Y-63203104D01*
X124131794Y-63298342D01*
X124179413Y-63345961D01*
X124274651Y-63393580D01*
X124465127Y-63393580D01*
X124560365Y-63345961D01*
X124607984Y-63298342D01*
X124655603Y-63203104D01*
X124655603Y-62393580D01*
X125655603Y-63393580D02*
X125084175Y-63393580D01*
X125369889Y-63393580D02*
X125369889Y-62393580D01*
X125274651Y-62536438D01*
X125179413Y-62631676D01*
X125084175Y-62679295D01*
X129093980Y-62844680D02*
X129332076Y-62844680D01*
X129236838Y-63082775D02*
X129332076Y-62844680D01*
X129236838Y-62606584D01*
X129522552Y-62987537D02*
X129332076Y-62844680D01*
X129522552Y-62701822D01*
X129093980Y-62839600D02*
X129332076Y-62839600D01*
X129236838Y-63077695D02*
X129332076Y-62839600D01*
X129236838Y-62601504D01*
X129522552Y-62982457D02*
X129332076Y-62839600D01*
X129522552Y-62696742D01*
%TO.C,R9*%
X114721900Y-60212266D02*
X114245710Y-60545600D01*
X114721900Y-60783695D02*
X113721900Y-60783695D01*
X113721900Y-60402742D01*
X113769520Y-60307504D01*
X113817139Y-60259885D01*
X113912377Y-60212266D01*
X114055234Y-60212266D01*
X114150472Y-60259885D01*
X114198091Y-60307504D01*
X114245710Y-60402742D01*
X114245710Y-60783695D01*
X114721900Y-59736076D02*
X114721900Y-59545600D01*
X114674281Y-59450361D01*
X114626662Y-59402742D01*
X114483805Y-59307504D01*
X114293329Y-59259885D01*
X113912377Y-59259885D01*
X113817139Y-59307504D01*
X113769520Y-59355123D01*
X113721900Y-59450361D01*
X113721900Y-59640838D01*
X113769520Y-59736076D01*
X113817139Y-59783695D01*
X113912377Y-59831314D01*
X114150472Y-59831314D01*
X114245710Y-59783695D01*
X114293329Y-59736076D01*
X114340948Y-59640838D01*
X114340948Y-59450361D01*
X114293329Y-59355123D01*
X114245710Y-59307504D01*
X114150472Y-59259885D01*
%TO.C,U3*%
X126151735Y-53661060D02*
X126151735Y-54470584D01*
X126199354Y-54565822D01*
X126246973Y-54613441D01*
X126342211Y-54661060D01*
X126532687Y-54661060D01*
X126627925Y-54613441D01*
X126675544Y-54565822D01*
X126723163Y-54470584D01*
X126723163Y-53661060D01*
X127104116Y-53661060D02*
X127723163Y-53661060D01*
X127389830Y-54042013D01*
X127532687Y-54042013D01*
X127627925Y-54089632D01*
X127675544Y-54137251D01*
X127723163Y-54232489D01*
X127723163Y-54470584D01*
X127675544Y-54565822D01*
X127627925Y-54613441D01*
X127532687Y-54661060D01*
X127246973Y-54661060D01*
X127151735Y-54613441D01*
X127104116Y-54565822D01*
X129434340Y-55534560D02*
X129672436Y-55534560D01*
X129577198Y-55772655D02*
X129672436Y-55534560D01*
X129577198Y-55296464D01*
X129862912Y-55677417D02*
X129672436Y-55534560D01*
X129862912Y-55391702D01*
X129434340Y-55534560D02*
X129672436Y-55534560D01*
X129577198Y-55772655D02*
X129672436Y-55534560D01*
X129577198Y-55296464D01*
X129862912Y-55677417D02*
X129672436Y-55534560D01*
X129862912Y-55391702D01*
%TO.C,C4*%
X119427262Y-63686986D02*
X119474881Y-63734605D01*
X119522500Y-63877462D01*
X119522500Y-63972700D01*
X119474881Y-64115558D01*
X119379643Y-64210796D01*
X119284405Y-64258415D01*
X119093929Y-64306034D01*
X118951072Y-64306034D01*
X118760596Y-64258415D01*
X118665358Y-64210796D01*
X118570120Y-64115558D01*
X118522500Y-63972700D01*
X118522500Y-63877462D01*
X118570120Y-63734605D01*
X118617739Y-63686986D01*
X118855834Y-62829843D02*
X119522500Y-62829843D01*
X118474881Y-63067939D02*
X119189167Y-63306034D01*
X119189167Y-62686986D01*
%TO.C,C6*%
X116754613Y-60306222D02*
X116706994Y-60353841D01*
X116564137Y-60401460D01*
X116468899Y-60401460D01*
X116326041Y-60353841D01*
X116230803Y-60258603D01*
X116183184Y-60163365D01*
X116135565Y-59972889D01*
X116135565Y-59830032D01*
X116183184Y-59639556D01*
X116230803Y-59544318D01*
X116326041Y-59449080D01*
X116468899Y-59401460D01*
X116564137Y-59401460D01*
X116706994Y-59449080D01*
X116754613Y-59496699D01*
X117611756Y-59401460D02*
X117421280Y-59401460D01*
X117326041Y-59449080D01*
X117278422Y-59496699D01*
X117183184Y-59639556D01*
X117135565Y-59830032D01*
X117135565Y-60210984D01*
X117183184Y-60306222D01*
X117230803Y-60353841D01*
X117326041Y-60401460D01*
X117516518Y-60401460D01*
X117611756Y-60353841D01*
X117659375Y-60306222D01*
X117706994Y-60210984D01*
X117706994Y-59972889D01*
X117659375Y-59877651D01*
X117611756Y-59830032D01*
X117516518Y-59782413D01*
X117326041Y-59782413D01*
X117230803Y-59830032D01*
X117183184Y-59877651D01*
X117135565Y-59972889D01*
%TO.C,R6*%
X115245140Y-63697146D02*
X114768950Y-64030480D01*
X115245140Y-64268575D02*
X114245140Y-64268575D01*
X114245140Y-63887622D01*
X114292760Y-63792384D01*
X114340379Y-63744765D01*
X114435617Y-63697146D01*
X114578474Y-63697146D01*
X114673712Y-63744765D01*
X114721331Y-63792384D01*
X114768950Y-63887622D01*
X114768950Y-64268575D01*
X114245140Y-62840003D02*
X114245140Y-63030480D01*
X114292760Y-63125718D01*
X114340379Y-63173337D01*
X114483236Y-63268575D01*
X114673712Y-63316194D01*
X115054664Y-63316194D01*
X115149902Y-63268575D01*
X115197521Y-63220956D01*
X115245140Y-63125718D01*
X115245140Y-62935241D01*
X115197521Y-62840003D01*
X115149902Y-62792384D01*
X115054664Y-62744765D01*
X114816569Y-62744765D01*
X114721331Y-62792384D01*
X114673712Y-62840003D01*
X114626093Y-62935241D01*
X114626093Y-63125718D01*
X114673712Y-63220956D01*
X114721331Y-63268575D01*
X114816569Y-63316194D01*
%TO.C,R4*%
X122247920Y-68960026D02*
X121771730Y-69293360D01*
X122247920Y-69531455D02*
X121247920Y-69531455D01*
X121247920Y-69150502D01*
X121295540Y-69055264D01*
X121343159Y-69007645D01*
X121438397Y-68960026D01*
X121581254Y-68960026D01*
X121676492Y-69007645D01*
X121724111Y-69055264D01*
X121771730Y-69150502D01*
X121771730Y-69531455D01*
X121581254Y-68102883D02*
X122247920Y-68102883D01*
X121200301Y-68340979D02*
X121914587Y-68579074D01*
X121914587Y-67960026D01*
%TO.C,R3*%
X123845580Y-68909226D02*
X123369390Y-69242560D01*
X123845580Y-69480655D02*
X122845580Y-69480655D01*
X122845580Y-69099702D01*
X122893200Y-69004464D01*
X122940819Y-68956845D01*
X123036057Y-68909226D01*
X123178914Y-68909226D01*
X123274152Y-68956845D01*
X123321771Y-69004464D01*
X123369390Y-69099702D01*
X123369390Y-69480655D01*
X122845580Y-68575893D02*
X122845580Y-67956845D01*
X123226533Y-68290179D01*
X123226533Y-68147321D01*
X123274152Y-68052083D01*
X123321771Y-68004464D01*
X123417009Y-67956845D01*
X123655104Y-67956845D01*
X123750342Y-68004464D01*
X123797961Y-68052083D01*
X123845580Y-68147321D01*
X123845580Y-68433036D01*
X123797961Y-68528274D01*
X123750342Y-68575893D01*
%TO.C,R8*%
X131577340Y-55249106D02*
X131101150Y-55582440D01*
X131577340Y-55820535D02*
X130577340Y-55820535D01*
X130577340Y-55439582D01*
X130624960Y-55344344D01*
X130672579Y-55296725D01*
X130767817Y-55249106D01*
X130910674Y-55249106D01*
X131005912Y-55296725D01*
X131053531Y-55344344D01*
X131101150Y-55439582D01*
X131101150Y-55820535D01*
X131005912Y-54677678D02*
X130958293Y-54772916D01*
X130910674Y-54820535D01*
X130815436Y-54868154D01*
X130767817Y-54868154D01*
X130672579Y-54820535D01*
X130624960Y-54772916D01*
X130577340Y-54677678D01*
X130577340Y-54487201D01*
X130624960Y-54391963D01*
X130672579Y-54344344D01*
X130767817Y-54296725D01*
X130815436Y-54296725D01*
X130910674Y-54344344D01*
X130958293Y-54391963D01*
X131005912Y-54487201D01*
X131005912Y-54677678D01*
X131053531Y-54772916D01*
X131101150Y-54820535D01*
X131196388Y-54868154D01*
X131386864Y-54868154D01*
X131482102Y-54820535D01*
X131529721Y-54772916D01*
X131577340Y-54677678D01*
X131577340Y-54487201D01*
X131529721Y-54391963D01*
X131482102Y-54344344D01*
X131386864Y-54296725D01*
X131196388Y-54296725D01*
X131101150Y-54344344D01*
X131053531Y-54391963D01*
X131005912Y-54487201D01*
%TO.C,R2*%
X125389900Y-68944786D02*
X124913710Y-69278120D01*
X125389900Y-69516215D02*
X124389900Y-69516215D01*
X124389900Y-69135262D01*
X124437520Y-69040024D01*
X124485139Y-68992405D01*
X124580377Y-68944786D01*
X124723234Y-68944786D01*
X124818472Y-68992405D01*
X124866091Y-69040024D01*
X124913710Y-69135262D01*
X124913710Y-69516215D01*
X124485139Y-68563834D02*
X124437520Y-68516215D01*
X124389900Y-68420977D01*
X124389900Y-68182881D01*
X124437520Y-68087643D01*
X124485139Y-68040024D01*
X124580377Y-67992405D01*
X124675615Y-67992405D01*
X124818472Y-68040024D01*
X125389900Y-68611453D01*
X125389900Y-67992405D01*
%TO.C,R7*%
X123459500Y-56635946D02*
X122983310Y-56969280D01*
X123459500Y-57207375D02*
X122459500Y-57207375D01*
X122459500Y-56826422D01*
X122507120Y-56731184D01*
X122554739Y-56683565D01*
X122649977Y-56635946D01*
X122792834Y-56635946D01*
X122888072Y-56683565D01*
X122935691Y-56731184D01*
X122983310Y-56826422D01*
X122983310Y-57207375D01*
X122459500Y-56302613D02*
X122459500Y-55635946D01*
X123459500Y-56064518D01*
%TO.C,C7*%
X122124173Y-61154582D02*
X122076554Y-61202201D01*
X121933697Y-61249820D01*
X121838459Y-61249820D01*
X121695601Y-61202201D01*
X121600363Y-61106963D01*
X121552744Y-61011725D01*
X121505125Y-60821249D01*
X121505125Y-60678392D01*
X121552744Y-60487916D01*
X121600363Y-60392678D01*
X121695601Y-60297440D01*
X121838459Y-60249820D01*
X121933697Y-60249820D01*
X122076554Y-60297440D01*
X122124173Y-60345059D01*
X122457506Y-60249820D02*
X123124173Y-60249820D01*
X122695601Y-61249820D01*
%TO.C,J1*%
X129130466Y-75052940D02*
X129130466Y-75767226D01*
X129082847Y-75910083D01*
X128987609Y-76005321D01*
X128844752Y-76052940D01*
X128749514Y-76052940D01*
X130130466Y-76052940D02*
X129559038Y-76052940D01*
X129844752Y-76052940D02*
X129844752Y-75052940D01*
X129749514Y-75195798D01*
X129654276Y-75291036D01*
X129559038Y-75338655D01*
%TO.C,C2*%
X128825262Y-70433226D02*
X128872881Y-70480845D01*
X128920500Y-70623702D01*
X128920500Y-70718940D01*
X128872881Y-70861798D01*
X128777643Y-70957036D01*
X128682405Y-71004655D01*
X128491929Y-71052274D01*
X128349072Y-71052274D01*
X128158596Y-71004655D01*
X128063358Y-70957036D01*
X127968120Y-70861798D01*
X127920500Y-70718940D01*
X127920500Y-70623702D01*
X127968120Y-70480845D01*
X128015739Y-70433226D01*
X128015739Y-70052274D02*
X127968120Y-70004655D01*
X127920500Y-69909417D01*
X127920500Y-69671321D01*
X127968120Y-69576083D01*
X128015739Y-69528464D01*
X128110977Y-69480845D01*
X128206215Y-69480845D01*
X128349072Y-69528464D01*
X128920500Y-70099893D01*
X128920500Y-69480845D01*
%TO.C,C1*%
X131537982Y-60547546D02*
X131585601Y-60595165D01*
X131633220Y-60738022D01*
X131633220Y-60833260D01*
X131585601Y-60976118D01*
X131490363Y-61071356D01*
X131395125Y-61118975D01*
X131204649Y-61166594D01*
X131061792Y-61166594D01*
X130871316Y-61118975D01*
X130776078Y-61071356D01*
X130680840Y-60976118D01*
X130633220Y-60833260D01*
X130633220Y-60738022D01*
X130680840Y-60595165D01*
X130728459Y-60547546D01*
X131633220Y-59595165D02*
X131633220Y-60166594D01*
X131633220Y-59880880D02*
X130633220Y-59880880D01*
X130776078Y-59976118D01*
X130871316Y-60071356D01*
X130918935Y-60166594D01*
%TO.C,C3*%
X126955822Y-70468786D02*
X127003441Y-70516405D01*
X127051060Y-70659262D01*
X127051060Y-70754500D01*
X127003441Y-70897358D01*
X126908203Y-70992596D01*
X126812965Y-71040215D01*
X126622489Y-71087834D01*
X126479632Y-71087834D01*
X126289156Y-71040215D01*
X126193918Y-70992596D01*
X126098680Y-70897358D01*
X126051060Y-70754500D01*
X126051060Y-70659262D01*
X126098680Y-70516405D01*
X126146299Y-70468786D01*
X126051060Y-70135453D02*
X126051060Y-69516405D01*
X126432013Y-69849739D01*
X126432013Y-69706881D01*
X126479632Y-69611643D01*
X126527251Y-69564024D01*
X126622489Y-69516405D01*
X126860584Y-69516405D01*
X126955822Y-69564024D01*
X127003441Y-69611643D01*
X127051060Y-69706881D01*
X127051060Y-69992596D01*
X127003441Y-70087834D01*
X126955822Y-70135453D01*
%TO.C,C5*%
X113848853Y-71248542D02*
X113801234Y-71296161D01*
X113658377Y-71343780D01*
X113563139Y-71343780D01*
X113420281Y-71296161D01*
X113325043Y-71200923D01*
X113277424Y-71105685D01*
X113229805Y-70915209D01*
X113229805Y-70772352D01*
X113277424Y-70581876D01*
X113325043Y-70486638D01*
X113420281Y-70391400D01*
X113563139Y-70343780D01*
X113658377Y-70343780D01*
X113801234Y-70391400D01*
X113848853Y-70439019D01*
X114753615Y-70343780D02*
X114277424Y-70343780D01*
X114229805Y-70819971D01*
X114277424Y-70772352D01*
X114372662Y-70724733D01*
X114610758Y-70724733D01*
X114705996Y-70772352D01*
X114753615Y-70819971D01*
X114801234Y-70915209D01*
X114801234Y-71153304D01*
X114753615Y-71248542D01*
X114705996Y-71296161D01*
X114610758Y-71343780D01*
X114372662Y-71343780D01*
X114277424Y-71296161D01*
X114229805Y-71248542D01*
%TO.C,R1*%
X131653540Y-68329906D02*
X131177350Y-68663240D01*
X131653540Y-68901335D02*
X130653540Y-68901335D01*
X130653540Y-68520382D01*
X130701160Y-68425144D01*
X130748779Y-68377525D01*
X130844017Y-68329906D01*
X130986874Y-68329906D01*
X131082112Y-68377525D01*
X131129731Y-68425144D01*
X131177350Y-68520382D01*
X131177350Y-68901335D01*
X131653540Y-67377525D02*
X131653540Y-67948954D01*
X131653540Y-67663240D02*
X130653540Y-67663240D01*
X130796398Y-67758478D01*
X130891636Y-67853716D01*
X130939255Y-67948954D01*
%TO.C,R5*%
X120690900Y-68919386D02*
X120214710Y-69252720D01*
X120690900Y-69490815D02*
X119690900Y-69490815D01*
X119690900Y-69109862D01*
X119738520Y-69014624D01*
X119786139Y-68967005D01*
X119881377Y-68919386D01*
X120024234Y-68919386D01*
X120119472Y-68967005D01*
X120167091Y-69014624D01*
X120214710Y-69109862D01*
X120214710Y-69490815D01*
X119690900Y-68014624D02*
X119690900Y-68490815D01*
X120167091Y-68538434D01*
X120119472Y-68490815D01*
X120071853Y-68395577D01*
X120071853Y-68157481D01*
X120119472Y-68062243D01*
X120167091Y-68014624D01*
X120262329Y-67967005D01*
X120500424Y-67967005D01*
X120595662Y-68014624D01*
X120643281Y-68062243D01*
X120690900Y-68157481D01*
X120690900Y-68395577D01*
X120643281Y-68490815D01*
X120595662Y-68538434D01*
%TO.C,U2*%
X117028055Y-66355980D02*
X117028055Y-67165504D01*
X117075674Y-67260742D01*
X117123293Y-67308361D01*
X117218531Y-67355980D01*
X117409007Y-67355980D01*
X117504245Y-67308361D01*
X117551864Y-67260742D01*
X117599483Y-67165504D01*
X117599483Y-66355980D01*
X118028055Y-66451219D02*
X118075674Y-66403600D01*
X118170912Y-66355980D01*
X118409007Y-66355980D01*
X118504245Y-66403600D01*
X118551864Y-66451219D01*
X118599483Y-66546457D01*
X118599483Y-66641695D01*
X118551864Y-66784552D01*
X117980436Y-67355980D01*
X118599483Y-67355980D01*
%TO.C,X1*%
X118412996Y-54057300D02*
X119079662Y-55057300D01*
X119079662Y-54057300D02*
X118412996Y-55057300D01*
X119984424Y-55057300D02*
X119412996Y-55057300D01*
X119698710Y-55057300D02*
X119698710Y-54057300D01*
X119603472Y-54200158D01*
X119508234Y-54295396D01*
X119412996Y-54343015D01*
%TD*%
M02*
