M48
; DRILL file {KiCad 5.1.12-84ad8e8a86~92~ubuntu18.04.1} date Thứ sáu, 09 Tháng 8 Năm 2024 12:32:33 +07
; FORMAT={-:-/ absolute / metric / decimal}
; #@! TF.CreationDate,2024-08-09T12:32:33+07:00
; #@! TF.GenerationSoftware,Kicad,Pcbnew,5.1.12-84ad8e8a86~92~ubuntu18.04.1
; #@! TF.FileFunction,Plated,1,2,PTH
FMAT,2
METRIC
T1C0.400
T2C2.200
%
G90
G05
T1
X111.801Y-71.003
X111.836Y-56.363
X111.892Y-63.795
X114.701Y-66.888
X115.321Y-71.028
X115.367Y-73.792
X116.393Y-73.944
X116.637Y-52.715
X116.662Y-56.195
X117.231Y-69.489
X117.78Y-70.455
X118.623Y-69.098
X118.791Y-68.082
X120.183Y-73.254
X120.401Y-70.449
X121.346Y-73.249
X121.503Y-54.574
X121.773Y-63.804
X122.743Y-54.574
X123.043Y-57.826
X123.434Y-70.46
X124.384Y-68.722
X124.773Y-63.776
X124.978Y-59.431
X125.75Y-70.469
X125.948Y-59.873
X127.528Y-58.572
X128.478Y-68.687
X129.799Y-59.096
X130.82Y-55.519
X130.856Y-74.209
X130.866Y-52.725
X135.204Y-63.708
X135.306Y-70.424
X135.336Y-55.489
T2
X111.455Y-74.569
X111.486Y-52.324
X133.883Y-74.579
X133.944Y-52.324
T0
M30
