%TF.GenerationSoftware,KiCad,Pcbnew,5.1.12-84ad8e8a86~92~ubuntu18.04.1*%
%TF.CreationDate,2024-08-09T12:32:27+07:00*%
%TF.ProjectId,framos_FSM_IMX_2LANE_Jetson_Adapter,6672616d-6f73-45f4-9653-4d5f494d585f,rev?*%
%TF.SameCoordinates,Original*%
%TF.FileFunction,Paste,Bot*%
%TF.FilePolarity,Positive*%
%FSLAX46Y46*%
G04 Gerber Fmt 4.6, Leading zero omitted, Abs format (unit mm)*
G04 Created by KiCad (PCBNEW 5.1.12-84ad8e8a86~92~ubuntu18.04.1) date 2024-08-09 12:32:27*
%MOMM*%
%LPD*%
G01*
G04 APERTURE LIST*
%TA.AperFunction,Profile*%
%ADD10C,0.200000*%
%TD*%
%ADD11R,2.100000X3.000000*%
%ADD12R,0.800000X1.600000*%
%ADD13R,0.600000X1.850000*%
%ADD14R,0.600000X1.650000*%
G04 APERTURE END LIST*
D10*
X136475000Y-52525000D02*
X136493537Y-74564288D01*
X136493537Y-74564288D02*
G75*
G02*
X133725000Y-77150000I-2768537J189288D01*
G01*
X111650000Y-77150000D02*
G75*
G02*
X108875000Y-74375000I0J2775000D01*
G01*
X133700000Y-49750000D02*
G75*
G02*
X136475000Y-52525000I0J-2775000D01*
G01*
X108875000Y-52525000D02*
G75*
G02*
X111650000Y-49750000I2775000J0D01*
G01*
X108875000Y-74375000D02*
X108875000Y-52525000D01*
X133725000Y-77150000D02*
X111650000Y-77150000D01*
X111650000Y-49750000D02*
X133700000Y-49750000D01*
D11*
%TO.C,P1*%
X126548040Y-51664280D03*
X118948040Y-51664280D03*
D12*
X123998040Y-54564280D03*
X122748040Y-54564280D03*
X121498040Y-54564280D03*
%TD*%
D13*
%TO.C,J2*%
X115773440Y-61840760D03*
D14*
X115773440Y-65590760D03*
D13*
X116773440Y-61840760D03*
X117773440Y-61840760D03*
X118773440Y-61840760D03*
X119773440Y-61840760D03*
X120773440Y-61840760D03*
X121773440Y-61840760D03*
X122773440Y-61840760D03*
X123773440Y-61840760D03*
X124773440Y-61840760D03*
X125773440Y-61840760D03*
X126773440Y-61840760D03*
X127773440Y-61840760D03*
X128773440Y-61840760D03*
X129773440Y-61840760D03*
D14*
X116773440Y-65590760D03*
X117773440Y-65590760D03*
X118773440Y-65590760D03*
X119773440Y-65590760D03*
X120773440Y-65590760D03*
X121773440Y-65590760D03*
X122773440Y-65590760D03*
X123773440Y-65590760D03*
X124773440Y-65590760D03*
X125773440Y-65590760D03*
X126773440Y-65590760D03*
X127773440Y-65590760D03*
X128773440Y-65590760D03*
X129773440Y-65590760D03*
%TD*%
M02*
